Walleye.ufo
<glyph name="exclam" format="1">
  <advance width="216"/>
  <unicode hex="0021"/>
  <outline>
    <contour>
      <point x="58" y="640" type="curve"/>
      <point x="75" y="637"/>
      <point x="89" y="636"/>
      <point x="104" y="636" type="curve" smooth="yes"/>
      <point x="122" y="636"/>
      <point x="140" y="638"/>
      <point x="161" y="641" type="curve"/>
      <point x="142" y="485"/>
      <point x="128" y="327"/>
      <point x="120" y="162" type="curve"/>
      <point x="94" y="162" type="line"/>
      <point x="86" y="353"/>
      <point x="77" y="482"/>
    </contour>
    <contour>
      <point x="103" y="-14" type="curve" smooth="yes"/>
      <point x="67" y="-14"/>
      <point x="55" y="13"/>
      <point x="55" y="33" type="curve" smooth="yes"/>
      <point x="55" y="59"/>
      <point x="75" y="83"/>
      <point x="106" y="83" type="curve" smooth="yes"/>
      <point x="141" y="83"/>
      <point x="154" y="60"/>
      <point x="154" y="39" type="curve" smooth="yes"/>
      <point x="154" y="13"/>
      <point x="136" y="-14"/>
    </contour>
  </outline>
</glyph>
<glyph name="quotedbl" format="1">
  <advance width="367"/>
  <unicode hex="0022"/>
  <outline>
    <contour>
      <point x="55" y="704" type="curve"/>
      <point x="73" y="702"/>
      <point x="90" y="701"/>
      <point x="108" y="701" type="curve" smooth="yes"/>
      <point x="125" y="701"/>
      <point x="143" y="702"/>
      <point x="162" y="704" type="curve"/>
      <point x="144" y="640"/>
      <point x="124" y="530"/>
      <point x="118" y="463" type="curve"/>
      <point x="91" y="463" type="line"/>
      <point x="88" y="537"/>
      <point x="75" y="631"/>
    </contour>
    <contour>
      <point x="205" y="704" type="curve"/>
      <point x="223" y="702"/>
      <point x="240" y="701"/>
      <point x="258" y="701" type="curve" smooth="yes"/>
      <point x="275" y="701"/>
      <point x="293" y="702"/>
      <point x="312" y="704" type="curve"/>
      <point x="294" y="640"/>
      <point x="274" y="530"/>
      <point x="268" y="463" type="curve"/>
      <point x="241" y="463" type="line"/>
      <point x="238" y="537"/>
      <point x="225" y="631"/>
    </contour>
  </outline>
</glyph>
<glyph name="numbersign" format="1">
  <advance width="532"/>
  <unicode hex="0023"/>
  <outline>
    <contour>
      <point x="32" y="445" type="line"/>
      <point x="40" y="475" type="line"/>
      <point x="190" y="475" type="line"/>
      <point x="220" y="636" type="line"/>
      <point x="258" y="642" type="line"/>
      <point x="245" y="587"/>
      <point x="234" y="531"/>
      <point x="222" y="475" type="curve"/>
      <point x="373" y="475" type="line"/>
      <point x="384" y="529"/>
      <point x="394" y="583"/>
      <point x="404" y="636" type="curve"/>
      <point x="442" y="642" type="line"/>
      <point x="406" y="475" type="line"/>
      <point x="501" y="475" type="line"/>
      <point x="492" y="445" type="line"/>
      <point x="400" y="445" type="line"/>
      <point x="385" y="373"/>
      <point x="370" y="301"/>
      <point x="356" y="230" type="curve"/>
      <point x="501" y="230" type="line"/>
      <point x="492" y="199" type="line"/>
      <point x="350" y="199" type="line"/>
      <point x="313" y="2" type="line"/>
      <point x="275" y="-6" type="line"/>
      <point x="290" y="61"/>
      <point x="304" y="130"/>
      <point x="318" y="199" type="curve"/>
      <point x="166" y="199" type="line"/>
      <point x="129" y="2" type="line"/>
      <point x="91" y="-6" type="line"/>
      <point x="106" y="61"/>
      <point x="120" y="130"/>
      <point x="135" y="199" type="curve"/>
      <point x="32" y="199" type="line"/>
      <point x="40" y="230" type="line"/>
      <point x="141" y="230" type="line"/>
      <point x="156" y="301"/>
      <point x="170" y="373"/>
      <point x="184" y="445" type="curve"/>
    </contour>
    <contour>
      <point x="215" y="445" type="line"/>
      <point x="200" y="373"/>
      <point x="186" y="301"/>
      <point x="172" y="230" type="curve"/>
      <point x="325" y="230" type="line"/>
      <point x="340" y="301"/>
      <point x="354" y="373"/>
      <point x="368" y="445" type="curve"/>
    </contour>
  </outline>
</glyph>
<glyph name="dollar" format="1">
  <advance width="479"/>
  <unicode hex="0024"/>
  <outline>
    <contour>
      <point x="227" y="-63" type="line"/>
      <point x="227" y="-15" type="line"/>
      <point x="220" y="-15" type="line" smooth="yes"/>
      <point x="173" y="-15"/>
      <point x="98" y="3"/>
      <point x="61" y="29" type="curve"/>
      <point x="49" y="70"/>
      <point x="34" y="110"/>
      <point x="15" y="149" type="curve"/>
      <point x="37" y="160" type="line"/>
      <point x="75" y="92"/>
      <point x="124" y="22"/>
      <point x="227" y="20" type="curve"/>
      <point x="227" y="310" type="line"/>
      <point x="157" y="340"/>
      <point x="55" y="383"/>
      <point x="55" y="482" type="curve" smooth="yes"/>
      <point x="55" y="547"/>
      <point x="103" y="637"/>
      <point x="227" y="647" type="curve"/>
      <point x="227" y="690" type="line"/>
      <point x="259" y="690" type="line"/>
      <point x="259" y="648" type="line"/>
      <point x="295" y="647"/>
      <point x="330" y="641"/>
      <point x="368" y="627" type="curve"/>
      <point x="375" y="609"/>
      <point x="408" y="534"/>
      <point x="415" y="522" type="curve"/>
      <point x="394" y="510" type="line"/>
      <point x="367" y="557"/>
      <point x="325" y="604"/>
      <point x="259" y="611" type="curve"/>
      <point x="259" y="389" type="line"/>
      <point x="263" y="387" type="line"/>
      <point x="373" y="343"/>
      <point x="450" y="313"/>
      <point x="450" y="189" type="curve" smooth="yes"/>
      <point x="450" y="127"/>
      <point x="410" y="5"/>
      <point x="259" y="-13" type="curve"/>
      <point x="259" y="-63" type="line"/>
    </contour>
    <contour>
      <point x="383" y="160" type="curve" smooth="yes"/>
      <point x="383" y="220"/>
      <point x="346" y="257"/>
      <point x="259" y="297" type="curve"/>
      <point x="259" y="22" type="line"/>
      <point x="316" y="31"/>
      <point x="383" y="70"/>
    </contour>
    <contour>
      <point x="125" y="515" type="curve" smooth="yes"/>
      <point x="125" y="458"/>
      <point x="174" y="426"/>
      <point x="227" y="402" type="curve"/>
      <point x="227" y="612" type="line"/>
      <point x="151" y="607"/>
      <point x="125" y="554"/>
    </contour>
  </outline>
</glyph>
<glyph name="percent" format="1">
  <advance width="638"/>
  <unicode hex="0025"/>
  <outline>
    <contour>
      <point x="42" y="-10" type="curve"/>
      <point x="199" y="163"/>
      <point x="338" y="361"/>
      <point x="458" y="535" type="curve"/>
      <point x="437" y="525"/>
      <point x="409" y="518"/>
      <point x="379" y="518" type="curve" smooth="yes"/>
      <point x="346" y="518"/>
      <point x="312" y="526"/>
      <point x="286" y="543" type="curve"/>
      <point x="288" y="529"/>
      <point x="289" y="515"/>
      <point x="289" y="501" type="curve" smooth="yes"/>
      <point x="289" y="445"/>
      <point x="271" y="392"/>
      <point x="226" y="356" type="curve" smooth="yes"/>
      <point x="200" y="335"/>
      <point x="175" y="324"/>
      <point x="151" y="324" type="curve" smooth="yes"/>
      <point x="128" y="324"/>
      <point x="106" y="334"/>
      <point x="84" y="354" type="curve" smooth="yes"/>
      <point x="58" y="378"/>
      <point x="50" y="423"/>
      <point x="50" y="450" type="curve" smooth="yes"/>
      <point x="50" y="512"/>
      <point x="72" y="557"/>
      <point x="124" y="595" type="curve" smooth="yes"/>
      <point x="167" y="626"/>
      <point x="222" y="645"/>
      <point x="285" y="647" type="curve"/>
      <point x="320" y="594"/>
      <point x="369" y="577"/>
      <point x="432" y="577" type="curve" smooth="yes"/>
      <point x="479" y="577"/>
      <point x="512" y="607"/>
      <point x="546" y="647" type="curve"/>
      <point x="574" y="634" type="line"/>
      <point x="421" y="434"/>
      <point x="308" y="271"/>
      <point x="125" y="0" type="curve"/>
      <point x="102" y="2"/>
      <point x="85" y="5"/>
    </contour>
    <contour>
      <point x="341" y="129" type="curve" smooth="yes"/>
      <point x="341" y="192"/>
      <point x="376" y="257"/>
      <point x="435" y="293" type="curve" smooth="yes"/>
      <point x="456" y="306"/>
      <point x="478" y="314"/>
      <point x="500" y="314" type="curve" smooth="yes"/>
      <point x="522" y="314"/>
      <point x="544" y="305"/>
      <point x="563" y="284" type="curve" smooth="yes"/>
      <point x="584" y="260"/>
      <point x="598" y="214"/>
      <point x="596" y="179" type="curve"/>
      <point x="595" y="131"/>
      <point x="583" y="75"/>
      <point x="540" y="38" type="curve" smooth="yes"/>
      <point x="513" y="15"/>
      <point x="478" y="-5"/>
      <point x="443" y="-5" type="curve" smooth="yes"/>
      <point x="420" y="-5"/>
      <point x="397" y="4"/>
      <point x="376" y="26" type="curve" smooth="yes"/>
      <point x="350" y="54"/>
      <point x="341" y="98"/>
    </contour>
    <contour>
      <point x="482" y="265" type="curve"/>
      <point x="424" y="276"/>
      <point x="410" y="204"/>
      <point x="410" y="152" type="curve" smooth="yes"/>
      <point x="410" y="100"/>
      <point x="429" y="44"/>
      <point x="476" y="44" type="curve" smooth="yes"/>
      <point x="521" y="44"/>
      <point x="529" y="105"/>
      <point x="529" y="142" type="curve" smooth="yes"/>
      <point x="529" y="189"/>
      <point x="518" y="257"/>
    </contour>
    <contour>
      <point x="205" y="599" type="curve"/>
      <point x="155" y="589"/>
      <point x="122" y="548"/>
      <point x="122" y="473" type="curve" smooth="yes"/>
      <point x="122" y="434"/>
      <point x="141" y="389"/>
      <point x="178" y="387" type="curve" smooth="yes"/>
      <point x="232" y="384"/>
      <point x="249" y="440"/>
      <point x="251" y="487" type="curve" smooth="yes"/>
      <point x="253" y="531"/>
      <point x="243" y="581"/>
    </contour>
  </outline>
</glyph>
<glyph name="ampersand" format="1">
  <advance width="725"/>
  <unicode hex="0026"/>
  <outline>
    <contour>
      <point x="87" y="51" type="curve" smooth="yes"/>
      <point x="56" y="87"/>
      <point x="41" y="127"/>
      <point x="41" y="167" type="curve" smooth="yes"/>
      <point x="41" y="215"/>
      <point x="62" y="262"/>
      <point x="100" y="303" type="curve" smooth="yes"/>
      <point x="138" y="344"/>
      <point x="163" y="358"/>
      <point x="190" y="378" type="curve"/>
      <point x="161" y="414"/>
      <point x="139" y="450"/>
      <point x="139" y="490" type="curve" smooth="yes"/>
      <point x="139" y="509"/>
      <point x="144" y="530"/>
      <point x="156" y="551" type="curve" smooth="yes"/>
      <point x="170" y="578"/>
      <point x="198" y="605"/>
      <point x="223" y="622" type="curve"/>
      <point x="249" y="638"/>
      <point x="271" y="644"/>
      <point x="296" y="644" type="curve" smooth="yes"/>
      <point x="309" y="644"/>
      <point x="323" y="642"/>
      <point x="338" y="640" type="curve" smooth="yes"/>
      <point x="377" y="633"/>
      <point x="401" y="627"/>
      <point x="429" y="625" type="curve"/>
      <point x="405" y="603"/>
      <point x="391" y="568"/>
      <point x="381" y="542" type="curve"/>
      <point x="349" y="560"/>
      <point x="294" y="584"/>
      <point x="253" y="584" type="curve" smooth="yes"/>
      <point x="236" y="584"/>
      <point x="221" y="580"/>
      <point x="211" y="569" type="curve" smooth="yes"/>
      <point x="200" y="557"/>
      <point x="196" y="543"/>
      <point x="196" y="529" type="curve" smooth="yes"/>
      <point x="196" y="483"/>
      <point x="239" y="430"/>
      <point x="260" y="406" type="curve" smooth="yes"/>
      <point x="360" y="294"/>
      <point x="385" y="272"/>
      <point x="480" y="189" type="curve"/>
      <point x="507" y="219"/>
      <point x="540" y="291"/>
      <point x="546" y="339" type="curve"/>
      <point x="516" y="345"/>
      <point x="487" y="348"/>
      <point x="459" y="348" type="curve" smooth="yes"/>
      <point x="443" y="348"/>
      <point x="428" y="347"/>
      <point x="413" y="345" type="curve"/>
      <point x="425" y="369"/>
      <point x="430" y="390"/>
      <point x="433" y="420" type="curve"/>
      <point x="465" y="424"/>
      <point x="524" y="415"/>
      <point x="566" y="411" type="curve" smooth="yes"/>
      <point x="590" y="409"/>
      <point x="611" y="408"/>
      <point x="630" y="408" type="curve" smooth="yes"/>
      <point x="662" y="408"/>
      <point x="688" y="411"/>
      <point x="709" y="420" type="curve"/>
      <point x="686" y="376"/>
      <point x="687" y="363"/>
      <point x="679" y="333" type="curve"/>
      <point x="667" y="332"/>
      <point x="655" y="331"/>
      <point x="644" y="331" type="curve" smooth="yes"/>
      <point x="625" y="331"/>
      <point x="609" y="333"/>
      <point x="592" y="334" type="curve"/>
      <point x="571" y="268"/>
      <point x="542" y="222"/>
      <point x="503" y="170" type="curve"/>
      <point x="553" y="125"/>
      <point x="626" y="86"/>
      <point x="679" y="66" type="curve"/>
      <point x="650" y="45"/>
      <point x="619" y="13"/>
      <point x="604" y="-23" type="curve"/>
      <point x="557" y="25"/>
      <point x="506" y="66"/>
      <point x="460" y="110" type="curve"/>
      <point x="431" y="77"/>
      <point x="385" y="40"/>
      <point x="360" y="26" type="curve" smooth="yes"/>
      <point x="318" y="2"/>
      <point x="273" y="-11"/>
      <point x="229" y="-11" type="curve" smooth="yes"/>
      <point x="176" y="-11"/>
      <point x="125" y="8"/>
    </contour>
    <contour>
      <point x="151" y="303" type="curve" smooth="yes"/>
      <point x="127" y="272"/>
      <point x="113" y="233"/>
      <point x="113" y="194" type="curve" smooth="yes"/>
      <point x="113" y="157"/>
      <point x="126" y="120"/>
      <point x="156" y="93" type="curve" smooth="yes"/>
      <point x="194" y="58"/>
      <point x="234" y="44"/>
      <point x="273" y="44" type="curve" smooth="yes"/>
      <point x="334" y="44"/>
      <point x="392" y="79"/>
      <point x="439" y="130" type="curve"/>
      <point x="365" y="193"/>
      <point x="240" y="318"/>
      <point x="209" y="355" type="curve"/>
      <point x="187" y="338"/>
      <point x="165" y="321"/>
    </contour>
  </outline>
</glyph>
<glyph name="quotesingle" format="1">
  <advance width="217"/>
  <unicode hex="0027"/>
  <outline>
    <contour>
      <point x="55" y="704" type="curve"/>
      <point x="73" y="702"/>
      <point x="90" y="701"/>
      <point x="108" y="701" type="curve" smooth="yes"/>
      <point x="125" y="701"/>
      <point x="143" y="702"/>
      <point x="162" y="704" type="curve"/>
      <point x="144" y="640"/>
      <point x="124" y="530"/>
      <point x="118" y="463" type="curve"/>
      <point x="91" y="463" type="line"/>
      <point x="88" y="537"/>
      <point x="75" y="631"/>
    </contour>
  </outline>
</glyph>
<glyph name="parenleft" format="1">
  <advance width="351"/>
  <unicode hex="0028"/>
  <outline>
    <contour>
      <point x="193" y="-147" type="curve" smooth="yes"/>
      <point x="150" y="-117"/>
      <point x="111" y="-70"/>
      <point x="92" y="-17" type="curve" smooth="yes"/>
      <point x="62" y="63"/>
      <point x="53" y="154"/>
      <point x="53" y="224" type="curve" smooth="yes"/>
      <point x="53" y="327"/>
      <point x="69" y="460"/>
      <point x="126" y="550" type="curve" smooth="yes"/>
      <point x="147" y="583"/>
      <point x="177" y="609"/>
      <point x="210" y="633" type="curve" smooth="yes"/>
      <point x="231" y="648"/>
      <point x="260" y="662"/>
      <point x="281" y="670" type="curve"/>
      <point x="290" y="642" type="line"/>
      <point x="266" y="633"/>
      <point x="243" y="615"/>
      <point x="225" y="596" type="curve" smooth="yes"/>
      <point x="200" y="570"/>
      <point x="183" y="540"/>
      <point x="169" y="503" type="curve" smooth="yes"/>
      <point x="141" y="427"/>
      <point x="131" y="312"/>
      <point x="130" y="239" type="curve"/>
      <point x="128" y="179"/>
      <point x="138" y="80"/>
      <point x="159" y="6" type="curve" smooth="yes"/>
      <point x="173" y="-46"/>
      <point x="196" y="-91"/>
      <point x="228" y="-121" type="curve" smooth="yes"/>
      <point x="249" y="-142"/>
      <point x="263" y="-152"/>
      <point x="291" y="-168" type="curve"/>
      <point x="283" y="-192" type="line"/>
      <point x="250" y="-181"/>
      <point x="223" y="-168"/>
    </contour>
  </outline>
</glyph>
<glyph name="parenright" format="1">
  <advance width="351"/>
  <unicode hex="0029"/>
  <outline>
    <contour>
      <point x="158" y="623" type="curve" smooth="yes"/>
      <point x="201" y="593"/>
      <point x="240" y="546"/>
      <point x="259" y="493" type="curve" smooth="yes"/>
      <point x="289" y="413"/>
      <point x="298" y="322"/>
      <point x="298" y="252" type="curve" smooth="yes"/>
      <point x="298" y="149"/>
      <point x="282" y="16"/>
      <point x="225" y="-74" type="curve" smooth="yes"/>
      <point x="204" y="-107"/>
      <point x="174" y="-133"/>
      <point x="141" y="-157" type="curve" smooth="yes"/>
      <point x="120" y="-172"/>
      <point x="91" y="-186"/>
      <point x="70" y="-194" type="curve"/>
      <point x="61" y="-166" type="line"/>
      <point x="85" y="-157"/>
      <point x="108" y="-139"/>
      <point x="126" y="-120" type="curve" smooth="yes"/>
      <point x="151" y="-94"/>
      <point x="168" y="-64"/>
      <point x="182" y="-27" type="curve" smooth="yes"/>
      <point x="210" y="49"/>
      <point x="220" y="164"/>
      <point x="221" y="237" type="curve"/>
      <point x="223" y="297"/>
      <point x="213" y="396"/>
      <point x="192" y="470" type="curve" smooth="yes"/>
      <point x="178" y="522"/>
      <point x="155" y="567"/>
      <point x="123" y="597" type="curve" smooth="yes"/>
      <point x="102" y="618"/>
      <point x="88" y="628"/>
      <point x="60" y="644" type="curve"/>
      <point x="68" y="668" type="line"/>
      <point x="101" y="657"/>
      <point x="128" y="644"/>
    </contour>
  </outline>
</glyph>
<glyph name="asterisk" format="1">
  <advance width="391"/>
  <unicode hex="002A"/>
  <outline>
    <contour>
      <point x="60" y="345" type="curve"/>
      <point x="99" y="376"/>
      <point x="145" y="423"/>
      <point x="177" y="462" type="curve"/>
      <point x="131" y="472"/>
      <point x="66" y="480"/>
      <point x="23" y="482" type="curve"/>
      <point x="34" y="507"/>
      <point x="40" y="528"/>
      <point x="46" y="555" type="curve"/>
      <point x="88" y="526"/>
      <point x="138" y="500"/>
      <point x="185" y="481" type="curve"/>
      <point x="182" y="532"/>
      <point x="174" y="593"/>
      <point x="160" y="641" type="curve"/>
      <point x="173" y="640"/>
      <point x="186" y="639"/>
      <point x="198" y="639" type="curve" smooth="yes"/>
      <point x="210" y="639"/>
      <point x="222" y="640"/>
      <point x="236" y="641" type="curve"/>
      <point x="224" y="600"/>
      <point x="211" y="530"/>
      <point x="206" y="483" type="curve"/>
      <point x="253" y="501"/>
      <point x="303" y="527"/>
      <point x="345" y="555" type="curve"/>
      <point x="350" y="529"/>
      <point x="357" y="507"/>
      <point x="368" y="482" type="curve"/>
      <point x="325" y="481"/>
      <point x="258" y="473"/>
      <point x="211" y="463" type="curve"/>
      <point x="243" y="424"/>
      <point x="291" y="378"/>
      <point x="332" y="347" type="curve"/>
      <point x="309" y="333"/>
      <point x="290" y="320"/>
      <point x="270" y="302" type="curve"/>
      <point x="255" y="343"/>
      <point x="218" y="410"/>
      <point x="195" y="451" type="curve"/>
      <point x="171" y="410"/>
      <point x="136" y="342"/>
      <point x="121" y="300" type="curve"/>
      <point x="101" y="319"/>
      <point x="83" y="332"/>
    </contour>
  </outline>
</glyph>
<glyph name="plus" format="1">
  <advance width="470"/>
  <unicode hex="002B"/>
  <outline>
    <contour>
      <point x="27" y="270" type="line"/>
      <point x="27" y="305" type="line"/>
      <point x="217" y="305" type="line"/>
      <point x="217" y="495" type="line"/>
      <point x="252" y="495" type="line"/>
      <point x="252" y="305" type="line"/>
      <point x="442" y="305" type="line"/>
      <point x="442" y="270" type="line"/>
      <point x="252" y="270" type="line"/>
      <point x="252" y="80" type="line"/>
      <point x="217" y="80" type="line"/>
      <point x="217" y="270" type="line"/>
    </contour>
  </outline>
</glyph>
<glyph name="comma" format="1">
  <advance width="235"/>
  <unicode hex="002C"/>
  <outline>
    <contour>
      <point x="79" y="-169" type="curve"/>
      <point x="54" y="-151" type="line"/>
      <point x="75" y="-124"/>
      <point x="89" y="-102"/>
      <point x="97" y="-81" type="curve" smooth="yes"/>
      <point x="101" y="-70"/>
      <point x="103" y="-59"/>
      <point x="103" y="-49" type="curve" smooth="yes"/>
      <point x="103" y="-17"/>
      <point x="83" y="9"/>
      <point x="47" y="30" type="curve"/>
      <point x="70" y="55"/>
      <point x="82" y="71"/>
      <point x="97" y="102" type="curve"/>
      <point x="123" y="86"/>
      <point x="138" y="73"/>
      <point x="153" y="56" type="curve" smooth="yes"/>
      <point x="167" y="40"/>
      <point x="173" y="22"/>
      <point x="173" y="3" type="curve" smooth="yes"/>
      <point x="173" y="-19"/>
      <point x="165" y="-42"/>
      <point x="152" y="-66" type="curve" smooth="yes"/>
      <point x="132" y="-102"/>
      <point x="107" y="-135"/>
    </contour>
  </outline>
</glyph>
<glyph name="hyphen" format="1">
  <advance width="274"/>
  <unicode hex="002D"/>
  <outline>
    <contour>
      <point x="27" y="255" type="curve"/>
      <point x="32" y="271"/>
      <point x="36" y="294"/>
      <point x="36" y="305" type="curve"/>
      <point x="71" y="303"/>
      <point x="106" y="302"/>
      <point x="141" y="302" type="curve" smooth="yes"/>
      <point x="176" y="302"/>
      <point x="211" y="303"/>
      <point x="246" y="305" type="curve"/>
      <point x="242" y="291"/>
      <point x="238" y="266"/>
      <point x="238" y="255" type="curve"/>
      <point x="203" y="257"/>
      <point x="167" y="259"/>
      <point x="132" y="259" type="curve" smooth="yes"/>
      <point x="97" y="259"/>
      <point x="62" y="257"/>
    </contour>
  </outline>
</glyph>
<glyph name="period" format="1">
  <advance width="198"/>
  <unicode hex="002E"/>
  <outline>
    <contour>
      <point x="98" y="-14" type="curve" smooth="yes"/>
      <point x="62" y="-14"/>
      <point x="50" y="13"/>
      <point x="50" y="33" type="curve" smooth="yes"/>
      <point x="50" y="59"/>
      <point x="70" y="83"/>
      <point x="101" y="83" type="curve" smooth="yes"/>
      <point x="136" y="83"/>
      <point x="149" y="60"/>
      <point x="149" y="39" type="curve" smooth="yes"/>
      <point x="149" y="13"/>
      <point x="131" y="-14"/>
    </contour>
  </outline>
</glyph>
<glyph name="zero" format="1">
  <advance width="524"/>
  <unicode hex="0030"/>
  <outline>
    <contour>
      <point x="167" y="591" type="curve" smooth="yes"/>
      <point x="204" y="621"/>
      <point x="249" y="644"/>
      <point x="296" y="644" type="curve" smooth="yes"/>
      <point x="327" y="644"/>
      <point x="359" y="634"/>
      <point x="390" y="609" type="curve" smooth="yes"/>
      <point x="437" y="571"/>
      <point x="466" y="498"/>
      <point x="476" y="435" type="curve" smooth="yes"/>
      <point x="481" y="408"/>
      <point x="483" y="374"/>
      <point x="483" y="337" type="curve" smooth="yes"/>
      <point x="483" y="303"/>
      <point x="481" y="267"/>
      <point x="477" y="235" type="curve" smooth="yes"/>
      <point x="465" y="143"/>
      <point x="436" y="90"/>
      <point x="361" y="30" type="curve" smooth="yes"/>
      <point x="326" y="2"/>
      <point x="282" y="-16"/>
      <point x="237" y="-16" type="curve" smooth="yes"/>
      <point x="198" y="-16"/>
      <point x="159" y="-3"/>
      <point x="126" y="27" type="curve" smooth="yes"/>
      <point x="69" y="78"/>
      <point x="45" y="165"/>
      <point x="42" y="248" type="curve" smooth="yes"/>
      <point x="41" y="264"/>
      <point x="41" y="281"/>
      <point x="41" y="296" type="curve" smooth="yes"/>
      <point x="41" y="339"/>
      <point x="44" y="378"/>
      <point x="51" y="418" type="curve" smooth="yes"/>
      <point x="65" y="490"/>
      <point x="110" y="545"/>
    </contour>
    <contour>
      <point x="188" y="560" type="curve" smooth="yes"/>
      <point x="131" y="507"/>
      <point x="120" y="411"/>
      <point x="120" y="291" type="curve" smooth="yes"/>
      <point x="120" y="210"/>
      <point x="136" y="104"/>
      <point x="216" y="56" type="curve" smooth="yes"/>
      <point x="235" y="44"/>
      <point x="255" y="40"/>
      <point x="274" y="40" type="curve" smooth="yes"/>
      <point x="305" y="40"/>
      <point x="334" y="53"/>
      <point x="350" y="70" type="curve" smooth="yes"/>
      <point x="392" y="115"/>
      <point x="403" y="210"/>
      <point x="404" y="315" type="curve" smooth="yes"/>
      <point x="405" y="398"/>
      <point x="390" y="515"/>
      <point x="320" y="567" type="curve" smooth="yes"/>
      <point x="303" y="579"/>
      <point x="281" y="587"/>
      <point x="258" y="587" type="curve" smooth="yes"/>
      <point x="234" y="587"/>
      <point x="209" y="579"/>
    </contour>
  </outline>
</glyph>
<glyph name="one" format="1">
  <advance width="381"/>
  <unicode hex="0031"/>
  <outline>
    <contour>
      <point x="275" y="650" type="curve"/>
      <point x="282" y="634" type="line"/>
      <point x="259" y="614"/>
      <point x="245" y="594"/>
      <point x="243" y="535" type="curve" smooth="yes"/>
      <point x="241" y="466"/>
      <point x="239" y="373"/>
      <point x="239" y="264" type="curve" smooth="yes"/>
      <point x="239" y="222"/>
      <point x="239" y="178"/>
      <point x="240" y="131" type="curve" smooth="yes"/>
      <point x="241" y="59"/>
      <point x="248" y="43"/>
      <point x="375" y="23" type="curve"/>
      <point x="369" y="-3" type="line"/>
      <point x="312" y="2"/>
      <point x="252" y="4"/>
      <point x="192" y="4" type="curve" smooth="yes"/>
      <point x="132" y="4"/>
      <point x="72" y="2"/>
      <point x="17" y="-3" type="curve"/>
      <point x="14" y="23" type="line"/>
      <point x="141" y="39"/>
      <point x="165" y="56"/>
      <point x="167" y="129" type="curve" smooth="yes"/>
      <point x="169" y="192"/>
      <point x="170" y="291"/>
      <point x="170" y="385" type="curve" smooth="yes"/>
      <point x="170" y="467"/>
      <point x="169" y="544"/>
      <point x="167" y="591" type="curve"/>
      <point x="126" y="576"/>
      <point x="79" y="554"/>
      <point x="28" y="518" type="curve"/>
      <point x="34" y="537"/>
      <point x="37" y="567"/>
      <point x="36" y="580" type="curve"/>
      <point x="111" y="613"/>
      <point x="196" y="638"/>
    </contour>
  </outline>
</glyph>
<glyph name="two" format="1">
  <advance width="454"/>
  <unicode hex="0032"/>
  <outline>
    <contour>
      <point x="381" y="-3" type="curve"/>
      <point x="322" y="0"/>
      <point x="269" y="1"/>
      <point x="219" y="1" type="curve" smooth="yes"/>
      <point x="144" y="1"/>
      <point x="76" y="-1"/>
      <point x="10" y="-3" type="curve"/>
      <point x="21" y="22"/>
      <point x="26" y="50"/>
      <point x="30" y="78" type="curve"/>
      <point x="92" y="122"/>
      <point x="158" y="177"/>
      <point x="208" y="232" type="curve" smooth="yes"/>
      <point x="260" y="289"/>
      <point x="305" y="365"/>
      <point x="305" y="458" type="curve" smooth="yes"/>
      <point x="305" y="530"/>
      <point x="233" y="566"/>
      <point x="165" y="566" type="curve" smooth="yes"/>
      <point x="134" y="566"/>
      <point x="92" y="563"/>
      <point x="58" y="552" type="curve"/>
      <point x="70" y="580"/>
      <point x="75" y="606"/>
      <point x="78" y="637" type="curve"/>
      <point x="95" y="640"/>
      <point x="149" y="642"/>
      <point x="171" y="642" type="curve" smooth="yes"/>
      <point x="282" y="642"/>
      <point x="377" y="604"/>
      <point x="377" y="485" type="curve" smooth="yes"/>
      <point x="377" y="396"/>
      <point x="323" y="314"/>
      <point x="258" y="241" type="curve" smooth="yes"/>
      <point x="202" y="179"/>
      <point x="165" y="143"/>
      <point x="104" y="80" type="curve"/>
      <point x="124" y="79"/>
      <point x="186" y="77"/>
      <point x="237" y="77" type="curve" smooth="yes"/>
      <point x="267" y="77"/>
      <point x="293" y="78"/>
      <point x="304" y="79" type="curve" smooth="yes"/>
      <point x="354" y="83"/>
      <point x="379" y="98"/>
      <point x="401" y="167" type="curve"/>
      <point x="427" y="160" type="line"/>
      <point x="400" y="95"/>
      <point x="388" y="55"/>
    </contour>
  </outline>
</glyph>
<glyph name="three" format="1">
  <advance width="418"/>
  <unicode hex="0033"/>
  <outline>
    <contour>
      <point x="290" y="31" type="curve" smooth="yes"/>
      <point x="257" y="0"/>
      <point x="225" y="-10"/>
      <point x="187" y="-10" type="curve" smooth="yes"/>
      <point x="168" y="-10"/>
      <point x="149" y="-7"/>
      <point x="126" y="-4" type="curve" smooth="yes"/>
      <point x="88" y="1"/>
      <point x="51" y="20"/>
      <point x="9" y="25" type="curve"/>
      <point x="31" y="55"/>
      <point x="43" y="81"/>
      <point x="54" y="111" type="curve"/>
      <point x="84" y="86"/>
      <point x="151" y="64"/>
      <point x="209" y="58" type="curve" smooth="yes"/>
      <point x="252" y="53"/>
      <point x="285" y="68"/>
      <point x="302" y="96" type="curve"/>
      <point x="316" y="121"/>
      <point x="323" y="148"/>
      <point x="323" y="174" type="curve" smooth="yes"/>
      <point x="323" y="238"/>
      <point x="282" y="300"/>
      <point x="208" y="336" type="curve" smooth="yes"/>
      <point x="175" y="352"/>
      <point x="138" y="354"/>
      <point x="116" y="354" type="curve"/>
      <point x="113" y="381" type="line"/>
      <point x="166" y="390"/>
      <point x="253" y="416"/>
      <point x="253" y="496" type="curve" smooth="yes"/>
      <point x="253" y="546"/>
      <point x="197" y="570"/>
      <point x="139" y="570" type="curve" smooth="yes"/>
      <point x="131" y="570"/>
      <point x="98" y="570"/>
      <point x="70" y="560" type="curve"/>
      <point x="83" y="588"/>
      <point x="86" y="616"/>
      <point x="87" y="636" type="curve"/>
      <point x="98" y="640"/>
      <point x="130" y="644"/>
      <point x="148" y="644" type="curve" smooth="yes"/>
      <point x="247" y="644"/>
      <point x="315" y="607"/>
      <point x="315" y="522" type="curve" smooth="yes"/>
      <point x="315" y="484"/>
      <point x="280" y="440"/>
      <point x="233" y="400" type="curve"/>
      <point x="291" y="380"/>
      <point x="373" y="336"/>
      <point x="377" y="245" type="curve" smooth="yes"/>
      <point x="378" y="211"/>
      <point x="375" y="180"/>
      <point x="360" y="141" type="curve" smooth="yes"/>
      <point x="346" y="105"/>
      <point x="321" y="60"/>
    </contour>
  </outline>
</glyph>
<glyph name="four" format="1">
  <advance width="595"/>
  <unicode hex="0034"/>
  <outline>
    <contour>
      <point x="320" y="-58" type="curve"/>
      <point x="338" y="30"/>
      <point x="340" y="117"/>
      <point x="341" y="189" type="curve"/>
      <point x="275" y="189" type="line" smooth="yes"/>
      <point x="189" y="189"/>
      <point x="98" y="188"/>
      <point x="33" y="182" type="curve"/>
      <point x="18" y="205" type="line"/>
      <point x="124" y="310"/>
      <point x="275" y="481"/>
      <point x="401" y="650" type="curve"/>
      <point x="429" y="636" type="line"/>
      <point x="420" y="578"/>
      <point x="417" y="438"/>
      <point x="417" y="341" type="curve" smooth="yes"/>
      <point x="417" y="301"/>
      <point x="417" y="269"/>
      <point x="418" y="253" type="curve"/>
      <point x="470" y="253"/>
      <point x="527" y="257"/>
      <point x="585" y="271" type="curve"/>
      <point x="561" y="239"/>
      <point x="543" y="203"/>
      <point x="535" y="182" type="curve"/>
      <point x="494" y="187"/>
      <point x="453" y="187"/>
      <point x="414" y="187" type="curve"/>
      <point x="413" y="143"/>
      <point x="420" y="37"/>
      <point x="428" y="9" type="curve"/>
      <point x="385" y="-8"/>
      <point x="357" y="-28"/>
    </contour>
    <contour>
      <point x="345" y="529" type="curve"/>
      <point x="263" y="429"/>
      <point x="200" y="351"/>
      <point x="110" y="255" type="curve"/>
      <point x="137" y="254"/>
      <point x="193" y="252"/>
      <point x="250" y="252" type="curve" smooth="yes"/>
      <point x="283" y="252"/>
      <point x="316" y="253"/>
      <point x="344" y="254" type="curve"/>
      <point x="346" y="305"/>
      <point x="348" y="383"/>
      <point x="348" y="444" type="curve" smooth="yes"/>
      <point x="348" y="483"/>
      <point x="347" y="515"/>
    </contour>
  </outline>
</glyph>
<glyph name="five" format="1">
  <advance width="460"/>
  <unicode hex="0035"/>
  <outline>
    <contour>
      <point x="23" y="30" type="curve"/>
      <point x="46" y="60"/>
      <point x="58" y="81"/>
      <point x="75" y="114" type="curve"/>
      <point x="96" y="101"/>
      <point x="138" y="77"/>
      <point x="166" y="69" type="curve" smooth="yes"/>
      <point x="191" y="62"/>
      <point x="214" y="57"/>
      <point x="235" y="57" type="curve" smooth="yes"/>
      <point x="270" y="57"/>
      <point x="300" y="69"/>
      <point x="325" y="99" type="curve" smooth="yes"/>
      <point x="347" y="124"/>
      <point x="358" y="156"/>
      <point x="358" y="190" type="curve" smooth="yes"/>
      <point x="358" y="261"/>
      <point x="311" y="337"/>
      <point x="226" y="363" type="curve" smooth="yes"/>
      <point x="210" y="368"/>
      <point x="194" y="370"/>
      <point x="178" y="370" type="curve" smooth="yes"/>
      <point x="140" y="370"/>
      <point x="102" y="357"/>
      <point x="63" y="335" type="curve"/>
      <point x="46" y="348" type="line"/>
      <point x="79" y="408"/>
      <point x="133" y="580"/>
      <point x="145" y="638" type="curve"/>
      <point x="184" y="634"/>
      <point x="221" y="632"/>
      <point x="261" y="632" type="curve" smooth="yes"/>
      <point x="297" y="632"/>
      <point x="336" y="634"/>
      <point x="381" y="639" type="curve"/>
      <point x="366" y="608"/>
      <point x="352" y="575"/>
      <point x="345" y="548" type="curve"/>
      <point x="298" y="558"/>
      <point x="253" y="561"/>
      <point x="207" y="561" type="curve" smooth="yes"/>
      <point x="191" y="561"/>
      <point x="175" y="560"/>
      <point x="158" y="560" type="curve"/>
      <point x="145" y="526"/>
      <point x="124" y="461"/>
      <point x="110" y="416" type="curve"/>
      <point x="134" y="426"/>
      <point x="175" y="436"/>
      <point x="216" y="436" type="curve" smooth="yes"/>
      <point x="240" y="436"/>
      <point x="263" y="433"/>
      <point x="284" y="425" type="curve" smooth="yes"/>
      <point x="367" y="393"/>
      <point x="419" y="328"/>
      <point x="419" y="246" type="curve" smooth="yes"/>
      <point x="419" y="211"/>
      <point x="409" y="172"/>
      <point x="388" y="131" type="curve" smooth="yes"/>
      <point x="371" y="99"/>
      <point x="339" y="59"/>
      <point x="307" y="30" type="curve" smooth="yes"/>
      <point x="275" y="1"/>
      <point x="244" y="-12"/>
      <point x="208" y="-12" type="curve" smooth="yes"/>
      <point x="188" y="-12"/>
      <point x="166" y="-8"/>
      <point x="142" y="-1" type="curve" smooth="yes"/>
      <point x="102" y="11"/>
      <point x="65" y="22"/>
    </contour>
  </outline>
</glyph>
<glyph name="six" format="1">
  <advance width="533"/>
  <unicode hex="0036"/>
  <outline>
    <contour>
      <point x="147" y="21" type="curve" smooth="yes"/>
      <point x="74" y="78"/>
      <point x="44" y="164"/>
      <point x="46" y="258" type="curve" smooth="yes"/>
      <point x="48" y="392"/>
      <point x="118" y="524"/>
      <point x="223" y="613" type="curve" smooth="yes"/>
      <point x="254" y="639"/>
      <point x="287" y="649"/>
      <point x="325" y="649" type="curve" smooth="yes"/>
      <point x="338" y="649"/>
      <point x="351" y="648"/>
      <point x="365" y="646" type="curve" smooth="yes"/>
      <point x="396" y="641"/>
      <point x="426" y="634"/>
      <point x="461" y="630" type="curve"/>
      <point x="448" y="607"/>
      <point x="436" y="578"/>
      <point x="429" y="545" type="curve"/>
      <point x="391" y="562"/>
      <point x="355" y="574"/>
      <point x="313" y="578" type="curve" smooth="yes"/>
      <point x="258" y="583"/>
      <point x="219" y="567"/>
      <point x="187" y="527" type="curve"/>
      <point x="145" y="470"/>
      <point x="129" y="400"/>
      <point x="125" y="327" type="curve"/>
      <point x="172" y="364"/>
      <point x="210" y="391"/>
      <point x="258" y="409" type="curve" smooth="yes"/>
      <point x="279" y="417"/>
      <point x="303" y="421"/>
      <point x="327" y="421" type="curve" smooth="yes"/>
      <point x="357" y="421"/>
      <point x="388" y="414"/>
      <point x="415" y="398" type="curve" smooth="yes"/>
      <point x="478" y="360"/>
      <point x="495" y="295"/>
      <point x="495" y="242" type="curve" smooth="yes"/>
      <point x="495" y="172"/>
      <point x="481" y="84"/>
      <point x="355" y="15" type="curve" smooth="yes"/>
      <point x="324" y="-2"/>
      <point x="287" y="-11"/>
      <point x="251" y="-11" type="curve" smooth="yes"/>
      <point x="212" y="-11"/>
      <point x="175" y="0"/>
    </contour>
    <contour>
      <point x="125" y="290" type="curve"/>
      <point x="122" y="189"/>
      <point x="155" y="111"/>
      <point x="209" y="66" type="curve" smooth="yes"/>
      <point x="232" y="48"/>
      <point x="263" y="38"/>
      <point x="293" y="38" type="curve" smooth="yes"/>
      <point x="315" y="38"/>
      <point x="336" y="43"/>
      <point x="353" y="53" type="curve" smooth="yes"/>
      <point x="414" y="89"/>
      <point x="418" y="159"/>
      <point x="418" y="216" type="curve"/>
      <point x="417" y="265"/>
      <point x="398" y="321"/>
      <point x="360" y="348" type="curve" smooth="yes"/>
      <point x="338" y="364"/>
      <point x="316" y="370"/>
      <point x="293" y="370" type="curve" smooth="yes"/>
      <point x="234" y="370"/>
      <point x="174" y="328"/>
    </contour>
  </outline>
</glyph>
<glyph name="seven" format="1">
  <advance width="458"/>
  <unicode hex="0037"/>
  <outline>
    <contour>
      <point x="211" y="272" type="curve" smooth="yes"/>
      <point x="270" y="385"/>
      <point x="315" y="473"/>
      <point x="373" y="560" type="curve"/>
      <point x="336" y="556"/>
      <point x="300" y="555"/>
      <point x="266" y="555" type="curve" smooth="yes"/>
      <point x="235" y="555"/>
      <point x="206" y="556"/>
      <point x="176" y="557" type="curve" smooth="yes"/>
      <point x="115" y="559"/>
      <point x="94" y="538"/>
      <point x="67" y="470" type="curve"/>
      <point x="41" y="478" type="line"/>
      <point x="65" y="540"/>
      <point x="76" y="586"/>
      <point x="83" y="648" type="curve"/>
      <point x="129" y="636"/>
      <point x="206" y="631"/>
      <point x="281" y="631" type="curve" smooth="yes"/>
      <point x="348" y="631"/>
      <point x="414" y="635"/>
      <point x="455" y="641" type="curve"/>
      <point x="465" y="626" type="line"/>
      <point x="438" y="601"/>
      <point x="423" y="578"/>
      <point x="384" y="520" type="curve" smooth="yes"/>
      <point x="349" y="468"/>
      <point x="290" y="367"/>
      <point x="246" y="259" type="curve" smooth="yes"/>
      <point x="220" y="195"/>
      <point x="206" y="135"/>
      <point x="201" y="15" type="curve"/>
      <point x="166" y="5"/>
      <point x="138" y="-10"/>
      <point x="104" y="-33" type="curve"/>
      <point x="128" y="113"/>
      <point x="150" y="155"/>
    </contour>
  </outline>
</glyph>
<glyph name="eight" format="1">
  <advance width="510"/>
  <unicode hex="0038"/>
  <outline>
    <contour>
      <point x="93" y="276" type="curve" smooth="yes"/>
      <point x="117" y="297"/>
      <point x="147" y="319"/>
      <point x="186" y="345" type="curve"/>
      <point x="173" y="353"/>
      <point x="160" y="361"/>
      <point x="149" y="369" type="curve" smooth="yes"/>
      <point x="100" y="402"/>
      <point x="73" y="441"/>
      <point x="73" y="481" type="curve" smooth="yes"/>
      <point x="73" y="505"/>
      <point x="83" y="530"/>
      <point x="103" y="554" type="curve" smooth="yes"/>
      <point x="124" y="579"/>
      <point x="160" y="610"/>
      <point x="198" y="628" type="curve" smooth="yes"/>
      <point x="222" y="639"/>
      <point x="246" y="645"/>
      <point x="271" y="645" type="curve" smooth="yes"/>
      <point x="292" y="645"/>
      <point x="313" y="641"/>
      <point x="335" y="632" type="curve" smooth="yes"/>
      <point x="378" y="615"/>
      <point x="410" y="579"/>
      <point x="421" y="552" type="curve" smooth="yes"/>
      <point x="428" y="534"/>
      <point x="432" y="517"/>
      <point x="432" y="500" type="curve" smooth="yes"/>
      <point x="432" y="472"/>
      <point x="422" y="446"/>
      <point x="399" y="423" type="curve" smooth="yes"/>
      <point x="368" y="392"/>
      <point x="351" y="378"/>
      <point x="320" y="359" type="curve"/>
      <point x="345" y="346"/>
      <point x="367" y="333"/>
      <point x="380" y="324" type="curve" smooth="yes"/>
      <point x="407" y="304"/>
      <point x="431" y="286"/>
      <point x="450" y="252" type="curve" smooth="yes"/>
      <point x="462" y="232"/>
      <point x="470" y="205"/>
      <point x="470" y="176" type="curve" smooth="yes"/>
      <point x="470" y="151"/>
      <point x="464" y="124"/>
      <point x="450" y="99" type="curve" smooth="yes"/>
      <point x="432" y="68"/>
      <point x="395" y="31"/>
      <point x="362" y="10" type="curve" smooth="yes"/>
      <point x="327" y="-13"/>
      <point x="280" y="-20"/>
      <point x="238" y="-17" type="curve" smooth="yes"/>
      <point x="143" y="-10"/>
      <point x="86" y="28"/>
      <point x="55" y="88" type="curve" smooth="yes"/>
      <point x="43" y="111"/>
      <point x="37" y="135"/>
      <point x="37" y="159" type="curve" smooth="yes"/>
      <point x="37" y="201"/>
      <point x="56" y="243"/>
    </contour>
    <contour>
      <point x="306" y="275" type="curve" smooth="yes"/>
      <point x="281" y="292"/>
      <point x="247" y="310"/>
      <point x="215" y="328" type="curve"/>
      <point x="186" y="308"/>
      <point x="168" y="291"/>
      <point x="151" y="274" type="curve" smooth="yes"/>
      <point x="125" y="247"/>
      <point x="109" y="212"/>
      <point x="109" y="177" type="curve" smooth="yes"/>
      <point x="109" y="159"/>
      <point x="114" y="140"/>
      <point x="123" y="123" type="curve" smooth="yes"/>
      <point x="147" y="79"/>
      <point x="205" y="46"/>
      <point x="271" y="44" type="curve"/>
      <point x="328" y="41"/>
      <point x="367" y="60"/>
      <point x="389" y="82" type="curve" smooth="yes"/>
      <point x="401" y="95"/>
      <point x="407" y="112"/>
      <point x="407" y="131" type="curve" smooth="yes"/>
      <point x="407" y="158"/>
      <point x="396" y="187"/>
      <point x="380" y="211" type="curve" smooth="yes"/>
      <point x="364" y="235"/>
      <point x="335" y="255"/>
    </contour>
    <contour>
      <point x="210" y="420" type="curve" smooth="yes"/>
      <point x="224" y="410"/>
      <point x="257" y="392"/>
      <point x="292" y="374" type="curve"/>
      <point x="312" y="389"/>
      <point x="327" y="405"/>
      <point x="343" y="425" type="curve" smooth="yes"/>
      <point x="359" y="446"/>
      <point x="366" y="479"/>
      <point x="358" y="502" type="curve" smooth="yes"/>
      <point x="348" y="531"/>
      <point x="322" y="557"/>
      <point x="287" y="572" type="curve" smooth="yes"/>
      <point x="273" y="578"/>
      <point x="250" y="584"/>
      <point x="227" y="584" type="curve" smooth="yes"/>
      <point x="208" y="584"/>
      <point x="188" y="580"/>
      <point x="173" y="566" type="curve" smooth="yes"/>
      <point x="156" y="551"/>
      <point x="145" y="530"/>
      <point x="145" y="507" type="curve" smooth="yes"/>
      <point x="145" y="496"/>
      <point x="147" y="485"/>
      <point x="153" y="474" type="curve" smooth="yes"/>
      <point x="163" y="455"/>
      <point x="181" y="439"/>
    </contour>
  </outline>
</glyph>
<glyph name="nine" format="1">
  <advance width="520"/>
  <unicode hex="0039"/>
  <outline>
    <contour>
      <point x="44" y="18" type="curve"/>
      <point x="60" y="43"/>
      <point x="73" y="68"/>
      <point x="83" y="100" type="curve"/>
      <point x="115" y="81"/>
      <point x="156" y="68"/>
      <point x="192" y="63" type="curve" smooth="yes"/>
      <point x="270" y="52"/>
      <point x="310" y="86"/>
      <point x="342" y="126" type="curve" smooth="yes"/>
      <point x="378" y="170"/>
      <point x="396" y="247"/>
      <point x="404" y="309" type="curve"/>
      <point x="377" y="288"/>
      <point x="336" y="262"/>
      <point x="294" y="249" type="curve"/>
      <point x="272" y="241"/>
      <point x="245" y="236"/>
      <point x="218" y="236" type="curve" smooth="yes"/>
      <point x="197" y="236"/>
      <point x="175" y="239"/>
      <point x="156" y="246" type="curve" smooth="yes"/>
      <point x="88" y="270"/>
      <point x="38" y="328"/>
      <point x="41" y="440" type="curve" smooth="yes"/>
      <point x="44" y="526"/>
      <point x="121" y="601"/>
      <point x="205" y="634" type="curve" smooth="yes"/>
      <point x="228" y="643"/>
      <point x="252" y="648"/>
      <point x="277" y="648" type="curve" smooth="yes"/>
      <point x="311" y="648"/>
      <point x="346" y="639"/>
      <point x="376" y="619" type="curve" smooth="yes"/>
      <point x="445" y="574"/>
      <point x="475" y="463"/>
      <point x="475" y="386" type="curve" smooth="yes"/>
      <point x="475" y="247"/>
      <point x="398" y="103"/>
      <point x="282" y="20" type="curve" smooth="yes"/>
      <point x="251" y="-3"/>
      <point x="225" y="-13"/>
      <point x="192" y="-13" type="curve" smooth="yes"/>
      <point x="180" y="-13"/>
      <point x="166" y="-12"/>
      <point x="151" y="-9" type="curve" smooth="yes"/>
      <point x="108" y="0"/>
      <point x="70" y="13"/>
    </contour>
    <contour>
      <point x="116" y="460" type="curve" smooth="yes"/>
      <point x="113" y="377"/>
      <point x="136" y="335"/>
      <point x="186" y="310" type="curve" smooth="yes"/>
      <point x="208" y="299"/>
      <point x="232" y="294"/>
      <point x="256" y="294" type="curve" smooth="yes"/>
      <point x="308" y="294"/>
      <point x="361" y="316"/>
      <point x="405" y="343" type="curve"/>
      <point x="405" y="435"/>
      <point x="391" y="523"/>
      <point x="308" y="581" type="curve" smooth="yes"/>
      <point x="290" y="594"/>
      <point x="265" y="601"/>
      <point x="240" y="601" type="curve" smooth="yes"/>
      <point x="219" y="601"/>
      <point x="198" y="596"/>
      <point x="181" y="585" type="curve" smooth="yes"/>
      <point x="130" y="553"/>
      <point x="117" y="496"/>
    </contour>
  </outline>
</glyph>
<glyph name="colon" format="1">
  <advance width="198"/>
  <unicode hex="003A"/>
  <outline>
    <contour>
      <point x="98" y="-14" type="curve" smooth="yes"/>
      <point x="62" y="-14"/>
      <point x="50" y="13"/>
      <point x="50" y="33" type="curve" smooth="yes"/>
      <point x="50" y="59"/>
      <point x="70" y="83"/>
      <point x="101" y="83" type="curve" smooth="yes"/>
      <point x="136" y="83"/>
      <point x="149" y="60"/>
      <point x="149" y="39" type="curve" smooth="yes"/>
      <point x="149" y="13"/>
      <point x="131" y="-14"/>
    </contour>
    <contour>
      <point x="98" y="343" type="curve" smooth="yes"/>
      <point x="62" y="343"/>
      <point x="50" y="369"/>
      <point x="50" y="389" type="curve" smooth="yes"/>
      <point x="50" y="415"/>
      <point x="70" y="440"/>
      <point x="101" y="440" type="curve" smooth="yes"/>
      <point x="136" y="440"/>
      <point x="149" y="416"/>
      <point x="149" y="395" type="curve" smooth="yes"/>
      <point x="149" y="369"/>
      <point x="131" y="343"/>
    </contour>
  </outline>
</glyph>
<glyph name="semicolon" format="1">
  <advance width="235"/>
  <unicode hex="003B"/>
  <outline>
    <contour>
      <point x="105" y="343" type="curve" smooth="yes"/>
      <point x="69" y="343"/>
      <point x="56" y="369"/>
      <point x="56" y="389" type="curve" smooth="yes"/>
      <point x="56" y="415"/>
      <point x="76" y="440"/>
      <point x="108" y="440" type="curve" smooth="yes"/>
      <point x="143" y="440"/>
      <point x="155" y="416"/>
      <point x="155" y="395" type="curve" smooth="yes"/>
      <point x="155" y="369"/>
      <point x="138" y="343"/>
    </contour>
    <contour>
      <point x="79" y="-169" type="curve"/>
      <point x="54" y="-151" type="line"/>
      <point x="75" y="-124"/>
      <point x="89" y="-102"/>
      <point x="97" y="-81" type="curve" smooth="yes"/>
      <point x="101" y="-70"/>
      <point x="103" y="-59"/>
      <point x="103" y="-49" type="curve" smooth="yes"/>
      <point x="103" y="-17"/>
      <point x="83" y="9"/>
      <point x="47" y="30" type="curve"/>
      <point x="70" y="55"/>
      <point x="82" y="71"/>
      <point x="97" y="102" type="curve"/>
      <point x="123" y="86"/>
      <point x="138" y="73"/>
      <point x="153" y="56" type="curve" smooth="yes"/>
      <point x="167" y="40"/>
      <point x="173" y="22"/>
      <point x="173" y="3" type="curve" smooth="yes"/>
      <point x="173" y="-19"/>
      <point x="165" y="-42"/>
      <point x="152" y="-66" type="curve" smooth="yes"/>
      <point x="132" y="-102"/>
      <point x="107" y="-135"/>
    </contour>
  </outline>
</glyph>
<glyph name="less" format="1">
  <advance width="514"/>
  <unicode hex="003C"/>
  <outline>
    <contour>
      <point x="63" y="273" type="line"/>
      <point x="63" y="300" type="line"/>
      <point x="435" y="485" type="line"/>
      <point x="450" y="453" type="line"/>
      <point x="115" y="287" type="line"/>
      <point x="450" y="120" type="line"/>
      <point x="435" y="89" type="line"/>
    </contour>
  </outline>
</glyph>
<glyph name="greater" format="1">
  <advance width="514"/>
  <unicode hex="003E"/>
  <outline>
    <contour>
      <point x="451" y="301" type="line"/>
      <point x="451" y="274" type="line"/>
      <point x="79" y="89" type="line"/>
      <point x="64" y="121" type="line"/>
      <point x="399" y="287" type="line"/>
      <point x="64" y="454" type="line"/>
      <point x="79" y="485" type="line"/>
    </contour>
  </outline>
</glyph>
<glyph name="question" format="1">
  <advance width="352"/>
  <unicode hex="003F"/>
  <outline>
    <contour>
      <point x="115" y="163" type="curve"/>
      <point x="85" y="163" type="line"/>
      <point x="86" y="195"/>
      <point x="87" y="224"/>
      <point x="87" y="250" type="curve" smooth="yes"/>
      <point x="87" y="280"/>
      <point x="86" y="308"/>
      <point x="84" y="340" type="curve"/>
      <point x="117" y="330"/>
      <point x="139" y="329"/>
      <point x="158" y="327" type="curve" smooth="yes"/>
      <point x="243" y="321"/>
      <point x="275" y="356"/>
      <point x="284" y="412" type="curve" smooth="yes"/>
      <point x="294" y="479"/>
      <point x="255" y="522"/>
      <point x="198" y="540" type="curve"/>
      <point x="154" y="555"/>
      <point x="111" y="561"/>
      <point x="24" y="562" type="curve"/>
      <point x="31" y="592"/>
      <point x="37" y="625"/>
      <point x="37" y="656" type="curve"/>
      <point x="83" y="638"/>
      <point x="135" y="633"/>
      <point x="184" y="622" type="curve" smooth="yes"/>
      <point x="272" y="602"/>
      <point x="320" y="556"/>
      <point x="321" y="465" type="curve" smooth="yes"/>
      <point x="322" y="438"/>
      <point x="310" y="372"/>
      <point x="301" y="350" type="curve" smooth="yes"/>
      <point x="280" y="298"/>
      <point x="250" y="257"/>
      <point x="184" y="255" type="curve" smooth="yes"/>
      <point x="160" y="255"/>
      <point x="139" y="256"/>
      <point x="118" y="260" type="curve"/>
      <point x="115" y="223"/>
      <point x="115" y="196"/>
    </contour>
    <contour>
      <point x="98" y="-14" type="curve" smooth="yes"/>
      <point x="62" y="-14"/>
      <point x="50" y="13"/>
      <point x="50" y="33" type="curve" smooth="yes"/>
      <point x="50" y="59"/>
      <point x="70" y="83"/>
      <point x="101" y="83" type="curve" smooth="yes"/>
      <point x="136" y="83"/>
      <point x="149" y="60"/>
      <point x="149" y="39" type="curve" smooth="yes"/>
      <point x="149" y="13"/>
      <point x="131" y="-14"/>
    </contour>
  </outline>
</glyph>
<glyph name="at" format="1">
  <advance width="806"/>
  <unicode hex="0040"/>
  <outline>
    <contour>
      <point x="458" y="-13" type="curve" smooth="yes"/>
      <point x="429" y="-13"/>
      <point x="416" y="8"/>
      <point x="417" y="32" type="curve"/>
      <point x="377" y="15"/>
      <point x="320" y="-11"/>
      <point x="292" y="-11" type="curve" smooth="yes"/>
      <point x="235" y="-11"/>
      <point x="200" y="39"/>
      <point x="208" y="118" type="curve" smooth="yes"/>
      <point x="214" y="180"/>
      <point x="232" y="244"/>
      <point x="266" y="303" type="curve" smooth="yes"/>
      <point x="291" y="347"/>
      <point x="323" y="385"/>
      <point x="395" y="416" type="curve" smooth="yes"/>
      <point x="427" y="430"/>
      <point x="458" y="436"/>
      <point x="493" y="436" type="curve" smooth="yes"/>
      <point x="502" y="436"/>
      <point x="512" y="436"/>
      <point x="522" y="435" type="curve" smooth="yes"/>
      <point x="544" y="433"/>
      <point x="567" y="427"/>
      <point x="594" y="424" type="curve"/>
      <point x="584" y="412"/>
      <point x="570" y="379"/>
      <point x="568" y="372" type="curve" smooth="yes"/>
      <point x="538" y="270"/>
      <point x="517" y="192"/>
      <point x="502" y="99" type="curve" smooth="yes"/>
      <point x="495" y="60"/>
      <point x="513" y="47"/>
      <point x="548" y="47" type="curve" smooth="yes"/>
      <point x="585" y="47"/>
      <point x="626" y="85"/>
      <point x="645" y="112" type="curve" smooth="yes"/>
      <point x="679" y="160"/>
      <point x="706" y="223"/>
      <point x="717" y="304" type="curve" smooth="yes"/>
      <point x="720" y="324"/>
      <point x="721" y="343"/>
      <point x="721" y="361" type="curve" smooth="yes"/>
      <point x="721" y="525"/>
      <point x="611" y="580"/>
      <point x="505" y="580" type="curve" smooth="yes"/>
      <point x="239" y="580"/>
      <point x="131" y="366"/>
      <point x="99" y="247" type="curve" smooth="yes"/>
      <point x="85" y="194"/>
      <point x="74" y="136"/>
      <point x="74" y="82" type="curve" smooth="yes"/>
      <point x="74" y="-48"/>
      <point x="133" y="-161"/>
      <point x="330" y="-161" type="curve" smooth="yes"/>
      <point x="380" y="-161"/>
      <point x="451" y="-145"/>
      <point x="485" y="-131" type="curve"/>
      <point x="495" y="-159" type="line"/>
      <point x="449" y="-180"/>
      <point x="375" y="-196"/>
      <point x="324" y="-196" type="curve" smooth="yes"/>
      <point x="116" y="-196"/>
      <point x="37" y="-84"/>
      <point x="37" y="74" type="curve" smooth="yes"/>
      <point x="37" y="130"/>
      <point x="47" y="193"/>
      <point x="65" y="258" type="curve" smooth="yes"/>
      <point x="125" y="480"/>
      <point x="300" y="612"/>
      <point x="511" y="612" type="curve" smooth="yes"/>
      <point x="662" y="612"/>
      <point x="757" y="526"/>
      <point x="757" y="369" type="curve" smooth="yes"/>
      <point x="757" y="348"/>
      <point x="756" y="326"/>
      <point x="752" y="302" type="curve" smooth="yes"/>
      <point x="743" y="237"/>
      <point x="717" y="157"/>
      <point x="676" y="100" type="curve" smooth="yes"/>
      <point x="621" y="25"/>
      <point x="556" y="-13"/>
    </contour>
    <contour>
      <point x="281" y="135" type="curve"/>
      <point x="273" y="72"/>
      <point x="296" y="47"/>
      <point x="335" y="47" type="curve" smooth="yes"/>
      <point x="362" y="47"/>
      <point x="397" y="55"/>
      <point x="423" y="61" type="curve"/>
      <point x="449" y="176"/>
      <point x="486" y="308"/>
      <point x="503" y="384" type="curve"/>
      <point x="494" y="389"/>
      <point x="465" y="396"/>
      <point x="452" y="397" type="curve" smooth="yes"/>
      <point x="395" y="403"/>
      <point x="353" y="366"/>
      <point x="323" y="295" type="curve" smooth="yes"/>
      <point x="302" y="246"/>
      <point x="286" y="188"/>
    </contour>
  </outline>
</glyph>
<glyph name="D" format="1">
  <advance width="702"/>
  <unicode hex="0044"/>
  <outline>
    <contour>
      <point x="28" y="-3" type="curve"/>
      <point x="23" y="23" type="line"/>
      <point x="75" y="30"/>
      <point x="115" y="41"/>
      <point x="120" y="93" type="curve" smooth="yes"/>
      <point x="123" y="125"/>
      <point x="124" y="209"/>
      <point x="124" y="297" type="curve" smooth="yes"/>
      <point x="124" y="394"/>
      <point x="123" y="495"/>
      <point x="120" y="538" type="curve" smooth="yes"/>
      <point x="116" y="598"/>
      <point x="72" y="607"/>
      <point x="25" y="614" type="curve"/>
      <point x="30" y="639" type="line"/>
      <point x="58" y="635"/>
      <point x="116" y="634"/>
      <point x="146" y="634" type="curve" smooth="yes"/>
      <point x="223" y="634"/>
      <point x="255" y="639"/>
      <point x="342" y="639" type="curve" smooth="yes"/>
      <point x="505" y="639"/>
      <point x="660" y="548"/>
      <point x="661" y="354" type="curve" smooth="yes"/>
      <point x="662" y="155"/>
      <point x="540" y="-2"/>
      <point x="253" y="-2" type="curve" smooth="yes"/>
      <point x="216" y="-2"/>
      <point x="168" y="3"/>
      <point x="129" y="3" type="curve" smooth="yes"/>
      <point x="100" y="3"/>
      <point x="57" y="0"/>
    </contour>
    <contour>
      <point x="210" y="57" type="curve"/>
      <point x="226" y="49"/>
      <point x="296" y="44"/>
      <point x="306" y="44" type="curve" smooth="yes"/>
      <point x="486" y="44"/>
      <point x="571" y="142"/>
      <point x="571" y="339" type="curve" smooth="yes"/>
      <point x="571" y="472"/>
      <point x="506" y="603"/>
      <point x="279" y="603" type="curve" smooth="yes"/>
      <point x="264" y="603"/>
      <point x="229" y="601"/>
      <point x="212" y="598" type="curve"/>
      <point x="209" y="559"/>
      <point x="207" y="402"/>
      <point x="207" y="265" type="curve" smooth="yes"/>
      <point x="207" y="172"/>
      <point x="208" y="88"/>
    </contour>
  </outline>
</glyph>
<glyph name="F" format="1">
  <advance width="512"/>
  <unicode hex="0046"/>
  <outline>
    <contour>
      <point x="25" y="614" type="curve"/>
      <point x="28" y="639" type="line"/>
      <point x="75" y="634"/>
      <point x="103" y="634"/>
      <point x="156" y="634" type="curve" smooth="yes"/>
      <point x="273" y="634" type="line" smooth="yes"/>
      <point x="317" y="634"/>
      <point x="360" y="634"/>
      <point x="390" y="635" type="curve"/>
      <point x="432" y="635"/>
      <point x="453" y="639"/>
      <point x="465" y="645" type="curve"/>
      <point x="474" y="607"/>
      <point x="492" y="540"/>
      <point x="516" y="495" type="curve"/>
      <point x="491" y="485" type="line"/>
      <point x="426" y="591"/>
      <point x="389" y="595"/>
      <point x="348" y="597" type="curve" smooth="yes"/>
      <point x="338" y="598"/>
      <point x="323" y="598"/>
      <point x="305" y="598" type="curve" smooth="yes"/>
      <point x="270" y="598"/>
      <point x="227" y="597"/>
      <point x="205" y="594" type="curve"/>
      <point x="201" y="578"/>
      <point x="201" y="501"/>
      <point x="201" y="428" type="curve" smooth="yes"/>
      <point x="201" y="347" type="line"/>
      <point x="273" y="345"/>
      <point x="366" y="357"/>
      <point x="435" y="381" type="curve"/>
      <point x="422" y="352"/>
      <point x="415" y="313"/>
      <point x="413" y="280" type="curve"/>
      <point x="359" y="299"/>
      <point x="295" y="313"/>
      <point x="201" y="314" type="curve"/>
      <point x="201" y="300"/>
      <point x="201" y="181"/>
      <point x="204" y="95" type="curve" smooth="yes"/>
      <point x="205" y="49"/>
      <point x="215" y="40"/>
      <point x="311" y="23" type="curve"/>
      <point x="306" y="-3" type="line"/>
      <point x="257" y="1"/>
      <point x="212" y="3"/>
      <point x="166" y="3" type="curve" smooth="yes"/>
      <point x="120" y="3"/>
      <point x="74" y="1"/>
      <point x="25" y="-3" type="curve"/>
      <point x="23" y="23" type="line"/>
      <point x="104" y="40"/>
      <point x="116" y="40"/>
      <point x="120" y="90" type="curve" smooth="yes"/>
      <point x="122" y="118"/>
      <point x="123" y="209"/>
      <point x="123" y="305" type="curve" smooth="yes"/>
      <point x="123" y="391"/>
      <point x="122" y="482"/>
      <point x="120" y="534" type="curve" smooth="yes"/>
      <point x="117" y="594"/>
      <point x="85" y="600"/>
    </contour>
  </outline>
</glyph>
<glyph name="L" format="1">
  <advance width="558"/>
  <unicode hex="004C"/>
  <outline>
    <contour>
      <point x="120" y="104" type="curve" smooth="yes"/>
      <point x="122" y="169"/>
      <point x="124" y="240"/>
      <point x="124" y="314" type="curve" smooth="yes"/>
      <point x="124" y="388"/>
      <point x="122" y="464"/>
      <point x="120" y="541" type="curve" smooth="yes"/>
      <point x="118" y="592"/>
      <point x="105" y="596"/>
      <point x="23" y="614" type="curve"/>
      <point x="27" y="639" type="line"/>
      <point x="28" y="639" type="line"/>
      <point x="75" y="635"/>
      <point x="121" y="633"/>
      <point x="166" y="633" type="curve" smooth="yes"/>
      <point x="214" y="633"/>
      <point x="263" y="635"/>
      <point x="314" y="639" type="curve"/>
      <point x="319" y="611" type="line"/>
      <point x="227" y="595"/>
      <point x="209" y="594"/>
      <point x="207" y="542" type="curve" smooth="yes"/>
      <point x="204" y="447"/>
      <point x="202" y="349"/>
      <point x="202" y="250" type="curve" smooth="yes"/>
      <point x="202" y="183"/>
      <point x="203" y="116"/>
      <point x="205" y="50" type="curve"/>
      <point x="240" y="38"/>
      <point x="293" y="37"/>
      <point x="339" y="37" type="curve" smooth="yes"/>
      <point x="435" y="37"/>
      <point x="491" y="86"/>
      <point x="535" y="177" type="curve"/>
      <point x="564" y="168" type="line"/>
      <point x="542" y="116"/>
      <point x="513" y="44"/>
      <point x="501" y="-7" type="curve"/>
      <point x="416" y="2"/>
      <point x="347" y="3"/>
      <point x="268" y="3" type="curve" smooth="yes"/>
      <point x="150" y="3" type="line" smooth="yes"/>
      <point x="101" y="3"/>
      <point x="82" y="3"/>
      <point x="25" y="-3" type="curve"/>
      <point x="23" y="23" type="line"/>
      <point x="111" y="43"/>
      <point x="118" y="52"/>
    </contour>
  </outline>
</glyph>
<glyph name="M" format="1">
  <advance width="938"/>
  <unicode hex="004D"/>
  <outline>
    <contour>
      <point x="468" y="10" type="curve"/>
      <point x="441" y="6" type="line"/>
      <point x="420" y="63"/>
      <point x="405" y="98"/>
      <point x="380" y="150" type="curve" smooth="yes"/>
      <point x="333" y="245"/>
      <point x="230" y="436"/>
      <point x="160" y="565" type="curve"/>
      <point x="160" y="435"/>
      <point x="160" y="253"/>
      <point x="164" y="106" type="curve" smooth="yes"/>
      <point x="165" y="51"/>
      <point x="179" y="43"/>
      <point x="250" y="23" type="curve"/>
      <point x="244" y="-3" type="line"/>
      <point x="228" y="1"/>
      <point x="180" y="3"/>
      <point x="131" y="3" type="curve" smooth="yes"/>
      <point x="88" y="3"/>
      <point x="43" y="1"/>
      <point x="19" y="-3" type="curve"/>
      <point x="15" y="23" type="line"/>
      <point x="97" y="42"/>
      <point x="106" y="50"/>
      <point x="113" y="100" type="curve" smooth="yes"/>
      <point x="122" y="163"/>
      <point x="124" y="292"/>
      <point x="124" y="419" type="curve" smooth="yes"/>
      <point x="124" y="527" type="line"/>
      <point x="123" y="586"/>
      <point x="112" y="593"/>
      <point x="32" y="614" type="curve"/>
      <point x="36" y="639" type="line"/>
      <point x="79" y="635"/>
      <point x="114" y="633"/>
      <point x="149" y="633" type="curve" smooth="yes"/>
      <point x="181" y="633"/>
      <point x="213" y="635"/>
      <point x="248" y="638" type="curve"/>
      <point x="250" y="601"/>
      <point x="257" y="575"/>
      <point x="274" y="537" type="curve" smooth="yes"/>
      <point x="333" y="409"/>
      <point x="389" y="306"/>
      <point x="478" y="140" type="curve"/>
      <point x="518" y="222"/>
      <point x="599" y="368"/>
      <point x="671" y="526" type="curve" smooth="yes"/>
      <point x="691" y="569"/>
      <point x="701" y="594"/>
      <point x="704" y="639" type="curve"/>
      <point x="730" y="635"/>
      <point x="773" y="633"/>
      <point x="814" y="633" type="curve" smooth="yes"/>
      <point x="853" y="633"/>
      <point x="890" y="635"/>
      <point x="914" y="639" type="curve"/>
      <point x="919" y="615"/>
      <point x="917" y="614"/>
      <point x="917" y="614" type="curve"/>
      <point x="843" y="596"/>
      <point x="823" y="592"/>
      <point x="820" y="551" type="curve" smooth="yes"/>
      <point x="817" y="505"/>
      <point x="816" y="429"/>
      <point x="816" y="351" type="curve" smooth="yes"/>
      <point x="816" y="256"/>
      <point x="818" y="156"/>
      <point x="820" y="99" type="curve" smooth="yes"/>
      <point x="822" y="53"/>
      <point x="835" y="42"/>
      <point x="917" y="23" type="curve"/>
      <point x="914" y="-3" type="line"/>
      <point x="863" y="1"/>
      <point x="819" y="3"/>
      <point x="775" y="3" type="curve" smooth="yes"/>
      <point x="731" y="3"/>
      <point x="688" y="1"/>
      <point x="641" y="-3" type="curve"/>
      <point x="637" y="23" type="line"/>
      <point x="732" y="42"/>
      <point x="739" y="59"/>
      <point x="739" y="101" type="curve" smooth="yes"/>
      <point x="739" y="241"/>
      <point x="739" y="429"/>
      <point x="734" y="565" type="curve"/>
      <point x="534" y="169" type="line" smooth="yes"/>
      <point x="504" y="110"/>
      <point x="487" y="69"/>
    </contour>
  </outline>
</glyph>
<glyph name="R" format="1">
  <advance width="591"/>
  <unicode hex="0052"/>
  <outline>
    <contour>
      <point x="130" y="632" type="curve" smooth="yes"/>
      <point x="183" y="632"/>
      <point x="234" y="638"/>
      <point x="294" y="638" type="curve" smooth="yes"/>
      <point x="388" y="638"/>
      <point x="495" y="615"/>
      <point x="516" y="493" type="curve" smooth="yes"/>
      <point x="518" y="483"/>
      <point x="519" y="473"/>
      <point x="519" y="462" type="curve" smooth="yes"/>
      <point x="519" y="450"/>
      <point x="518" y="438"/>
      <point x="516" y="429" type="curve" smooth="yes"/>
      <point x="500" y="340"/>
      <point x="416" y="298"/>
      <point x="350" y="298" type="curve" smooth="yes"/>
      <point x="343" y="298"/>
      <point x="321" y="299"/>
      <point x="314" y="302" type="curve"/>
      <point x="365" y="234"/>
      <point x="467" y="110"/>
      <point x="574" y="43" type="curve"/>
      <point x="552" y="30"/>
      <point x="525" y="-6"/>
      <point x="510" y="-31" type="curve"/>
      <point x="442" y="33"/>
      <point x="306" y="194"/>
      <point x="225" y="321" type="curve"/>
      <point x="233" y="326"/>
      <point x="244" y="340"/>
      <point x="251" y="350" type="curve"/>
      <point x="271" y="335"/>
      <point x="290" y="329"/>
      <point x="313" y="329" type="curve" smooth="yes"/>
      <point x="392" y="329"/>
      <point x="435" y="374"/>
      <point x="435" y="458" type="curve" smooth="yes"/>
      <point x="435" y="560"/>
      <point x="368" y="601"/>
      <point x="280" y="601" type="curve" smooth="yes"/>
      <point x="256" y="601"/>
      <point x="229" y="599"/>
      <point x="205" y="595" type="curve"/>
      <point x="202" y="504"/>
      <point x="200" y="421"/>
      <point x="200" y="338" type="curve" smooth="yes"/>
      <point x="200" y="262"/>
      <point x="202" y="184"/>
      <point x="204" y="99" type="curve" smooth="yes"/>
      <point x="205" y="44"/>
      <point x="211" y="45"/>
      <point x="299" y="23" type="curve"/>
      <point x="293" y="-3" type="line"/>
      <point x="244" y="1"/>
      <point x="201" y="3"/>
      <point x="159" y="3" type="curve" smooth="yes"/>
      <point x="117" y="3"/>
      <point x="74" y="1"/>
      <point x="25" y="-3" type="curve"/>
      <point x="23" y="23" type="line"/>
      <point x="105" y="42"/>
      <point x="116" y="44"/>
      <point x="120" y="94" type="curve" smooth="yes"/>
      <point x="122" y="121"/>
      <point x="123" y="212"/>
      <point x="123" y="307" type="curve" smooth="yes"/>
      <point x="123" y="392"/>
      <point x="122" y="482"/>
      <point x="120" y="534" type="curve" smooth="yes"/>
      <point x="117" y="594"/>
      <point x="84" y="599"/>
      <point x="25" y="614" type="curve"/>
      <point x="28" y="639" type="line"/>
      <point x="30" y="639" type="line"/>
      <point x="55" y="635"/>
      <point x="84" y="632"/>
    </contour>
  </outline>
</glyph>
<glyph name="S" format="1">
  <advance width="479"/>
  <unicode hex="0053"/>
  <outline>
    <contour>
      <point x="62" y="24" type="curve"/>
      <point x="50" y="65"/>
      <point x="34" y="110"/>
      <point x="15" y="149" type="curve"/>
      <point x="37" y="160" type="line"/>
      <point x="82" y="80"/>
      <point x="153" y="23"/>
      <point x="232" y="23" type="curve" smooth="yes"/>
      <point x="293" y="23"/>
      <point x="383" y="46"/>
      <point x="383" y="151" type="curve" smooth="yes"/>
      <point x="383" y="186"/>
      <point x="369" y="229"/>
      <point x="320" y="260" type="curve" smooth="yes"/>
      <point x="278" y="286"/>
      <point x="209" y="305"/>
      <point x="153" y="332" type="curve" smooth="yes"/>
      <point x="90" y="363"/>
      <point x="48" y="410"/>
      <point x="48" y="477" type="curve" smooth="yes"/>
      <point x="48" y="565"/>
      <point x="126" y="648"/>
      <point x="245" y="648" type="curve" smooth="yes"/>
      <point x="278" y="648"/>
      <point x="319" y="641"/>
      <point x="368" y="628" type="curve"/>
      <point x="375" y="610"/>
      <point x="408" y="534"/>
      <point x="415" y="522" type="curve"/>
      <point x="394" y="510" type="line"/>
      <point x="360" y="570"/>
      <point x="297" y="613"/>
      <point x="238" y="613" type="curve" smooth="yes"/>
      <point x="170" y="613"/>
      <point x="119" y="565"/>
      <point x="119" y="505" type="curve" smooth="yes"/>
      <point x="119" y="458"/>
      <point x="142" y="429"/>
      <point x="193" y="405" type="curve"/>
      <point x="243" y="380"/>
      <point x="297" y="368"/>
      <point x="351" y="339" type="curve" smooth="yes"/>
      <point x="405" y="310"/>
      <point x="450" y="265"/>
      <point x="450" y="180" type="curve" smooth="yes"/>
      <point x="450" y="91"/>
      <point x="389" y="-15"/>
      <point x="220" y="-15" type="curve" smooth="yes"/>
      <point x="182" y="-15"/>
      <point x="105" y="7"/>
    </contour>
  </outline>
</glyph>
<glyph name="T" format="1">
  <advance width="599"/>
  <unicode hex="0054"/>
  <outline>
    <contour>
      <point x="258" y="98" type="curve" smooth="yes"/>
      <point x="261" y="166"/>
      <point x="262" y="271"/>
      <point x="262" y="372" type="curve" smooth="yes"/>
      <point x="262" y="462"/>
      <point x="261" y="548"/>
      <point x="260" y="603" type="curve"/>
      <point x="233" y="604"/>
      <point x="219" y="604"/>
      <point x="202" y="604" type="curve" smooth="yes"/>
      <point x="86" y="603"/>
      <point x="59" y="556"/>
      <point x="32" y="482" type="curve"/>
      <point x="3" y="491" type="line"/>
      <point x="20" y="525"/>
      <point x="47" y="616"/>
      <point x="51" y="647" type="curve"/>
      <point x="122" y="639"/>
      <point x="209" y="634"/>
      <point x="301" y="634" type="curve" smooth="yes"/>
      <point x="375" y="634"/>
      <point x="476" y="635"/>
      <point x="552" y="647" type="curve"/>
      <point x="563" y="597"/>
      <point x="575" y="546"/>
      <point x="596" y="497" type="curve"/>
      <point x="566" y="487" type="line"/>
      <point x="535" y="586"/>
      <point x="478" y="604"/>
      <point x="397" y="604" type="curve" smooth="yes"/>
      <point x="387" y="604"/>
      <point x="359" y="604"/>
      <point x="339" y="603" type="curve"/>
      <point x="338" y="557"/>
      <point x="338" y="501"/>
      <point x="338" y="443" type="curve" smooth="yes"/>
      <point x="338" y="327"/>
      <point x="339" y="198"/>
      <point x="342" y="99" type="curve" smooth="yes"/>
      <point x="344" y="44"/>
      <point x="362" y="44"/>
      <point x="445" y="23" type="curve"/>
      <point x="439" y="-3" type="line"/>
      <point x="390" y="1"/>
      <point x="343" y="3"/>
      <point x="297" y="3" type="curve" smooth="yes"/>
      <point x="250" y="3"/>
      <point x="204" y="1"/>
      <point x="155" y="-3" type="curve"/>
      <point x="149" y="23" type="line"/>
      <point x="246" y="45"/>
      <point x="255" y="46"/>
    </contour>
  </outline>
</glyph>
<glyph name="V" format="1">
  <advance width="683"/>
  <unicode hex="0056"/>
  <outline>
    <contour>
      <point x="330" y="-10" type="curve"/>
      <point x="313" y="72"/>
      <point x="297" y="108"/>
      <point x="274" y="168" type="curve" smooth="yes"/>
      <point x="225" y="295"/>
      <point x="168" y="424"/>
      <point x="117" y="527" type="curve" smooth="yes"/>
      <point x="87" y="589"/>
      <point x="77" y="595"/>
      <point x="10" y="614" type="curve"/>
      <point x="16" y="639" type="line"/>
      <point x="51" y="635"/>
      <point x="89" y="633"/>
      <point x="127" y="633" type="curve" smooth="yes"/>
      <point x="175" y="633"/>
      <point x="225" y="636"/>
      <point x="271" y="639" type="curve"/>
      <point x="277" y="614" type="line"/>
      <point x="220" y="598"/>
      <point x="202" y="592"/>
      <point x="202" y="571" type="curve" smooth="yes"/>
      <point x="202" y="561"/>
      <point x="206" y="548"/>
      <point x="212" y="530" type="curve" smooth="yes"/>
      <point x="231" y="470"/>
      <point x="292" y="325"/>
      <point x="338" y="220" type="curve" smooth="yes"/>
      <point x="352" y="186"/>
      <point x="362" y="160"/>
      <point x="369" y="139" type="curve"/>
      <point x="444" y="323"/>
      <point x="488" y="424"/>
      <point x="520" y="533" type="curve" smooth="yes"/>
      <point x="524" y="546"/>
      <point x="526" y="556"/>
      <point x="526" y="565" type="curve" smooth="yes"/>
      <point x="526" y="589"/>
      <point x="509" y="599"/>
      <point x="456" y="614" type="curve"/>
      <point x="460" y="640" type="line"/>
      <point x="492" y="636"/>
      <point x="526" y="635"/>
      <point x="558" y="635" type="curve" smooth="yes"/>
      <point x="598" y="635"/>
      <point x="635" y="637"/>
      <point x="667" y="640" type="curve"/>
      <point x="671" y="614" type="line"/>
      <point x="611" y="598"/>
      <point x="603" y="585"/>
      <point x="576" y="528" type="curve" smooth="yes"/>
      <point x="521" y="410"/>
      <point x="472" y="295"/>
      <point x="414" y="153" type="curve" smooth="yes"/>
      <point x="400" y="119"/>
      <point x="371" y="31"/>
      <point x="364" y="-13" type="curve"/>
      <point x="352" y="-11"/>
      <point x="344" y="-10"/>
    </contour>
  </outline>
</glyph>
<glyph name="bracketleft" format="1">
  <advance width="312"/>
  <unicode hex="005B"/>
  <outline>
    <contour>
      <point x="75" y="-165" type="curve"/>
      <point x="80" y="-87"/>
      <point x="81" y="29"/>
      <point x="81" y="154" type="curve" smooth="yes"/>
      <point x="81" y="330"/>
      <point x="78" y="521"/>
      <point x="75" y="642" type="curve"/>
      <point x="143" y="642"/>
      <point x="222" y="649"/>
      <point x="274" y="667" type="curve"/>
      <point x="282" y="638" type="line"/>
      <point x="245" y="626"/>
      <point x="196" y="616"/>
      <point x="159" y="615" type="curve"/>
      <point x="155" y="513"/>
      <point x="153" y="385"/>
      <point x="153" y="255" type="curve" smooth="yes"/>
      <point x="153" y="117"/>
      <point x="155" y="-24"/>
      <point x="159" y="-138" type="curve"/>
      <point x="196" y="-139"/>
      <point x="245" y="-149"/>
      <point x="282" y="-160" type="curve"/>
      <point x="274" y="-190" type="line"/>
      <point x="222" y="-172"/>
      <point x="143" y="-165"/>
    </contour>
  </outline>
</glyph>
<glyph name="backslash" format="1">
  <advance width="334"/>
  <unicode hex="005C"/>
  <outline>
    <contour>
      <point x="36" y="672" type="curve"/>
      <point x="70" y="681" type="line"/>
      <point x="131" y="475"/>
      <point x="234" y="145"/>
      <point x="298" y="-60" type="curve"/>
      <point x="264" y="-69" type="line"/>
      <point x="203" y="136"/>
      <point x="100" y="468"/>
    </contour>
  </outline>
</glyph>
<glyph name="bracketright" format="1">
  <advance width="312"/>
  <unicode hex="005D"/>
  <outline>
    <contour>
      <point x="237" y="-165" type="curve"/>
      <point x="169" y="-165"/>
      <point x="90" y="-172"/>
      <point x="38" y="-190" type="curve"/>
      <point x="30" y="-160" type="line"/>
      <point x="67" y="-149"/>
      <point x="116" y="-139"/>
      <point x="153" y="-138" type="curve"/>
      <point x="157" y="-24"/>
      <point x="159" y="117"/>
      <point x="159" y="255" type="curve" smooth="yes"/>
      <point x="159" y="385"/>
      <point x="157" y="513"/>
      <point x="153" y="615" type="curve"/>
      <point x="116" y="616"/>
      <point x="67" y="626"/>
      <point x="30" y="638" type="curve"/>
      <point x="38" y="667" type="line"/>
      <point x="90" y="649"/>
      <point x="169" y="642"/>
      <point x="237" y="642" type="curve"/>
      <point x="234" y="521"/>
      <point x="231" y="330"/>
      <point x="231" y="154" type="curve" smooth="yes"/>
      <point x="231" y="29"/>
      <point x="232" y="-87"/>
    </contour>
  </outline>
</glyph>
<glyph name="asciicircum" format="1">
  <advance width="360"/>
  <unicode hex="005E"/>
  <outline>
    <contour>
      <point x="47" y="389" type="line"/>
      <point x="18" y="405" type="line"/>
      <point x="171" y="659" type="line"/>
      <point x="190" y="659" type="line"/>
      <point x="342" y="405" type="line"/>
      <point x="314" y="389" type="line"/>
      <point x="180" y="610" type="line"/>
    </contour>
  </outline>
</glyph>
<glyph name="underscore" format="1">
  <advance width="415"/>
  <unicode hex="005F"/>
  <outline>
    <contour>
      <point x="0" y="-94" type="line"/>
      <point x="0" y="-59" type="line"/>
      <point x="415" y="-59" type="line"/>
      <point x="415" y="-94" type="line"/>
    </contour>
  </outline>
</glyph>
<glyph name="b" format="1">
  <advance width="520"/>
  <unicode hex="0062"/>
  <outline>
    <contour>
      <point x="72" y="18" type="curve"/>
      <point x="81" y="83"/>
      <point x="83" y="125"/>
      <point x="84" y="195" type="curve" smooth="yes"/>
      <point x="85" y="253"/>
      <point x="86" y="346"/>
      <point x="86" y="434" type="curve" smooth="yes"/>
      <point x="86" y="491"/>
      <point x="85" y="545"/>
      <point x="84" y="585" type="curve" smooth="yes"/>
      <point x="82" y="629"/>
      <point x="72" y="643"/>
      <point x="41" y="643" type="curve" smooth="yes"/>
      <point x="32" y="643"/>
      <point x="22" y="642"/>
      <point x="9" y="640" type="curve"/>
      <point x="4" y="664" type="line"/>
      <point x="55" y="680"/>
      <point x="99" y="692"/>
      <point x="161" y="703" type="curve"/>
      <point x="159" y="674"/>
      <point x="158" y="609"/>
      <point x="158" y="540" type="curve" smooth="yes"/>
      <point x="158" y="491"/>
      <point x="158" y="440"/>
      <point x="159" y="398" type="curve"/>
      <point x="193" y="412"/>
      <point x="225" y="425"/>
      <point x="255" y="435" type="curve" smooth="yes"/>
      <point x="273" y="441"/>
      <point x="292" y="443"/>
      <point x="311" y="443" type="curve" smooth="yes"/>
      <point x="339" y="443"/>
      <point x="366" y="438"/>
      <point x="387" y="429" type="curve" smooth="yes"/>
      <point x="442" y="406"/>
      <point x="476" y="341"/>
      <point x="476" y="265" type="curve" smooth="yes"/>
      <point x="476" y="161"/>
      <point x="438" y="80"/>
      <point x="355" y="25" type="curve" smooth="yes"/>
      <point x="308" y="-5"/>
      <point x="272" y="-18"/>
      <point x="231" y="-18" type="curve" smooth="yes"/>
      <point x="210" y="-18"/>
      <point x="188" y="-15"/>
      <point x="163" y="-9" type="curve" smooth="yes"/>
      <point x="128" y="0"/>
      <point x="90" y="10"/>
    </contour>
    <contour>
      <point x="159" y="53" type="curve"/>
      <point x="171" y="46"/>
      <point x="198" y="38"/>
      <point x="219" y="34" type="curve" smooth="yes"/>
      <point x="230" y="31"/>
      <point x="242" y="30"/>
      <point x="254" y="30" type="curve" smooth="yes"/>
      <point x="275" y="30"/>
      <point x="296" y="34"/>
      <point x="314" y="43" type="curve" smooth="yes"/>
      <point x="379" y="74"/>
      <point x="402" y="143"/>
      <point x="404" y="218" type="curve"/>
      <point x="405" y="299"/>
      <point x="388" y="354"/>
      <point x="328" y="379" type="curve" smooth="yes"/>
      <point x="308" y="387"/>
      <point x="289" y="391"/>
      <point x="269" y="391" type="curve" smooth="yes"/>
      <point x="239" y="391"/>
      <point x="206" y="382"/>
      <point x="159" y="367" type="curve"/>
      <point x="158" y="351"/>
      <point x="158" y="301"/>
      <point x="158" y="246" type="curve" smooth="yes"/>
      <point x="158" y="171"/>
      <point x="158" y="84"/>
    </contour>
  </outline>
</glyph>
<glyph name="f" format="1">
  <advance width="313"/>
  <unicode hex="0066"/>
  <outline>
    <contour>
      <point x="370" y="696" type="curve"/>
      <point x="361" y="680"/>
      <point x="348" y="643"/>
      <point x="343" y="617" type="curve"/>
      <point x="295" y="634"/>
      <point x="259" y="640"/>
      <point x="240" y="640" type="curve" smooth="yes"/>
      <point x="166" y="640"/>
      <point x="164" y="557"/>
      <point x="162" y="515" type="curve" smooth="yes"/>
      <point x="161" y="488"/>
      <point x="163" y="470"/>
      <point x="162" y="429" type="curve"/>
      <point x="212" y="429"/>
      <point x="247" y="430"/>
      <point x="312" y="441" type="curve"/>
      <point x="304" y="426"/>
      <point x="295" y="399"/>
      <point x="291" y="384" type="curve"/>
      <point x="248" y="390"/>
      <point x="211" y="391"/>
      <point x="163" y="391" type="curve"/>
      <point x="163" y="343" type="line" smooth="yes"/>
      <point x="163" y="251"/>
      <point x="166" y="121"/>
      <point x="168" y="100" type="curve" smooth="yes"/>
      <point x="173" y="47"/>
      <point x="177" y="35"/>
      <point x="258" y="23" type="curve"/>
      <point x="253" y="-3" type="line"/>
      <point x="211" y="1"/>
      <point x="176" y="3"/>
      <point x="141" y="3" type="curve" smooth="yes"/>
      <point x="106" y="3"/>
      <point x="69" y="1"/>
      <point x="26" y="-3" type="curve"/>
      <point x="22" y="23" type="line"/>
      <point x="77" y="31"/>
      <point x="91" y="58"/>
      <point x="93" y="96" type="curve" smooth="yes"/>
      <point x="95" y="130"/>
      <point x="95" y="210"/>
      <point x="95" y="280" type="curve" smooth="yes"/>
      <point x="95" y="390" type="line"/>
      <point x="77" y="391"/>
      <point x="48" y="388"/>
      <point x="18" y="387" type="curve"/>
      <point x="15" y="405" type="line"/>
      <point x="39" y="411"/>
      <point x="80" y="423"/>
      <point x="95" y="430" type="curve"/>
      <point x="95" y="450"/>
      <point x="94" y="498"/>
      <point x="94" y="506" type="curve" smooth="yes"/>
      <point x="94" y="527"/>
      <point x="97" y="557"/>
      <point x="113" y="580" type="curve" smooth="yes"/>
      <point x="130" y="605"/>
      <point x="167" y="647"/>
      <point x="180" y="662" type="curve" smooth="yes"/>
      <point x="214" y="700"/>
      <point x="234" y="711"/>
      <point x="286" y="707" type="curve" smooth="yes"/>
      <point x="312" y="705"/>
      <point x="348" y="700"/>
    </contour>
  </outline>
</glyph>
<glyph name="j" format="1">
  <advance width="269"/>
  <unicode hex="006A"/>
  <outline>
    <contour>
      <point x="178" y="443" type="curve"/>
      <point x="173" y="345"/>
      <point x="172" y="247"/>
      <point x="172" y="147" type="curve" smooth="yes"/>
      <point x="172" y="92"/>
      <point x="173" y="37"/>
      <point x="173" y="-20" type="curve" smooth="yes"/>
      <point x="173" y="-72"/>
      <point x="167" y="-93"/>
      <point x="146" y="-128" type="curve" smooth="yes"/>
      <point x="124" y="-166"/>
      <point x="96" y="-204"/>
      <point x="59" y="-234" type="curve" smooth="yes"/>
      <point x="42" y="-247"/>
      <point x="23" y="-256"/>
      <point x="-9" y="-256" type="curve" smooth="yes"/>
      <point x="-37" y="-256"/>
      <point x="-105" y="-237"/>
      <point x="-146" y="-231" type="curve"/>
      <point x="-133" y="-209"/>
      <point x="-124" y="-181"/>
      <point x="-118" y="-155" type="curve"/>
      <point x="-75" y="-172"/>
      <point x="-11" y="-191"/>
      <point x="33" y="-191" type="curve" smooth="yes"/>
      <point x="59" y="-191"/>
      <point x="82" y="-170"/>
      <point x="90" y="-133" type="curve" smooth="yes"/>
      <point x="100" y="-89"/>
      <point x="102" y="-44"/>
      <point x="103" y="10" type="curve" smooth="yes"/>
      <point x="104" y="77"/>
      <point x="106" y="146"/>
      <point x="106" y="214" type="curve" smooth="yes"/>
      <point x="106" y="252"/>
      <point x="105" y="291"/>
      <point x="104" y="329" type="curve" smooth="yes"/>
      <point x="103" y="365"/>
      <point x="95" y="382"/>
      <point x="72" y="382" type="curve" smooth="yes"/>
      <point x="58" y="382"/>
      <point x="41" y="379"/>
      <point x="29" y="375" type="curve"/>
      <point x="23" y="404" type="line"/>
      <point x="58" y="415"/>
      <point x="133" y="435"/>
    </contour>
    <contour>
      <point x="138" y="557" type="curve" smooth="yes"/>
      <point x="102" y="557"/>
      <point x="90" y="584"/>
      <point x="90" y="604" type="curve" smooth="yes"/>
      <point x="90" y="629"/>
      <point x="110" y="654"/>
      <point x="141" y="654" type="curve" smooth="yes"/>
      <point x="175" y="654"/>
      <point x="188" y="631"/>
      <point x="188" y="609" type="curve" smooth="yes"/>
      <point x="188" y="584"/>
      <point x="171" y="557"/>
    </contour>
  </outline>
</glyph>
<glyph name="q" format="1">
  <advance width="527"/>
  <unicode hex="0071"/>
  <outline>
    <contour>
      <point x="284" y="-244" type="curve"/>
      <point x="281" y="-218" type="line"/>
      <point x="352" y="-206"/>
      <point x="359" y="-196"/>
      <point x="362" y="-131" type="curve" smooth="yes"/>
      <point x="364" y="-102"/>
      <point x="365" y="-72"/>
      <point x="365" y="-41" type="curve" smooth="yes"/>
      <point x="365" y="-16"/>
      <point x="364" y="9"/>
      <point x="364" y="33" type="curve"/>
      <point x="330" y="20"/>
      <point x="311" y="12"/>
      <point x="272" y="-1" type="curve" smooth="yes"/>
      <point x="250" y="-9"/>
      <point x="228" y="-14"/>
      <point x="208" y="-14" type="curve" smooth="yes"/>
      <point x="183" y="-14"/>
      <point x="158" y="-7"/>
      <point x="131" y="10" type="curve" smooth="yes"/>
      <point x="84" y="38"/>
      <point x="39" y="99"/>
      <point x="39" y="173" type="curve" smooth="yes"/>
      <point x="39" y="284"/>
      <point x="82" y="370"/>
      <point x="193" y="419" type="curve" smooth="yes"/>
      <point x="222" y="432"/>
      <point x="255" y="442"/>
      <point x="288" y="442" type="curve" smooth="yes"/>
      <point x="298" y="442"/>
      <point x="308" y="441"/>
      <point x="318" y="439" type="curve" smooth="yes"/>
      <point x="338" y="435"/>
      <point x="359" y="431"/>
      <point x="380" y="425" type="curve"/>
      <point x="399" y="428"/>
      <point x="419" y="434"/>
      <point x="444" y="444" type="curve"/>
      <point x="440" y="379"/>
      <point x="438" y="263"/>
      <point x="438" y="148" type="curve" smooth="yes"/>
      <point x="438" y="33"/>
      <point x="440" y="-79"/>
      <point x="442" y="-133" type="curve" smooth="yes"/>
      <point x="444" y="-198"/>
      <point x="450" y="-203"/>
      <point x="514" y="-218" type="curve"/>
      <point x="508" y="-244" type="line"/>
      <point x="460" y="-239"/>
      <point x="430" y="-237"/>
      <point x="399" y="-237" type="curve" smooth="yes"/>
      <point x="368" y="-237"/>
      <point x="336" y="-239"/>
    </contour>
    <contour>
      <point x="110" y="215" type="curve" smooth="yes"/>
      <point x="110" y="142"/>
      <point x="138" y="95"/>
      <point x="174" y="68" type="curve" smooth="yes"/>
      <point x="196" y="51"/>
      <point x="220" y="45"/>
      <point x="246" y="45" type="curve" smooth="yes"/>
      <point x="257" y="45"/>
      <point x="269" y="46"/>
      <point x="281" y="48" type="curve" smooth="yes"/>
      <point x="308" y="53"/>
      <point x="340" y="61"/>
      <point x="364" y="68" type="curve"/>
      <point x="364" y="224" type="line" smooth="yes"/>
      <point x="364" y="276"/>
      <point x="363" y="325"/>
      <point x="362" y="363" type="curve"/>
      <point x="323" y="378"/>
      <point x="288" y="388"/>
      <point x="246" y="391" type="curve" smooth="yes"/>
      <point x="211" y="394"/>
      <point x="173" y="375"/>
      <point x="154" y="349" type="curve" smooth="yes"/>
      <point x="125" y="310"/>
      <point x="110" y="251"/>
    </contour>
  </outline>
</glyph>
<glyph name="r" format="1">
  <advance width="378"/>
  <unicode hex="0072"/>
  <outline>
    <contour>
      <point x="102" y="90" type="curve" smooth="yes"/>
      <point x="104" y="139"/>
      <point x="105" y="191"/>
      <point x="105" y="242" type="curve" smooth="yes"/>
      <point x="105" y="271"/>
      <point x="104" y="300"/>
      <point x="104" y="329" type="curve" smooth="yes"/>
      <point x="103" y="365"/>
      <point x="95" y="374"/>
      <point x="72" y="374" type="curve" smooth="yes"/>
      <point x="58" y="374"/>
      <point x="37" y="369"/>
      <point x="25" y="365" type="curve"/>
      <point x="19" y="394" type="line"/>
      <point x="55" y="405"/>
      <point x="133" y="435"/>
      <point x="178" y="443" type="curve"/>
      <point x="177" y="420"/>
      <point x="175" y="394"/>
      <point x="175" y="370" type="curve"/>
      <point x="187" y="387"/>
      <point x="205" y="408"/>
      <point x="222" y="423" type="curve" smooth="yes"/>
      <point x="242" y="441"/>
      <point x="264" y="440"/>
      <point x="293" y="436" type="curve" smooth="yes"/>
      <point x="315" y="433"/>
      <point x="348" y="427"/>
      <point x="365" y="428" type="curve"/>
      <point x="355" y="410"/>
      <point x="337" y="372"/>
      <point x="330" y="348" type="curve"/>
      <point x="307" y="358"/>
      <point x="283" y="365"/>
      <point x="260" y="368" type="curve" smooth="yes"/>
      <point x="218" y="374"/>
      <point x="200" y="362"/>
      <point x="175" y="335" type="curve"/>
      <point x="174" y="292"/>
      <point x="173" y="247"/>
      <point x="173" y="201" type="curve" smooth="yes"/>
      <point x="173" y="163"/>
      <point x="174" y="125"/>
      <point x="175" y="88" type="curve" smooth="yes"/>
      <point x="177" y="43"/>
      <point x="187" y="30"/>
      <point x="258" y="23" type="curve"/>
      <point x="254" y="-3" type="line"/>
      <point x="206" y="0"/>
      <point x="167" y="4"/>
      <point x="126" y="4" type="curve" smooth="yes"/>
      <point x="95" y="4"/>
      <point x="63" y="2"/>
      <point x="23" y="-3" type="curve"/>
      <point x="20" y="23" type="line"/>
      <point x="79" y="31"/>
      <point x="100" y="39"/>
    </contour>
  </outline>
</glyph>
<glyph name="s" format="1">
  <advance width="344"/>
  <unicode hex="0073"/>
  <outline>
    <contour>
      <point x="143" y="-10" type="curve" smooth="yes"/>
      <point x="106" y="-5"/>
      <point x="63" y="3"/>
      <point x="30" y="13" type="curve"/>
      <point x="42" y="35"/>
      <point x="48" y="62"/>
      <point x="50" y="95" type="curve"/>
      <point x="89" y="70"/>
      <point x="140" y="55"/>
      <point x="183" y="49" type="curve"/>
      <point x="237" y="43"/>
      <point x="262" y="73"/>
      <point x="265" y="88" type="curve" smooth="yes"/>
      <point x="274" y="130"/>
      <point x="218" y="161"/>
      <point x="157" y="190" type="curve"/>
      <point x="129" y="202"/>
      <point x="102" y="216"/>
      <point x="80" y="234" type="curve" smooth="yes"/>
      <point x="46" y="260"/>
      <point x="40" y="293"/>
      <point x="48" y="324" type="curve"/>
      <point x="55" y="356"/>
      <point x="71" y="380"/>
      <point x="88" y="401" type="curve" smooth="yes"/>
      <point x="111" y="428"/>
      <point x="147" y="439"/>
      <point x="186" y="435" type="curve" smooth="yes"/>
      <point x="211" y="432"/>
      <point x="234" y="430"/>
      <point x="256" y="430" type="curve" smooth="yes"/>
      <point x="267" y="430"/>
      <point x="278" y="431"/>
      <point x="290" y="432" type="curve"/>
      <point x="279" y="404"/>
      <point x="274" y="385"/>
      <point x="265" y="354" type="curve"/>
      <point x="234" y="366"/>
      <point x="179" y="378"/>
      <point x="150" y="379" type="curve" smooth="yes"/>
      <point x="123" y="380"/>
      <point x="103" y="374"/>
      <point x="95" y="352" type="curve" smooth="yes"/>
      <point x="80" y="312"/>
      <point x="143" y="278"/>
      <point x="183" y="260" type="curve" smooth="yes"/>
      <point x="211" y="248"/>
      <point x="241" y="235"/>
      <point x="265" y="218" type="curve" smooth="yes"/>
      <point x="291" y="200"/>
      <point x="310" y="177"/>
      <point x="310" y="143" type="curve" smooth="yes"/>
      <point x="310" y="93"/>
      <point x="280" y="39"/>
      <point x="238" y="7" type="curve" smooth="yes"/>
      <point x="219" y="-8"/>
      <point x="198" y="-12"/>
      <point x="175" y="-12" type="curve" smooth="yes"/>
      <point x="165" y="-12"/>
      <point x="154" y="-11"/>
    </contour>
  </outline>
</glyph>
<glyph name="t" format="1">
  <advance width="331"/>
  <unicode hex="0074"/>
  <outline>
    <contour>
      <point x="74" y="88" type="curve" smooth="yes"/>
      <point x="74" y="156"/>
      <point x="77" y="261"/>
      <point x="77" y="338" type="curve" smooth="yes"/>
      <point x="77" y="361"/>
      <point x="77" y="381"/>
      <point x="76" y="398" type="curve"/>
      <point x="59" y="399"/>
      <point x="35" y="397"/>
      <point x="10" y="395" type="curve"/>
      <point x="7" y="415" type="line"/>
      <point x="36" y="421"/>
      <point x="51" y="425"/>
      <point x="77" y="433" type="curve"/>
      <point x="77" y="471"/>
      <point x="75" y="506"/>
      <point x="72" y="532" type="curve"/>
      <point x="105" y="537"/>
      <point x="125" y="543"/>
      <point x="159" y="559" type="curve"/>
      <point x="154" y="527"/>
      <point x="152" y="495"/>
      <point x="150" y="433" type="curve"/>
      <point x="188" y="431"/>
      <point x="264" y="435"/>
      <point x="305" y="443" type="curve"/>
      <point x="296" y="430"/>
      <point x="287" y="409"/>
      <point x="282" y="390" type="curve"/>
      <point x="261" y="392"/>
      <point x="206" y="399"/>
      <point x="149" y="399" type="curve"/>
      <point x="148" y="365"/>
      <point x="147" y="298"/>
      <point x="147" y="236" type="curve" smooth="yes"/>
      <point x="147" y="174"/>
      <point x="148" y="117"/>
      <point x="149" y="103" type="curve" smooth="yes"/>
      <point x="151" y="78"/>
      <point x="156" y="66"/>
      <point x="167" y="58" type="curve" smooth="yes"/>
      <point x="179" y="49"/>
      <point x="195" y="46"/>
      <point x="212" y="46" type="curve" smooth="yes"/>
      <point x="246" y="46"/>
      <point x="285" y="59"/>
      <point x="305" y="65" type="curve"/>
      <point x="314" y="40" type="line"/>
      <point x="268" y="20"/>
      <point x="238" y="8"/>
      <point x="193" y="-6" type="curve" smooth="yes"/>
      <point x="178" y="-11"/>
      <point x="162" y="-15"/>
      <point x="147" y="-15" type="curve" smooth="yes"/>
      <point x="129" y="-15"/>
      <point x="110" y="-9"/>
      <point x="92" y="10" type="curve" smooth="yes"/>
      <point x="74" y="28"/>
      <point x="74" y="55"/>
    </contour>
  </outline>
</glyph>
<glyph name="v" format="1">
  <advance width="512"/>
  <unicode hex="0076"/>
  <outline>
    <contour>
      <point x="242" y="-21" type="line"/>
      <point x="242" y="-22" type="line"/>
      <point x="197" y="94"/>
      <point x="127" y="249"/>
      <point x="93" y="318" type="curve" smooth="yes"/>
      <point x="59" y="388"/>
      <point x="40" y="403"/>
      <point x="3" y="409" type="curve"/>
      <point x="8" y="435" type="line"/>
      <point x="37" y="429"/>
      <point x="68" y="427"/>
      <point x="99" y="427" type="curve" smooth="yes"/>
      <point x="138" y="427"/>
      <point x="177" y="431"/>
      <point x="210" y="435" type="curve"/>
      <point x="213" y="409" type="line"/>
      <point x="169" y="403"/>
      <point x="157" y="388"/>
      <point x="157" y="370" type="curve" smooth="yes"/>
      <point x="157" y="359"/>
      <point x="161" y="348"/>
      <point x="165" y="336" type="curve" smooth="yes"/>
      <point x="182" y="287"/>
      <point x="230" y="168"/>
      <point x="268" y="90" type="curve"/>
      <point x="300" y="161"/>
      <point x="342" y="250"/>
      <point x="365" y="314" type="curve" smooth="yes"/>
      <point x="370" y="328"/>
      <point x="373" y="342"/>
      <point x="373" y="354" type="curve" smooth="yes"/>
      <point x="373" y="379"/>
      <point x="360" y="399"/>
      <point x="318" y="409" type="curve"/>
      <point x="322" y="435" type="line"/>
      <point x="350" y="430"/>
      <point x="378" y="428"/>
      <point x="403" y="428" type="curve" smooth="yes"/>
      <point x="436" y="428"/>
      <point x="465" y="432"/>
      <point x="489" y="435" type="curve"/>
      <point x="493" y="409" type="line"/>
      <point x="446" y="395"/>
      <point x="420" y="345"/>
      <point x="397" y="296" type="curve" smooth="yes"/>
      <point x="367" y="232"/>
      <point x="338" y="168"/>
      <point x="310" y="105" type="curve" smooth="yes"/>
      <point x="295" y="70"/>
      <point x="276" y="25"/>
      <point x="264" y="-18" type="curve"/>
    </contour>
  </outline>
</glyph>
<glyph name="braceleft" format="1">
  <advance width="302"/>
  <unicode hex="007B"/>
  <outline>
    <contour>
      <point x="264" y="-169" type="curve"/>
      <point x="254" y="-193" type="line"/>
      <point x="171" y="-172"/>
      <point x="112" y="-170"/>
      <point x="107" y="-68" type="curve" smooth="yes"/>
      <point x="105" y="-23"/>
      <point x="103" y="120"/>
      <point x="101" y="149" type="curve"/>
      <point x="100" y="185"/>
      <point x="90" y="206"/>
      <point x="69" y="221" type="curve" smooth="yes"/>
      <point x="58" y="229"/>
      <point x="45" y="236"/>
      <point x="27" y="243" type="curve"/>
      <point x="27" y="266" type="line"/>
      <point x="78" y="289"/>
      <point x="97" y="305"/>
      <point x="102" y="345" type="curve" smooth="yes"/>
      <point x="105" y="372"/>
      <point x="105" y="501"/>
      <point x="109" y="530" type="curve" smooth="yes"/>
      <point x="118" y="615"/>
      <point x="142" y="629"/>
      <point x="256" y="673" type="curve"/>
      <point x="264" y="645" type="line"/>
      <point x="213" y="617"/>
      <point x="194" y="610"/>
      <point x="186" y="560" type="curve" smooth="yes"/>
      <point x="183" y="539"/>
      <point x="179" y="397"/>
      <point x="174" y="360" type="curve" smooth="yes"/>
      <point x="167" y="311"/>
      <point x="134" y="292"/>
      <point x="71" y="258" type="curve"/>
      <point x="148" y="222"/>
      <point x="168" y="206"/>
      <point x="175" y="146" type="curve" smooth="yes"/>
      <point x="177" y="124"/>
      <point x="185" y="-29"/>
      <point x="186" y="-51" type="curve" smooth="yes"/>
      <point x="193" y="-129"/>
      <point x="212" y="-147"/>
    </contour>
  </outline>
</glyph>
<glyph name="bar" format="1">
  <advance width="219"/>
  <unicode hex="007C"/>
  <outline>
    <contour>
      <point x="93" y="676" type="curve"/>
      <point x="128" y="676" type="line"/>
      <point x="126" y="501"/>
      <point x="125" y="261"/>
      <point x="125" y="62" type="curve" smooth="yes"/>
      <point x="125" y="-65" type="line"/>
      <point x="91" y="-65" type="line"/>
      <point x="93" y="74"/>
      <point x="94" y="253"/>
      <point x="94" y="420" type="curve" smooth="yes"/>
      <point x="94" y="512"/>
      <point x="94" y="600"/>
    </contour>
  </outline>
</glyph>
<glyph name="braceright" format="1">
  <advance width="302"/>
  <unicode hex="007D"/>
  <outline>
    <contour>
      <point x="45" y="-193" type="curve"/>
      <point x="39" y="-168" type="line"/>
      <point x="90" y="-146"/>
      <point x="111" y="-131"/>
      <point x="116" y="-52" type="curve" smooth="yes"/>
      <point x="118" y="-30"/>
      <point x="125" y="124"/>
      <point x="128" y="146" type="curve" smooth="yes"/>
      <point x="134" y="206"/>
      <point x="155" y="222"/>
      <point x="231" y="258" type="curve"/>
      <point x="169" y="292"/>
      <point x="135" y="311"/>
      <point x="129" y="360" type="curve"/>
      <point x="123" y="397"/>
      <point x="119" y="546"/>
      <point x="116" y="567" type="curve" smooth="yes"/>
      <point x="108" y="618"/>
      <point x="90" y="622"/>
      <point x="39" y="646" type="curve"/>
      <point x="48" y="672" type="line"/>
      <point x="162" y="638"/>
      <point x="184" y="632"/>
      <point x="194" y="546" type="curve" smooth="yes"/>
      <point x="197" y="517"/>
      <point x="197" y="372"/>
      <point x="200" y="345" type="curve" smooth="yes"/>
      <point x="205" y="305"/>
      <point x="224" y="289"/>
      <point x="275" y="266" type="curve"/>
      <point x="275" y="243" type="line"/>
      <point x="224" y="221"/>
      <point x="204" y="204"/>
      <point x="201" y="149" type="curve" smooth="yes"/>
      <point x="200" y="120"/>
      <point x="197" y="-16"/>
      <point x="194" y="-60" type="curve" smooth="yes"/>
      <point x="189" y="-147"/>
      <point x="138" y="-164"/>
    </contour>
  </outline>
</glyph>
<glyph name="asciitilde" format="1">
  <advance width="413"/>
  <unicode hex="007E"/>
  <outline>
    <contour>
      <point x="180" y="330" type="curve" smooth="yes"/>
      <point x="202" y="324"/>
      <point x="229" y="315"/>
      <point x="250" y="310" type="curve" smooth="yes"/>
      <point x="262" y="308"/>
      <point x="272" y="306"/>
      <point x="281" y="306" type="curve" smooth="yes"/>
      <point x="307" y="306"/>
      <point x="327" y="317"/>
      <point x="363" y="345" type="curve"/>
      <point x="383" y="328" type="line"/>
      <point x="359" y="305"/>
      <point x="320" y="271"/>
      <point x="304" y="260" type="curve" smooth="yes"/>
      <point x="285" y="248"/>
      <point x="271" y="243"/>
      <point x="256" y="243" type="curve" smooth="yes"/>
      <point x="247" y="243"/>
      <point x="237" y="245"/>
      <point x="225" y="248" type="curve" smooth="yes"/>
      <point x="204" y="252"/>
      <point x="166" y="265"/>
      <point x="143" y="270" type="curve" smooth="yes"/>
      <point x="132" y="273"/>
      <point x="123" y="275"/>
      <point x="114" y="275" type="curve" smooth="yes"/>
      <point x="97" y="275"/>
      <point x="79" y="267"/>
      <point x="35" y="239" type="curve"/>
      <point x="17" y="257" type="line"/>
      <point x="45" y="282"/>
      <point x="76" y="307"/>
      <point x="95" y="319" type="curve" smooth="yes"/>
      <point x="114" y="331"/>
      <point x="127" y="336"/>
      <point x="143" y="336" type="curve" smooth="yes"/>
      <point x="153" y="336"/>
      <point x="164" y="334"/>
    </contour>
  </outline>
</glyph>
<glyph name="exclamdown" format="1">
  <advance width="216"/>
  <unicode hex="00A1"/>
  <outline>
    <contour>
      <point x="158" y="-213" type="curve"/>
      <point x="141" y="-210"/>
      <point x="127" y="-209"/>
      <point x="112" y="-209" type="curve" smooth="yes"/>
      <point x="94" y="-209"/>
      <point x="76" y="-211"/>
      <point x="55" y="-214" type="curve"/>
      <point x="74" y="-58"/>
      <point x="88" y="100"/>
      <point x="96" y="265" type="curve"/>
      <point x="122" y="265" type="line"/>
      <point x="130" y="74"/>
      <point x="139" y="-55"/>
    </contour>
    <contour>
      <point x="113" y="441" type="curve" smooth="yes"/>
      <point x="149" y="441"/>
      <point x="161" y="414"/>
      <point x="161" y="394" type="curve" smooth="yes"/>
      <point x="161" y="368"/>
      <point x="141" y="344"/>
      <point x="110" y="344" type="curve" smooth="yes"/>
      <point x="75" y="344"/>
      <point x="62" y="367"/>
      <point x="62" y="388" type="curve" smooth="yes"/>
      <point x="62" y="414"/>
      <point x="80" y="441"/>
    </contour>
  </outline>
</glyph>
<glyph name="cent" format="1">
  <advance width="443"/>
  <unicode hex="00A2"/>
  <outline>
    <contour>
      <point x="304" y="520" type="line"/>
      <point x="337" y="512" type="line"/>
      <point x="317" y="434" type="line"/>
      <point x="341" y="431"/>
      <point x="364" y="428"/>
      <point x="389" y="427" type="curve"/>
      <point x="376" y="404"/>
      <point x="366" y="375"/>
      <point x="362" y="353" type="curve"/>
      <point x="345" y="358"/>
      <point x="322" y="364"/>
      <point x="301" y="369" type="curve"/>
      <point x="273" y="260"/>
      <point x="246" y="152"/>
      <point x="220" y="42" type="curve"/>
      <point x="233" y="39"/>
      <point x="246" y="38"/>
      <point x="262" y="38" type="curve" smooth="yes"/>
      <point x="301" y="38"/>
      <point x="359" y="51"/>
      <point x="395" y="65" type="curve"/>
      <point x="407" y="42" type="line"/>
      <point x="370" y="23"/>
      <point x="307" y="1"/>
      <point x="258" y="-10" type="curve" smooth="yes"/>
      <point x="243" y="-13"/>
      <point x="228" y="-15"/>
      <point x="214" y="-15" type="curve" smooth="yes"/>
      <point x="206" y="-15" type="line"/>
      <point x="186" y="-102" type="line"/>
      <point x="154" y="-95" type="line"/>
      <point x="174" y="-10" type="line"/>
      <point x="162" y="-6" type="line" smooth="yes"/>
      <point x="67" y="25"/>
      <point x="36" y="115"/>
      <point x="36" y="191" type="curve" smooth="yes"/>
      <point x="36" y="283"/>
      <point x="102" y="374"/>
      <point x="185" y="419" type="curve" smooth="yes"/>
      <point x="215" y="436"/>
      <point x="246" y="442"/>
      <point x="282" y="438" type="curve"/>
      <point x="285" y="438" type="line"/>
    </contour>
    <contour>
      <point x="108" y="225" type="curve" smooth="yes"/>
      <point x="108" y="141"/>
      <point x="132" y="78"/>
      <point x="190" y="52" type="curve"/>
      <point x="217" y="160"/>
      <point x="244" y="267"/>
      <point x="270" y="375" type="curve"/>
      <point x="240" y="379" type="line"/>
      <point x="195" y="381"/>
      <point x="165" y="372"/>
      <point x="144" y="347" type="curve" smooth="yes"/>
      <point x="125" y="325"/>
      <point x="108" y="281"/>
    </contour>
  </outline>
</glyph>
<glyph name="sterling" format="1">
  <advance width="514"/>
  <unicode hex="00A3"/>
  <outline>
    <contour>
      <point x="65" y="318" type="curve"/>
      <point x="62" y="336" type="line"/>
      <point x="74" y="339"/>
      <point x="104" y="345"/>
      <point x="122" y="354" type="curve"/>
      <point x="120" y="378"/>
      <point x="120" y="404"/>
      <point x="120" y="433" type="curve" smooth="yes"/>
      <point x="119" y="488"/>
      <point x="155" y="543"/>
      <point x="193" y="580" type="curve" smooth="yes"/>
      <point x="233" y="618"/>
      <point x="262" y="641"/>
      <point x="332" y="640" type="curve" smooth="yes"/>
      <point x="336" y="640"/>
      <point x="388" y="633"/>
      <point x="412" y="629" type="curve"/>
      <point x="398" y="603"/>
      <point x="386" y="575"/>
      <point x="384" y="545" type="curve"/>
      <point x="346" y="558"/>
      <point x="330" y="562"/>
      <point x="290" y="567" type="curve" smooth="yes"/>
      <point x="265" y="570"/>
      <point x="236" y="569"/>
      <point x="219" y="552" type="curve" smooth="yes"/>
      <point x="201" y="535"/>
      <point x="192" y="503"/>
      <point x="193" y="441" type="curve" smooth="yes"/>
      <point x="193" y="412"/>
      <point x="194" y="383"/>
      <point x="195" y="355" type="curve"/>
      <point x="256" y="356"/>
      <point x="318" y="361"/>
      <point x="365" y="369" type="curve"/>
      <point x="357" y="355"/>
      <point x="350" y="329"/>
      <point x="347" y="315" type="curve"/>
      <point x="299" y="320"/>
      <point x="248" y="322"/>
      <point x="196" y="323" type="curve"/>
      <point x="197" y="296"/>
      <point x="197" y="269"/>
      <point x="197" y="240" type="curve" smooth="yes"/>
      <point x="195" y="173"/>
      <point x="181" y="130"/>
      <point x="138" y="79" type="curve"/>
      <point x="161" y="88"/>
      <point x="194" y="92"/>
      <point x="232" y="92" type="curve" smooth="yes"/>
      <point x="256" y="92"/>
      <point x="282" y="90"/>
      <point x="309" y="88" type="curve" smooth="yes"/>
      <point x="324" y="87"/>
      <point x="338" y="86"/>
      <point x="352" y="86" type="curve" smooth="yes"/>
      <point x="395" y="86"/>
      <point x="431" y="92"/>
      <point x="462" y="105" type="curve"/>
      <point x="442" y="59"/>
      <point x="435" y="31"/>
      <point x="430" y="-1" type="curve"/>
      <point x="416" y="-2"/>
      <point x="402" y="-3"/>
      <point x="390" y="-3" type="curve" smooth="yes"/>
      <point x="341" y="-3"/>
      <point x="305" y="6"/>
      <point x="248" y="12" type="curve" smooth="yes"/>
      <point x="221" y="15"/>
      <point x="194" y="17"/>
      <point x="169" y="17" type="curve" smooth="yes"/>
      <point x="123" y="17"/>
      <point x="81" y="11"/>
      <point x="53" y="-6" type="curve"/>
      <point x="40" y="10" type="line"/>
      <point x="109" y="62"/>
      <point x="120" y="112"/>
      <point x="124" y="162" type="curve" smooth="yes"/>
      <point x="126" y="186"/>
      <point x="126" y="207"/>
      <point x="126" y="228" type="curve" smooth="yes"/>
      <point x="126" y="259"/>
      <point x="125" y="288"/>
      <point x="123" y="320" type="curve"/>
      <point x="111" y="320"/>
      <point x="78" y="319"/>
    </contour>
  </outline>
</glyph>
<glyph name="currency" format="1">
  <advance width="420"/>
  <unicode hex="00A4"/>
  <outline>
    <contour>
      <point x="63" y="330" type="curve" smooth="yes"/>
      <point x="65" y="362"/>
      <point x="79" y="396"/>
      <point x="96" y="420" type="curve"/>
      <point x="20" y="490" type="line"/>
      <point x="52" y="523" type="line"/>
      <point x="122" y="443" type="line"/>
      <point x="147" y="460"/>
      <point x="181" y="474"/>
      <point x="213" y="474" type="curve" smooth="yes"/>
      <point x="245" y="474"/>
      <point x="279" y="460"/>
      <point x="303" y="445" type="curve"/>
      <point x="373" y="521" type="line"/>
      <point x="406" y="490" type="line"/>
      <point x="327" y="421" type="line"/>
      <point x="345" y="399"/>
      <point x="360" y="365"/>
      <point x="360" y="330" type="curve" smooth="yes"/>
      <point x="360" y="298"/>
      <point x="344" y="265"/>
      <point x="326" y="243" type="curve"/>
      <point x="406" y="174" type="line"/>
      <point x="373" y="140" type="line"/>
      <point x="300" y="219" type="line"/>
      <point x="274" y="201"/>
      <point x="239" y="187"/>
      <point x="205" y="187" type="curve" smooth="yes"/>
      <point x="175" y="187"/>
      <point x="141" y="199"/>
      <point x="118" y="214" type="curve"/>
      <point x="49" y="141" type="line"/>
      <point x="14" y="172" type="line"/>
      <point x="94" y="238" type="line"/>
      <point x="76" y="261"/>
      <point x="61" y="295"/>
    </contour>
    <contour>
      <point x="106" y="330" type="curve" smooth="yes"/>
      <point x="105" y="275"/>
      <point x="152" y="222"/>
      <point x="208" y="222" type="curve" smooth="yes"/>
      <point x="270" y="222"/>
      <point x="315" y="275"/>
      <point x="317" y="330" type="curve"/>
      <point x="318" y="387"/>
      <point x="268" y="440"/>
      <point x="212" y="440" type="curve" smooth="yes"/>
      <point x="151" y="440"/>
      <point x="108" y="387"/>
    </contour>
  </outline>
</glyph>
<glyph name="yen" format="1">
  <advance width="624"/>
  <unicode hex="00A5"/>
  <outline>
    <contour>
      <point x="158" y="231" type="line"/>
      <point x="158" y="266" type="line"/>
      <point x="267" y="266" type="line"/>
      <point x="226" y="364"/>
      <point x="181" y="452"/>
      <point x="136" y="529" type="curve"/>
      <point x="95" y="602"/>
      <point x="75" y="604"/>
      <point x="15" y="614" type="curve"/>
      <point x="20" y="639" type="line"/>
      <point x="48" y="636"/>
      <point x="78" y="635"/>
      <point x="110" y="635" type="curve" smooth="yes"/>
      <point x="139" y="635"/>
      <point x="169" y="636"/>
      <point x="200" y="639" type="curve"/>
      <point x="198" y="626"/>
      <point x="199" y="602"/>
      <point x="214" y="566" type="curve" smooth="yes"/>
      <point x="269" y="435"/>
      <point x="297" y="381"/>
      <point x="342" y="297" type="curve"/>
      <point x="386" y="372"/>
      <point x="425" y="445"/>
      <point x="456" y="523" type="curve" smooth="yes"/>
      <point x="460" y="533"/>
      <point x="463" y="544"/>
      <point x="463" y="556" type="curve" smooth="yes"/>
      <point x="463" y="582"/>
      <point x="449" y="609"/>
      <point x="411" y="616" type="curve"/>
      <point x="415" y="639" type="line"/>
      <point x="446" y="636"/>
      <point x="480" y="634"/>
      <point x="515" y="634" type="curve" smooth="yes"/>
      <point x="545" y="634"/>
      <point x="576" y="635"/>
      <point x="604" y="639" type="curve"/>
      <point x="608" y="614" type="line"/>
      <point x="565" y="606"/>
      <point x="530" y="558"/>
      <point x="505" y="517" type="curve" smooth="yes"/>
      <point x="476" y="471"/>
      <point x="410" y="352"/>
      <point x="367" y="266" type="curve"/>
      <point x="475" y="266" type="line"/>
      <point x="475" y="231" type="line"/>
      <point x="356" y="231" type="line"/>
      <point x="356" y="214"/>
      <point x="355" y="193"/>
      <point x="355" y="173" type="curve"/>
      <point x="475" y="173" type="line"/>
      <point x="475" y="137" type="line"/>
      <point x="355" y="137" type="line"/>
      <point x="355" y="102" type="line"/>
      <point x="356" y="47"/>
      <point x="357" y="45"/>
      <point x="439" y="23" type="curve"/>
      <point x="433" y="-3" type="line"/>
      <point x="378" y="0"/>
      <point x="335" y="2"/>
      <point x="293" y="2" type="curve" smooth="yes"/>
      <point x="261" y="2"/>
      <point x="230" y="1"/>
      <point x="195" y="-3" type="curve"/>
      <point x="190" y="23" type="line"/>
      <point x="265" y="40"/>
      <point x="275" y="50"/>
      <point x="276" y="102" type="curve" smooth="yes"/>
      <point x="277" y="112"/>
      <point x="277" y="124"/>
      <point x="277" y="137" type="curve"/>
      <point x="158" y="137" type="line"/>
      <point x="158" y="173" type="line"/>
      <point x="278" y="173" type="line"/>
      <point x="278" y="195"/>
      <point x="277" y="216"/>
      <point x="277" y="231" type="curve"/>
    </contour>
  </outline>
</glyph>
<glyph name="brokenbar" format="1">
  <advance width="219"/>
  <unicode hex="00A6"/>
  <outline>
    <contour>
      <point x="94" y="291" type="line"/>
      <point x="125" y="291" type="line"/>
      <point x="125" y="-65" type="line"/>
      <point x="91" y="-65" type="line"/>
    </contour>
    <contour>
      <point x="125" y="354" type="line"/>
      <point x="94" y="354" type="line"/>
      <point x="94" y="470"/>
      <point x="94" y="581"/>
      <point x="93" y="676" type="curve"/>
      <point x="128" y="676" type="line"/>
    </contour>
  </outline>
</glyph>
<glyph name="section" format="1">
  <advance width="362"/>
  <unicode hex="00A7"/>
  <outline>
    <contour>
      <point x="31" y="357" type="curve" smooth="yes"/>
      <point x="40" y="390"/>
      <point x="61" y="415"/>
      <point x="86" y="440" type="curve"/>
      <point x="50" y="469"/>
      <point x="44" y="505"/>
      <point x="53" y="538" type="curve"/>
      <point x="63" y="570"/>
      <point x="80" y="593"/>
      <point x="98" y="613" type="curve" smooth="yes"/>
      <point x="123" y="639"/>
      <point x="160" y="647"/>
      <point x="199" y="640" type="curve"/>
      <point x="236" y="635"/>
      <point x="267" y="629"/>
      <point x="301" y="631" type="curve"/>
      <point x="289" y="604"/>
      <point x="283" y="585"/>
      <point x="273" y="555" type="curve"/>
      <point x="242" y="569"/>
      <point x="188" y="584"/>
      <point x="160" y="587" type="curve" smooth="yes"/>
      <point x="132" y="590"/>
      <point x="111" y="585"/>
      <point x="102" y="564" type="curve" smooth="yes"/>
      <point x="85" y="525"/>
      <point x="144" y="486"/>
      <point x="182" y="466" type="curve" smooth="yes"/>
      <point x="214" y="450"/>
      <point x="280" y="415"/>
      <point x="305" y="392" type="curve" smooth="yes"/>
      <point x="329" y="370"/>
      <point x="347" y="347"/>
      <point x="345" y="313" type="curve" smooth="yes"/>
      <point x="343" y="275"/>
      <point x="325" y="235"/>
      <point x="291" y="204" type="curve"/>
      <point x="311" y="185"/>
      <point x="324" y="163"/>
      <point x="322" y="134" type="curve" smooth="yes"/>
      <point x="320" y="84"/>
      <point x="287" y="31"/>
      <point x="243" y="3" type="curve" smooth="yes"/>
      <point x="224" y="-9"/>
      <point x="206" y="-13"/>
      <point x="186" y="-13" type="curve" smooth="yes"/>
      <point x="174" y="-13"/>
      <point x="160" y="-11"/>
      <point x="146" y="-9" type="curve" smooth="yes"/>
      <point x="110" y="-2"/>
      <point x="67" y="6"/>
      <point x="35" y="18" type="curve"/>
      <point x="48" y="39"/>
      <point x="56" y="66"/>
      <point x="59" y="99" type="curve"/>
      <point x="96" y="71"/>
      <point x="148" y="55"/>
      <point x="190" y="47" type="curve" smooth="yes"/>
      <point x="244" y="38"/>
      <point x="270" y="67"/>
      <point x="275" y="82" type="curve" smooth="yes"/>
      <point x="286" y="123"/>
      <point x="243" y="156"/>
      <point x="184" y="188" type="curve"/>
      <point x="156" y="202"/>
      <point x="87" y="235"/>
      <point x="56" y="265" type="curve" smooth="yes"/>
      <point x="35" y="286"/>
      <point x="27" y="307"/>
      <point x="27" y="329" type="curve" smooth="yes"/>
      <point x="27" y="338"/>
      <point x="28" y="348"/>
    </contour>
    <contour>
      <point x="108" y="316" type="curve" smooth="yes"/>
      <point x="155" y="278"/>
      <point x="217" y="260"/>
      <point x="269" y="221" type="curve"/>
      <point x="285" y="235"/>
      <point x="290" y="257"/>
      <point x="293" y="265" type="curve" smooth="yes"/>
      <point x="300" y="290"/>
      <point x="288" y="311"/>
      <point x="260" y="333" type="curve"/>
      <point x="214" y="367"/>
      <point x="160" y="390"/>
      <point x="108" y="425" type="curve"/>
      <point x="97" y="413"/>
      <point x="87" y="394"/>
      <point x="83" y="382" type="curve" smooth="yes"/>
      <point x="73" y="356"/>
      <point x="84" y="335"/>
    </contour>
  </outline>
</glyph>
<glyph name="dieresis" format="1">
  <advance width="364"/>
  <unicode hex="00A8"/>
  <outline>
    <contour>
      <point x="105" y="525" type="curve" smooth="yes"/>
      <point x="75" y="525"/>
      <point x="65" y="547"/>
      <point x="65" y="564" type="curve" smooth="yes"/>
      <point x="65" y="585"/>
      <point x="82" y="605"/>
      <point x="107" y="605" type="curve" smooth="yes"/>
      <point x="135" y="605"/>
      <point x="147" y="586"/>
      <point x="147" y="568" type="curve" smooth="yes"/>
      <point x="147" y="547"/>
      <point x="132" y="525"/>
    </contour>
    <contour>
      <point x="256" y="525" type="curve" smooth="yes"/>
      <point x="226" y="525"/>
      <point x="216" y="547"/>
      <point x="216" y="564" type="curve" smooth="yes"/>
      <point x="216" y="585"/>
      <point x="233" y="605"/>
      <point x="259" y="605" type="curve" smooth="yes"/>
      <point x="287" y="605"/>
      <point x="298" y="586"/>
      <point x="298" y="568" type="curve" smooth="yes"/>
      <point x="298" y="547"/>
      <point x="284" y="525"/>
    </contour>
  </outline>
</glyph>
<glyph name="copyright" format="1">
  <advance width="843"/>
  <unicode hex="00A9"/>
  <outline>
    <contour>
      <point x="41" y="365" type="curve" smooth="yes"/>
      <point x="41" y="575"/>
      <point x="211" y="746"/>
      <point x="421" y="746" type="curve" smooth="yes"/>
      <point x="631" y="746"/>
      <point x="802" y="575"/>
      <point x="802" y="365" type="curve" smooth="yes"/>
      <point x="802" y="155"/>
      <point x="631" y="-15"/>
      <point x="421" y="-15" type="curve" smooth="yes"/>
      <point x="211" y="-15"/>
      <point x="41" y="155"/>
    </contour>
    <contour>
      <point x="78" y="366" type="curve" smooth="yes"/>
      <point x="78" y="176"/>
      <point x="231" y="21"/>
      <point x="421" y="21" type="curve" smooth="yes"/>
      <point x="611" y="21"/>
      <point x="765" y="176"/>
      <point x="765" y="366" type="curve" smooth="yes"/>
      <point x="765" y="556"/>
      <point x="611" y="712"/>
      <point x="421" y="712" type="curve" smooth="yes"/>
      <point x="231" y="712"/>
      <point x="78" y="556"/>
    </contour>
    <contour>
      <point x="424" y="108" type="curve" smooth="yes"/>
      <point x="277" y="108"/>
      <point x="185" y="198"/>
      <point x="185" y="357" type="curve" smooth="yes"/>
      <point x="185" y="483"/>
      <point x="290" y="625"/>
      <point x="445" y="625" type="curve" smooth="yes"/>
      <point x="460" y="625"/>
      <point x="532" y="620"/>
      <point x="563" y="601" type="curve"/>
      <point x="571" y="573"/>
      <point x="581" y="544"/>
      <point x="596" y="516" type="curve"/>
      <point x="580" y="507" type="line"/>
      <point x="547" y="555"/>
      <point x="501" y="597"/>
      <point x="436" y="597" type="curve" smooth="yes"/>
      <point x="345" y="597"/>
      <point x="254" y="514"/>
      <point x="254" y="368" type="curve" smooth="yes"/>
      <point x="254" y="177"/>
      <point x="378" y="133"/>
      <point x="432" y="133" type="curve" smooth="yes"/>
      <point x="499" y="133"/>
      <point x="551" y="165"/>
      <point x="590" y="219" type="curve"/>
      <point x="606" y="212" type="line"/>
      <point x="600" y="201"/>
      <point x="583" y="160"/>
      <point x="578" y="144" type="curve"/>
      <point x="546" y="127"/>
      <point x="501" y="108"/>
    </contour>
  </outline>
</glyph>
<glyph name="ordfeminine" format="1">
  <advance width="355"/>
  <unicode hex="00AA"/>
  <outline>
    <contour>
      <point x="33" y="393" type="curve" smooth="yes"/>
      <point x="35" y="455"/>
      <point x="75" y="477"/>
      <point x="128" y="492" type="curve" smooth="yes"/>
      <point x="163" y="501"/>
      <point x="187" y="505"/>
      <point x="215" y="510" type="curve"/>
      <point x="216" y="541" type="line"/>
      <point x="216" y="579"/>
      <point x="189" y="591"/>
      <point x="123" y="591" type="curve" smooth="yes"/>
      <point x="110" y="591"/>
      <point x="85" y="589"/>
      <point x="70" y="584" type="curve"/>
      <point x="74" y="592"/>
      <point x="81" y="629"/>
      <point x="80" y="642" type="curve"/>
      <point x="94" y="643"/>
      <point x="119" y="643"/>
      <point x="135" y="643" type="curve" smooth="yes"/>
      <point x="197" y="643"/>
      <point x="273" y="637"/>
      <point x="275" y="566" type="curve" smooth="yes"/>
      <point x="275" y="539"/>
      <point x="274" y="496"/>
      <point x="274" y="457" type="curve" smooth="yes"/>
      <point x="274" y="437"/>
      <point x="274" y="418"/>
      <point x="275" y="403" type="curve"/>
      <point x="275" y="369"/>
      <point x="278" y="359"/>
      <point x="304" y="359" type="curve" smooth="yes"/>
      <point x="312" y="359"/>
      <point x="322" y="360"/>
      <point x="334" y="361" type="curve"/>
      <point x="339" y="344" type="line"/>
      <point x="318" y="335"/>
      <point x="292" y="325"/>
      <point x="266" y="319" type="curve" smooth="yes"/>
      <point x="240" y="312"/>
      <point x="220" y="320"/>
      <point x="216" y="350" type="curve"/>
      <point x="191" y="340"/>
      <point x="181" y="331"/>
      <point x="150" y="320" type="curve" smooth="yes"/>
      <point x="140" y="316"/>
      <point x="128" y="313"/>
      <point x="115" y="313" type="curve" smooth="yes"/>
      <point x="100" y="313"/>
      <point x="83" y="317"/>
      <point x="66" y="328" type="curve" smooth="yes"/>
      <point x="43" y="343"/>
      <point x="33" y="369"/>
    </contour>
    <contour>
      <point x="97" y="399" type="curve" smooth="yes"/>
      <point x="100" y="370"/>
      <point x="120" y="360"/>
      <point x="149" y="360" type="curve" smooth="yes"/>
      <point x="170" y="360"/>
      <point x="188" y="367"/>
      <point x="215" y="376" type="curve"/>
      <point x="214" y="390"/>
      <point x="214" y="406"/>
      <point x="214" y="422" type="curve" smooth="yes"/>
      <point x="214" y="444"/>
      <point x="214" y="467"/>
      <point x="215" y="486" type="curve"/>
      <point x="194" y="483"/>
      <point x="181" y="482"/>
      <point x="152" y="472" type="curve"/>
      <point x="109" y="459"/>
      <point x="94" y="431"/>
    </contour>
  </outline>
</glyph>
<glyph name="guillemotleft" format="1">
  <advance width="398"/>
  <unicode hex="00AB"/>
  <outline>
    <contour>
      <point x="38" y="209" type="curve"/>
      <point x="42" y="230" type="line"/>
      <point x="90" y="273"/>
      <point x="136" y="324"/>
      <point x="184" y="395" type="curve"/>
      <point x="204" y="378" type="line"/>
      <point x="171" y="324"/>
      <point x="137" y="268"/>
      <point x="109" y="219" type="curve"/>
      <point x="146" y="158"/>
      <point x="169" y="116"/>
      <point x="201" y="45" type="curve"/>
      <point x="182" y="30" type="line"/>
      <point x="142" y="103"/>
      <point x="84" y="171"/>
    </contour>
    <contour>
      <point x="188" y="209" type="curve"/>
      <point x="192" y="230" type="line"/>
      <point x="240" y="273"/>
      <point x="286" y="324"/>
      <point x="334" y="395" type="curve"/>
      <point x="354" y="378" type="line"/>
      <point x="321" y="324"/>
      <point x="287" y="268"/>
      <point x="259" y="219" type="curve"/>
      <point x="296" y="158"/>
      <point x="319" y="116"/>
      <point x="351" y="45" type="curve"/>
      <point x="332" y="30" type="line"/>
      <point x="292" y="103"/>
      <point x="234" y="171"/>
    </contour>
  </outline>
</glyph>
<glyph name="logicalnot" format="1">
  <advance width="514"/>
  <unicode hex="00AC"/>
  <outline>
    <contour>
      <point x="50" y="270" type="line"/>
      <point x="50" y="305" type="line"/>
      <point x="464" y="305" type="line"/>
      <point x="464" y="125" type="line"/>
      <point x="429" y="125" type="line"/>
      <point x="429" y="270" type="line"/>
    </contour>
  </outline>
</glyph>
<glyph name="macron" format="1">
  <advance width="364"/>
  <unicode hex="00AF"/>
  <outline>
    <contour>
      <point x="293" y="564" type="curve"/>
      <point x="250" y="565"/>
      <point x="206" y="565"/>
      <point x="163" y="565" type="curve" smooth="yes"/>
      <point x="131" y="565"/>
      <point x="100" y="565"/>
      <point x="68" y="564" type="curve"/>
      <point x="74" y="575"/>
      <point x="79" y="603"/>
      <point x="79" y="613" type="curve"/>
      <point x="116" y="611"/>
      <point x="153" y="611"/>
      <point x="191" y="611" type="curve" smooth="yes"/>
      <point x="228" y="611"/>
      <point x="266" y="611"/>
      <point x="304" y="613" type="curve"/>
      <point x="300" y="601"/>
      <point x="294" y="574"/>
    </contour>
  </outline>
</glyph>
<glyph name="degree" format="1">
  <advance width="304"/>
  <unicode hex="00B0"/>
  <outline>
    <contour>
      <point x="21" y="520" type="curve"/>
      <point x="25" y="595"/>
      <point x="84" y="647"/>
      <point x="153" y="647" type="curve" smooth="yes"/>
      <point x="223" y="647"/>
      <point x="283" y="598"/>
      <point x="283" y="520" type="curve"/>
      <point x="281" y="446"/>
      <point x="218" y="394"/>
      <point x="147" y="394" type="curve" smooth="yes"/>
      <point x="79" y="394"/>
      <point x="18" y="443"/>
    </contour>
    <contour>
      <point x="64" y="520" type="curve"/>
      <point x="62" y="471"/>
      <point x="100" y="433"/>
      <point x="149" y="433" type="curve" smooth="yes"/>
      <point x="204" y="433"/>
      <point x="238" y="471"/>
      <point x="240" y="520" type="curve"/>
      <point x="241" y="570"/>
      <point x="202" y="609"/>
      <point x="153" y="609" type="curve" smooth="yes"/>
      <point x="99" y="609"/>
      <point x="65" y="570"/>
    </contour>
  </outline>
</glyph>
<glyph name="plusminus" format="1">
  <advance width="442"/>
  <unicode hex="00B1"/>
  <outline>
    <contour>
      <point x="14" y="69" type="line"/>
      <point x="14" y="104" type="line"/>
      <point x="203" y="104" type="line"/>
      <point x="203" y="270" type="line"/>
      <point x="14" y="270" type="line"/>
      <point x="14" y="305" type="line"/>
      <point x="203" y="305" type="line"/>
      <point x="203" y="473" type="line"/>
      <point x="239" y="473" type="line"/>
      <point x="239" y="305" type="line"/>
      <point x="429" y="305" type="line"/>
      <point x="429" y="270" type="line"/>
      <point x="239" y="270" type="line"/>
      <point x="239" y="104" type="line"/>
      <point x="429" y="104" type="line"/>
      <point x="429" y="69" type="line"/>
    </contour>
  </outline>
</glyph>
<glyph name="acute" format="1">
  <advance width="364"/>
  <unicode hex="00B4"/>
  <outline>
    <contour>
      <point x="132" y="488" type="curve"/>
      <point x="110" y="500" type="line"/>
      <point x="142" y="557"/>
      <point x="167" y="624"/>
      <point x="183" y="678" type="curve"/>
      <point x="199" y="665"/>
      <point x="231" y="646"/>
      <point x="253" y="638" type="curve"/>
      <point x="213" y="595"/>
      <point x="172" y="547"/>
    </contour>
  </outline>
</glyph>
<glyph name="mu" format="1">
  <advance width="624"/>
  <unicode hex="00B5"/>
  <outline>
    <contour>
      <point x="70" y="-245" type="curve"/>
      <point x="62" y="-144"/>
      <point x="58" y="-51"/>
      <point x="58" y="41" type="curve" smooth="yes"/>
      <point x="58" y="175"/>
      <point x="67" y="305"/>
      <point x="84" y="451" type="curve"/>
      <point x="112" y="437"/>
      <point x="124" y="428"/>
      <point x="157" y="421" type="curve"/>
      <point x="148" y="387"/>
      <point x="141" y="324"/>
      <point x="140" y="290" type="curve" smooth="yes"/>
      <point x="138" y="244"/>
      <point x="138" y="175"/>
      <point x="181" y="106" type="curve" smooth="yes"/>
      <point x="199" y="77"/>
      <point x="227" y="57"/>
      <point x="257" y="57" type="curve" smooth="yes"/>
      <point x="275" y="57"/>
      <point x="294" y="64"/>
      <point x="313" y="80" type="curve" smooth="yes"/>
      <point x="342" y="105"/>
      <point x="369" y="145"/>
      <point x="382" y="202" type="curve" smooth="yes"/>
      <point x="403" y="292"/>
      <point x="406" y="401"/>
      <point x="405" y="447" type="curve"/>
      <point x="434" y="432"/>
      <point x="464" y="424"/>
      <point x="491" y="420" type="curve"/>
      <point x="475" y="337"/>
      <point x="463" y="293"/>
      <point x="457" y="228" type="curve" smooth="yes"/>
      <point x="456" y="214"/>
      <point x="455" y="201"/>
      <point x="455" y="189" type="curve" smooth="yes"/>
      <point x="455" y="146"/>
      <point x="464" y="120"/>
      <point x="481" y="96" type="curve" smooth="yes"/>
      <point x="495" y="77"/>
      <point x="509" y="70"/>
      <point x="523" y="70" type="curve" smooth="yes"/>
      <point x="533" y="70"/>
      <point x="543" y="74"/>
      <point x="552" y="80" type="curve" smooth="yes"/>
      <point x="565" y="89"/>
      <point x="580" y="102"/>
      <point x="593" y="120" type="curve"/>
      <point x="613" y="109" type="line"/>
      <point x="588" y="67"/>
      <point x="559" y="28"/>
      <point x="538" y="8" type="curve" smooth="yes"/>
      <point x="525" y="-4"/>
      <point x="511" y="-11"/>
      <point x="497" y="-11" type="curve" smooth="yes"/>
      <point x="487" y="-11"/>
      <point x="477" y="-8"/>
      <point x="466" y="0" type="curve" smooth="yes"/>
      <point x="436" y="23"/>
      <point x="425" y="71"/>
      <point x="428" y="143" type="curve"/>
      <point x="404" y="85"/>
      <point x="364" y="36"/>
      <point x="322" y="6" type="curve" smooth="yes"/>
      <point x="305" y="-6"/>
      <point x="285" y="-13"/>
      <point x="265" y="-13" type="curve" smooth="yes"/>
      <point x="244" y="-13"/>
      <point x="223" y="-5"/>
      <point x="205" y="12" type="curve" smooth="yes"/>
      <point x="167" y="49"/>
      <point x="136" y="108"/>
      <point x="126" y="147" type="curve"/>
      <point x="125" y="120"/>
      <point x="124" y="93"/>
      <point x="124" y="65" type="curve" smooth="yes"/>
      <point x="124" y="-43"/>
      <point x="135" y="-158"/>
      <point x="158" y="-271" type="curve"/>
      <point x="121" y="-253"/>
      <point x="104" y="-247"/>
    </contour>
  </outline>
</glyph>
<glyph name="paragraph" format="1">
  <advance width="500"/>
  <unicode hex="00B6"/>
  <outline>
    <contour>
      <point x="300" y="150" type="curve" smooth="yes"/>
      <point x="305" y="195"/>
      <point x="304" y="250"/>
      <point x="305" y="300" type="curve"/>
      <point x="286" y="286"/>
      <point x="268" y="270"/>
      <point x="254" y="255" type="curve"/>
      <point x="229" y="253"/>
      <point x="201" y="251"/>
      <point x="181" y="252" type="curve" smooth="yes"/>
      <point x="79" y="254"/>
      <point x="27" y="323"/>
      <point x="27" y="411" type="curve" smooth="yes"/>
      <point x="27" y="523"/>
      <point x="105" y="643"/>
      <point x="275" y="643" type="curve" smooth="yes"/>
      <point x="316" y="643"/>
      <point x="365" y="635"/>
      <point x="417" y="635" type="curve" smooth="yes"/>
      <point x="436" y="635"/>
      <point x="456" y="636"/>
      <point x="476" y="639" type="curve"/>
      <point x="480" y="614" type="line"/>
      <point x="425" y="604"/>
      <point x="405" y="592"/>
      <point x="404" y="540" type="curve" smooth="yes"/>
      <point x="403" y="513"/>
      <point x="402" y="453"/>
      <point x="402" y="382" type="curve" smooth="yes"/>
      <point x="402" y="240"/>
      <point x="405" y="55"/>
      <point x="410" y="1" type="curve"/>
      <point x="396" y="2"/>
      <point x="381" y="0"/>
      <point x="368" y="-3" type="curve"/>
      <point x="370" y="57"/>
      <point x="374" y="344"/>
      <point x="374" y="507" type="curve" smooth="yes"/>
      <point x="374" y="552"/>
      <point x="374" y="587"/>
      <point x="373" y="606" type="curve"/>
      <point x="335" y="610" type="line"/>
      <point x="335" y="296"/>
      <point x="336" y="187"/>
      <point x="336" y="139" type="curve" smooth="yes"/>
      <point x="336" y="75"/>
      <point x="331" y="25"/>
      <point x="277" y="7" type="curve" smooth="yes"/>
      <point x="255" y="0"/>
      <point x="225" y="-7"/>
      <point x="196" y="-7" type="curve"/>
      <point x="206" y="13"/>
      <point x="211" y="45"/>
      <point x="210" y="79" type="curve"/>
      <point x="221" y="77"/>
      <point x="233" y="77"/>
      <point x="241" y="78" type="curve" smooth="yes"/>
      <point x="294" y="87"/>
      <point x="296" y="112"/>
    </contour>
  </outline>
</glyph>
<glyph name="periodcentered" format="1">
  <advance width="198"/>
  <unicode hex="00B7"/>
  <outline>
    <contour>
      <point x="97" y="245" type="curve" smooth="yes"/>
      <point x="61" y="245"/>
      <point x="49" y="272"/>
      <point x="49" y="292" type="curve" smooth="yes"/>
      <point x="49" y="318"/>
      <point x="69" y="342"/>
      <point x="100" y="342" type="curve" smooth="yes"/>
      <point x="135" y="342"/>
      <point x="148" y="319"/>
      <point x="148" y="298" type="curve" smooth="yes"/>
      <point x="148" y="272"/>
      <point x="130" y="245"/>
    </contour>
  </outline>
</glyph>
<glyph name="onesuperior" format="1">
  <advance width="293"/>
  <unicode hex="00B9"/>
  <outline>
    <contour>
      <point x="199" y="731" type="curve"/>
      <point x="202" y="720" type="line"/>
      <point x="190" y="709"/>
      <point x="181" y="695"/>
      <point x="180" y="663" type="curve" smooth="yes"/>
      <point x="179" y="632"/>
      <point x="179" y="595"/>
      <point x="179" y="551" type="curve" smooth="yes"/>
      <point x="179" y="519"/>
      <point x="179" y="483"/>
      <point x="180" y="444" type="curve"/>
      <point x="180" y="404"/>
      <point x="183" y="400"/>
      <point x="259" y="388" type="curve"/>
      <point x="255" y="365" type="line"/>
      <point x="222" y="367"/>
      <point x="183" y="369"/>
      <point x="144" y="369" type="curve" smooth="yes"/>
      <point x="105" y="369"/>
      <point x="67" y="367"/>
      <point x="37" y="365" type="curve"/>
      <point x="34" y="388" type="line"/>
      <point x="110" y="396"/>
      <point x="118" y="402"/>
      <point x="120" y="442" type="curve" smooth="yes"/>
      <point x="121" y="472"/>
      <point x="122" y="513"/>
      <point x="122" y="554" type="curve" smooth="yes"/>
      <point x="122" y="604"/>
      <point x="121" y="655"/>
      <point x="120" y="686" type="curve"/>
      <point x="97" y="680"/>
      <point x="66" y="667"/>
      <point x="38" y="648" type="curve"/>
      <point x="40" y="658"/>
      <point x="42" y="680"/>
      <point x="42" y="686" type="curve"/>
      <point x="98" y="709"/>
      <point x="134" y="723"/>
    </contour>
  </outline>
</glyph>
<glyph name="ordmasculine" format="1">
  <advance width="400"/>
  <unicode hex="00BA"/>
  <outline>
    <contour>
      <point x="194" y="313" type="curve" smooth="yes"/>
      <point x="87" y="313"/>
      <point x="39" y="395"/>
      <point x="39" y="465" type="curve" smooth="yes"/>
      <point x="39" y="506"/>
      <point x="50" y="562"/>
      <point x="90" y="592" type="curve" smooth="yes"/>
      <point x="115" y="611"/>
      <point x="153" y="631"/>
      <point x="175" y="639" type="curve" smooth="yes"/>
      <point x="187" y="643"/>
      <point x="200" y="643"/>
      <point x="212" y="643" type="curve" smooth="yes"/>
      <point x="305" y="643"/>
      <point x="356" y="567"/>
      <point x="356" y="496" type="curve" smooth="yes"/>
      <point x="356" y="445"/>
      <point x="340" y="395"/>
      <point x="316" y="369" type="curve"/>
      <point x="294" y="347"/>
      <point x="233" y="313"/>
    </contour>
    <contour>
      <point x="108" y="479" type="curve" smooth="yes"/>
      <point x="108" y="406"/>
      <point x="140" y="353"/>
      <point x="215" y="353" type="curve" smooth="yes"/>
      <point x="235" y="353"/>
      <point x="289" y="361"/>
      <point x="289" y="485" type="curve" smooth="yes"/>
      <point x="289" y="557"/>
      <point x="247" y="606"/>
      <point x="187" y="606" type="curve" smooth="yes"/>
      <point x="150" y="606"/>
      <point x="108" y="573"/>
    </contour>
  </outline>
</glyph>
<glyph name="guillemotright" format="1">
  <advance width="398"/>
  <unicode hex="00BB"/>
  <outline>
    <contour>
      <point x="209" y="221" type="curve"/>
      <point x="205" y="200" type="line"/>
      <point x="157" y="157"/>
      <point x="111" y="106"/>
      <point x="63" y="35" type="curve"/>
      <point x="43" y="52" type="line"/>
      <point x="76" y="106"/>
      <point x="110" y="162"/>
      <point x="138" y="211" type="curve"/>
      <point x="101" y="272"/>
      <point x="78" y="314"/>
      <point x="46" y="385" type="curve"/>
      <point x="65" y="400" type="line"/>
      <point x="105" y="327"/>
      <point x="163" y="259"/>
    </contour>
    <contour>
      <point x="360" y="221" type="curve"/>
      <point x="356" y="200" type="line"/>
      <point x="308" y="157"/>
      <point x="262" y="106"/>
      <point x="214" y="35" type="curve"/>
      <point x="194" y="52" type="line"/>
      <point x="227" y="106"/>
      <point x="261" y="162"/>
      <point x="289" y="211" type="curve"/>
      <point x="252" y="272"/>
      <point x="229" y="314"/>
      <point x="197" y="385" type="curve"/>
      <point x="216" y="400" type="line"/>
      <point x="256" y="327"/>
      <point x="314" y="259"/>
    </contour>
  </outline>
</glyph>
<glyph name="onequarter" format="1">
  <advance width="688"/>
  <unicode hex="00BC"/>
  <outline>
    <contour>
      <point x="199" y="654" type="curve"/>
      <point x="202" y="643" type="line"/>
      <point x="190" y="632"/>
      <point x="181" y="618"/>
      <point x="180" y="586" type="curve" smooth="yes"/>
      <point x="179" y="555"/>
      <point x="179" y="518"/>
      <point x="179" y="474" type="curve" smooth="yes"/>
      <point x="179" y="442"/>
      <point x="179" y="406"/>
      <point x="180" y="367" type="curve"/>
      <point x="180" y="327"/>
      <point x="183" y="323"/>
      <point x="259" y="311" type="curve"/>
      <point x="255" y="288" type="line"/>
      <point x="222" y="290"/>
      <point x="183" y="292"/>
      <point x="144" y="292" type="curve" smooth="yes"/>
      <point x="105" y="292"/>
      <point x="67" y="290"/>
      <point x="37" y="288" type="curve"/>
      <point x="34" y="311" type="line"/>
      <point x="110" y="319"/>
      <point x="118" y="325"/>
      <point x="120" y="365" type="curve" smooth="yes"/>
      <point x="121" y="395"/>
      <point x="122" y="436"/>
      <point x="122" y="477" type="curve" smooth="yes"/>
      <point x="122" y="527"/>
      <point x="121" y="578"/>
      <point x="120" y="609" type="curve"/>
      <point x="97" y="603"/>
      <point x="66" y="590"/>
      <point x="38" y="571" type="curve"/>
      <point x="40" y="581"/>
      <point x="42" y="603"/>
      <point x="42" y="609" type="curve"/>
      <point x="98" y="632"/>
      <point x="134" y="646"/>
    </contour>
    <contour>
      <point x="583" y="653" type="curve"/>
      <point x="605" y="637" type="line"/>
      <point x="474" y="468"/>
      <point x="234" y="155"/>
      <point x="106" y="-17" type="curve"/>
      <point x="83" y="-1" type="line"/>
      <point x="214" y="169"/>
      <point x="454" y="482"/>
    </contour>
    <contour>
      <point x="535" y="-35" type="curve"/>
      <point x="545" y="15"/>
      <point x="548" y="55"/>
      <point x="549" y="96" type="curve"/>
      <point x="537" y="97"/>
      <point x="525" y="97"/>
      <point x="512" y="97" type="curve" smooth="yes"/>
      <point x="477" y="97"/>
      <point x="440" y="95"/>
      <point x="407" y="92" type="curve"/>
      <point x="395" y="109" type="line"/>
      <point x="470" y="191"/>
      <point x="535" y="272"/>
      <point x="594" y="368" type="curve"/>
      <point x="616" y="359" type="line"/>
      <point x="611" y="326"/>
      <point x="609" y="246"/>
      <point x="609" y="191" type="curve" smooth="yes"/>
      <point x="609" y="168"/>
      <point x="609" y="150"/>
      <point x="610" y="141" type="curve"/>
      <point x="640" y="141"/>
      <point x="655" y="144"/>
      <point x="688" y="151" type="curve"/>
      <point x="675" y="132"/>
      <point x="663" y="102"/>
      <point x="660" y="89" type="curve"/>
      <point x="640" y="93"/>
      <point x="629" y="94"/>
      <point x="607" y="95" type="curve"/>
      <point x="606" y="70"/>
      <point x="611" y="19"/>
      <point x="615" y="3" type="curve"/>
      <point x="591" y="-4"/>
      <point x="561" y="-17"/>
    </contour>
    <contour>
      <point x="553" y="259" type="curve"/>
      <point x="526" y="221"/>
      <point x="492" y="182"/>
      <point x="455" y="139" type="curve"/>
      <point x="481" y="140"/>
      <point x="520" y="144"/>
      <point x="550" y="142" type="curve"/>
      <point x="550" y="158"/>
      <point x="551" y="171"/>
      <point x="551" y="183" type="curve" smooth="yes"/>
      <point x="551" y="195"/>
      <point x="550" y="206"/>
      <point x="550" y="218" type="curve" smooth="yes"/>
      <point x="550" y="229"/>
      <point x="552" y="250"/>
    </contour>
  </outline>
</glyph>
<glyph name="onehalf" format="1">
  <advance width="688"/>
  <unicode hex="00BD"/>
  <outline>
    <contour>
      <point x="199" y="654" type="curve"/>
      <point x="202" y="643" type="line"/>
      <point x="190" y="632"/>
      <point x="181" y="618"/>
      <point x="180" y="586" type="curve" smooth="yes"/>
      <point x="179" y="555"/>
      <point x="179" y="518"/>
      <point x="179" y="474" type="curve" smooth="yes"/>
      <point x="179" y="442"/>
      <point x="179" y="406"/>
      <point x="180" y="367" type="curve"/>
      <point x="180" y="327"/>
      <point x="183" y="323"/>
      <point x="259" y="311" type="curve"/>
      <point x="255" y="288" type="line"/>
      <point x="222" y="290"/>
      <point x="183" y="292"/>
      <point x="144" y="292" type="curve" smooth="yes"/>
      <point x="105" y="292"/>
      <point x="67" y="290"/>
      <point x="37" y="288" type="curve"/>
      <point x="34" y="311" type="line"/>
      <point x="110" y="319"/>
      <point x="118" y="325"/>
      <point x="120" y="365" type="curve" smooth="yes"/>
      <point x="121" y="395"/>
      <point x="122" y="436"/>
      <point x="122" y="477" type="curve" smooth="yes"/>
      <point x="122" y="527"/>
      <point x="121" y="578"/>
      <point x="120" y="609" type="curve"/>
      <point x="97" y="603"/>
      <point x="66" y="590"/>
      <point x="38" y="571" type="curve"/>
      <point x="40" y="581"/>
      <point x="42" y="603"/>
      <point x="42" y="609" type="curve"/>
      <point x="98" y="632"/>
      <point x="134" y="646"/>
    </contour>
    <contour>
      <point x="583" y="653" type="curve"/>
      <point x="605" y="637" type="line"/>
      <point x="474" y="468"/>
      <point x="234" y="155"/>
      <point x="106" y="-17" type="curve"/>
      <point x="83" y="-1" type="line"/>
      <point x="214" y="169"/>
      <point x="454" y="482"/>
    </contour>
    <contour>
      <point x="625" y="-1" type="curve"/>
      <point x="594" y="1"/>
      <point x="565" y="1"/>
      <point x="538" y="1" type="curve" smooth="yes"/>
      <point x="494" y="1"/>
      <point x="455" y="0"/>
      <point x="416" y="-1" type="curve"/>
      <point x="423" y="12"/>
      <point x="425" y="46"/>
      <point x="427" y="62" type="curve"/>
      <point x="463" y="86"/>
      <point x="497" y="116"/>
      <point x="525" y="149" type="curve" smooth="yes"/>
      <point x="554" y="182"/>
      <point x="567" y="210"/>
      <point x="567" y="252" type="curve" smooth="yes"/>
      <point x="567" y="282"/>
      <point x="542" y="303"/>
      <point x="504" y="303" type="curve" smooth="yes"/>
      <point x="486" y="303"/>
      <point x="463" y="300"/>
      <point x="443" y="294" type="curve"/>
      <point x="450" y="310"/>
      <point x="453" y="340"/>
      <point x="455" y="358" type="curve"/>
      <point x="464" y="360"/>
      <point x="495" y="361"/>
      <point x="507" y="361" type="curve" smooth="yes"/>
      <point x="569" y="361"/>
      <point x="623" y="345"/>
      <point x="623" y="274" type="curve" smooth="yes"/>
      <point x="623" y="224"/>
      <point x="592" y="186"/>
      <point x="555" y="145" type="curve" smooth="yes"/>
      <point x="525" y="111"/>
      <point x="509" y="96"/>
      <point x="478" y="63" type="curve"/>
      <point x="496" y="62"/>
      <point x="564" y="61"/>
      <point x="582" y="62" type="curve" smooth="yes"/>
      <point x="610" y="65"/>
      <point x="623" y="73"/>
      <point x="636" y="112" type="curve"/>
      <point x="650" y="108" type="line"/>
      <point x="635" y="71"/>
      <point x="629" y="31"/>
    </contour>
  </outline>
</glyph>
<glyph name="threequarters" format="1">
  <advance width="688"/>
  <unicode hex="00BE"/>
  <outline>
    <contour>
      <point x="188" y="305" type="curve" smooth="yes"/>
      <point x="169" y="287"/>
      <point x="151" y="282"/>
      <point x="129" y="282" type="curve" smooth="yes"/>
      <point x="119" y="282"/>
      <point x="108" y="283"/>
      <point x="95" y="285" type="curve" smooth="yes"/>
      <point x="73" y="288"/>
      <point x="52" y="298"/>
      <point x="28" y="302" type="curve"/>
      <point x="41" y="318"/>
      <point x="52" y="346"/>
      <point x="58" y="364" type="curve"/>
      <point x="84" y="349"/>
      <point x="106" y="342"/>
      <point x="139" y="338" type="curve" smooth="yes"/>
      <point x="164" y="334"/>
      <point x="182" y="339"/>
      <point x="192" y="355" type="curve" smooth="yes"/>
      <point x="198" y="365"/>
      <point x="201" y="374"/>
      <point x="201" y="384" type="curve" smooth="yes"/>
      <point x="201" y="413"/>
      <point x="175" y="442"/>
      <point x="130" y="462" type="curve" smooth="yes"/>
      <point x="111" y="471"/>
      <point x="88" y="476"/>
      <point x="76" y="476" type="curve"/>
      <point x="75" y="492" type="line"/>
      <point x="111" y="499"/>
      <point x="159" y="526"/>
      <point x="159" y="559" type="curve" smooth="yes"/>
      <point x="159" y="584"/>
      <point x="135" y="598"/>
      <point x="102" y="598" type="curve" smooth="yes"/>
      <point x="97" y="598"/>
      <point x="74" y="598"/>
      <point x="58" y="594" type="curve"/>
      <point x="65" y="610"/>
      <point x="67" y="636"/>
      <point x="67" y="648" type="curve"/>
      <point x="74" y="649"/>
      <point x="97" y="651"/>
      <point x="107" y="651" type="curve" smooth="yes"/>
      <point x="165" y="652"/>
      <point x="207" y="636"/>
      <point x="207" y="578" type="curve" smooth="yes"/>
      <point x="207" y="556"/>
      <point x="186" y="527"/>
      <point x="156" y="508" type="curve"/>
      <point x="176" y="503"/>
      <point x="206" y="489"/>
      <point x="221" y="467" type="curve" smooth="yes"/>
      <point x="232" y="451"/>
      <point x="237" y="434"/>
      <point x="237" y="416" type="curve" smooth="yes"/>
      <point x="237" y="400"/>
      <point x="233" y="384"/>
      <point x="227" y="368" type="curve" smooth="yes"/>
      <point x="219" y="347"/>
      <point x="205" y="322"/>
    </contour>
    <contour>
      <point x="583" y="653" type="curve"/>
      <point x="605" y="637" type="line"/>
      <point x="474" y="468"/>
      <point x="234" y="155"/>
      <point x="106" y="-17" type="curve"/>
      <point x="83" y="-1" type="line"/>
      <point x="214" y="169"/>
      <point x="454" y="482"/>
    </contour>
    <contour>
      <point x="535" y="-35" type="curve"/>
      <point x="545" y="15"/>
      <point x="548" y="55"/>
      <point x="549" y="96" type="curve"/>
      <point x="537" y="97"/>
      <point x="525" y="97"/>
      <point x="512" y="97" type="curve" smooth="yes"/>
      <point x="477" y="97"/>
      <point x="440" y="95"/>
      <point x="407" y="92" type="curve"/>
      <point x="395" y="109" type="line"/>
      <point x="470" y="191"/>
      <point x="535" y="272"/>
      <point x="594" y="368" type="curve"/>
      <point x="616" y="359" type="line"/>
      <point x="611" y="326"/>
      <point x="609" y="246"/>
      <point x="609" y="191" type="curve" smooth="yes"/>
      <point x="609" y="168"/>
      <point x="609" y="150"/>
      <point x="610" y="141" type="curve"/>
      <point x="640" y="141"/>
      <point x="655" y="144"/>
      <point x="688" y="151" type="curve"/>
      <point x="675" y="132"/>
      <point x="663" y="102"/>
      <point x="660" y="89" type="curve"/>
      <point x="640" y="93"/>
      <point x="629" y="94"/>
      <point x="607" y="95" type="curve"/>
      <point x="606" y="70"/>
      <point x="611" y="19"/>
      <point x="615" y="3" type="curve"/>
      <point x="591" y="-4"/>
      <point x="561" y="-17"/>
    </contour>
    <contour>
      <point x="553" y="259" type="curve"/>
      <point x="526" y="221"/>
      <point x="492" y="182"/>
      <point x="455" y="139" type="curve"/>
      <point x="481" y="140"/>
      <point x="520" y="144"/>
      <point x="550" y="142" type="curve"/>
      <point x="550" y="158"/>
      <point x="551" y="171"/>
      <point x="551" y="183" type="curve" smooth="yes"/>
      <point x="551" y="195"/>
      <point x="550" y="206"/>
      <point x="550" y="218" type="curve" smooth="yes"/>
      <point x="550" y="229"/>
      <point x="552" y="250"/>
    </contour>
  </outline>
</glyph>
<glyph name="questiondown" format="1">
  <advance width="352"/>
  <unicode hex="00BF"/>
  <outline>
    <contour>
      <point x="237" y="264" type="curve"/>
      <point x="267" y="264" type="line"/>
      <point x="266" y="232"/>
      <point x="265" y="203"/>
      <point x="265" y="177" type="curve" smooth="yes"/>
      <point x="265" y="147"/>
      <point x="266" y="119"/>
      <point x="268" y="87" type="curve"/>
      <point x="235" y="97"/>
      <point x="213" y="98"/>
      <point x="194" y="100" type="curve" smooth="yes"/>
      <point x="109" y="106"/>
      <point x="77" y="71"/>
      <point x="68" y="15" type="curve" smooth="yes"/>
      <point x="58" y="-52"/>
      <point x="97" y="-95"/>
      <point x="154" y="-113" type="curve"/>
      <point x="198" y="-128"/>
      <point x="241" y="-134"/>
      <point x="328" y="-135" type="curve"/>
      <point x="321" y="-165"/>
      <point x="315" y="-198"/>
      <point x="315" y="-229" type="curve"/>
      <point x="269" y="-211"/>
      <point x="217" y="-206"/>
      <point x="168" y="-195" type="curve" smooth="yes"/>
      <point x="80" y="-175"/>
      <point x="32" y="-129"/>
      <point x="31" y="-38" type="curve" smooth="yes"/>
      <point x="30" y="-11"/>
      <point x="42" y="55"/>
      <point x="51" y="77" type="curve" smooth="yes"/>
      <point x="72" y="129"/>
      <point x="102" y="170"/>
      <point x="168" y="172" type="curve" smooth="yes"/>
      <point x="192" y="172"/>
      <point x="213" y="171"/>
      <point x="234" y="167" type="curve"/>
      <point x="237" y="204"/>
      <point x="237" y="231"/>
    </contour>
    <contour>
      <point x="254" y="441" type="curve" smooth="yes"/>
      <point x="290" y="441"/>
      <point x="302" y="414"/>
      <point x="302" y="394" type="curve" smooth="yes"/>
      <point x="302" y="368"/>
      <point x="282" y="344"/>
      <point x="251" y="344" type="curve" smooth="yes"/>
      <point x="216" y="344"/>
      <point x="203" y="367"/>
      <point x="203" y="388" type="curve" smooth="yes"/>
      <point x="203" y="414"/>
      <point x="221" y="441"/>
    </contour>
  </outline>
</glyph>
<glyph name="Aring" format="1">
  <advance width="732"/>
  <unicode hex="00C5"/>
  <outline>
    <contour>
      <point x="439" y="-3" type="curve"/>
      <point x="436" y="23" type="line"/>
      <point x="509" y="39"/>
      <point x="519" y="51"/>
      <point x="513" y="88" type="curve" smooth="yes"/>
      <point x="511" y="102"/>
      <point x="480" y="200"/>
      <point x="470" y="221" type="curve"/>
      <point x="432" y="216"/>
      <point x="396" y="214"/>
      <point x="360" y="214" type="curve" smooth="yes"/>
      <point x="318" y="214"/>
      <point x="276" y="217"/>
      <point x="234" y="222" type="curve"/>
      <point x="218" y="184"/>
      <point x="192" y="100"/>
      <point x="190" y="82" type="curve" smooth="yes"/>
      <point x="186" y="47"/>
      <point x="194" y="37"/>
      <point x="258" y="23" type="curve"/>
      <point x="255" y="-3" type="line"/>
      <point x="221" y="1"/>
      <point x="182" y="3"/>
      <point x="142" y="3" type="curve" smooth="yes"/>
      <point x="102" y="3"/>
      <point x="62" y="1"/>
      <point x="28" y="-3" type="curve"/>
      <point x="25" y="16"/>
      <point x="24" y="20"/>
      <point x="23" y="21" type="curve"/>
      <point x="99" y="37"/>
      <point x="108" y="47"/>
      <point x="135" y="99" type="curve" smooth="yes"/>
      <point x="189" y="202"/>
      <point x="262" y="379"/>
      <point x="311" y="516" type="curve" smooth="yes"/>
      <point x="317" y="533"/>
      <point x="320" y="550"/>
      <point x="320" y="568" type="curve" smooth="yes"/>
      <point x="320" y="589"/>
      <point x="316" y="611"/>
      <point x="310" y="629" type="curve"/>
      <point x="342" y="635"/>
      <point x="368" y="639"/>
      <point x="398" y="652" type="curve"/>
      <point x="401" y="637"/>
      <point x="407" y="607"/>
      <point x="421" y="569" type="curve" smooth="yes"/>
      <point x="468" y="437"/>
      <point x="566" y="200"/>
      <point x="609" y="111" type="curve" smooth="yes"/>
      <point x="636" y="54"/>
      <point x="641" y="43"/>
      <point x="709" y="23" type="curve"/>
      <point x="705" y="-4" type="line"/>
      <point x="666" y="1"/>
      <point x="621" y="4"/>
      <point x="575" y="4" type="curve" smooth="yes"/>
      <point x="527" y="4"/>
      <point x="479" y="1"/>
    </contour>
    <contour>
      <point x="247" y="257" type="curve"/>
      <point x="286" y="249"/>
      <point x="319" y="245"/>
      <point x="351" y="245" type="curve" smooth="yes"/>
      <point x="384" y="245"/>
      <point x="417" y="249"/>
      <point x="457" y="257" type="curve"/>
      <point x="410" y="378"/>
      <point x="398" y="413"/>
      <point x="350" y="526" type="curve"/>
      <point x="313" y="435"/>
      <point x="286" y="357"/>
    </contour>
    <contour>
      <point x="292" y="749" type="curve" smooth="yes"/>
      <point x="293" y="790"/>
      <point x="327" y="819"/>
      <point x="365" y="819" type="curve" smooth="yes"/>
      <point x="404" y="819"/>
      <point x="437" y="792"/>
      <point x="437" y="749" type="curve"/>
      <point x="436" y="708"/>
      <point x="401" y="679"/>
      <point x="362" y="679" type="curve" smooth="yes"/>
      <point x="323" y="679"/>
      <point x="290" y="706"/>
    </contour>
    <contour>
      <point x="322" y="749" type="curve"/>
      <point x="321" y="726"/>
      <point x="339" y="708"/>
      <point x="362" y="708" type="curve" smooth="yes"/>
      <point x="388" y="708"/>
      <point x="405" y="726"/>
      <point x="406" y="749" type="curve"/>
      <point x="406" y="773"/>
      <point x="388" y="791"/>
      <point x="364" y="791" type="curve" smooth="yes"/>
      <point x="339" y="791"/>
      <point x="322" y="773"/>
    </contour>
  </outline>
</glyph>
<glyph name="AE" format="1">
  <advance width="916"/>
  <unicode hex="00C6"/>
  <outline>
    <contour>
      <point x="849" y="-8" type="curve"/>
      <point x="743" y="3"/>
      <point x="640" y="3"/>
      <point x="504" y="3" type="curve" smooth="yes"/>
      <point x="474" y="3" type="line" smooth="yes"/>
      <point x="442" y="3"/>
      <point x="419" y="2"/>
      <point x="375" y="-3" type="curve"/>
      <point x="370" y="23" type="line"/>
      <point x="442" y="37"/>
      <point x="465" y="45"/>
      <point x="470" y="96" type="curve" smooth="yes"/>
      <point x="471" y="112"/>
      <point x="473" y="162"/>
      <point x="474" y="207" type="curve"/>
      <point x="448" y="206"/>
      <point x="418" y="205"/>
      <point x="388" y="205" type="curve" smooth="yes"/>
      <point x="336" y="205"/>
      <point x="281" y="207"/>
      <point x="239" y="210" type="curve"/>
      <point x="215" y="172"/>
      <point x="173" y="102"/>
      <point x="166" y="82" type="curve" smooth="yes"/>
      <point x="155" y="47"/>
      <point x="186" y="32"/>
      <point x="231" y="23" type="curve"/>
      <point x="226" y="-3" type="line"/>
      <point x="193" y="1"/>
      <point x="157" y="3"/>
      <point x="120" y="3" type="curve" smooth="yes"/>
      <point x="83" y="3"/>
      <point x="45" y="1"/>
      <point x="11" y="-3" type="curve"/>
      <point x="8" y="21" type="line"/>
      <point x="48" y="27"/>
      <point x="75" y="47"/>
      <point x="115" y="99" type="curve" smooth="yes"/>
      <point x="194" y="201"/>
      <point x="358" y="448"/>
      <point x="441" y="590" type="curve"/>
      <point x="424" y="602"/>
      <point x="400" y="609"/>
      <point x="372" y="614" type="curve"/>
      <point x="378" y="639" type="line"/>
      <point x="409" y="634"/>
      <point x="438" y="633"/>
      <point x="470" y="633" type="curve" smooth="yes"/>
      <point x="520" y="633" type="line" smooth="yes"/>
      <point x="615" y="633"/>
      <point x="752" y="634"/>
      <point x="813" y="646" type="curve"/>
      <point x="821" y="608"/>
      <point x="850" y="534"/>
      <point x="866" y="496" type="curve"/>
      <point x="837" y="486" type="line"/>
      <point x="791" y="588"/>
      <point x="735" y="598"/>
      <point x="667" y="600" type="curve" smooth="yes"/>
      <point x="638" y="600"/>
      <point x="590" y="599"/>
      <point x="557" y="595" type="curve"/>
      <point x="553" y="579"/>
      <point x="553" y="502"/>
      <point x="553" y="429" type="curve" smooth="yes"/>
      <point x="553" y="348" type="line"/>
      <point x="625" y="346"/>
      <point x="710" y="356"/>
      <point x="778" y="380" type="curve"/>
      <point x="765" y="351"/>
      <point x="759" y="315"/>
      <point x="756" y="282" type="curve"/>
      <point x="703" y="300"/>
      <point x="646" y="314"/>
      <point x="553" y="315" type="curve"/>
      <point x="553" y="222" type="line" smooth="yes"/>
      <point x="553" y="164"/>
      <point x="553" y="93"/>
      <point x="556" y="50" type="curve"/>
      <point x="592" y="38"/>
      <point x="637" y="35"/>
      <point x="684" y="35" type="curve" smooth="yes"/>
      <point x="780" y="35"/>
      <point x="833" y="65"/>
      <point x="877" y="155" type="curve"/>
      <point x="903" y="145" type="line"/>
      <point x="881" y="94"/>
      <point x="861" y="43"/>
    </contour>
    <contour>
      <point x="264" y="247" type="curve"/>
      <point x="306" y="241"/>
      <point x="337" y="239"/>
      <point x="373" y="239" type="curve" smooth="yes"/>
      <point x="402" y="239"/>
      <point x="433" y="240"/>
      <point x="474" y="244" type="curve"/>
      <point x="474" y="328" type="line" smooth="yes"/>
      <point x="474" y="405"/>
      <point x="473" y="480"/>
      <point x="472" y="531" type="curve" smooth="yes"/>
      <point x="471" y="546"/>
      <point x="470" y="554"/>
      <point x="465" y="564" type="curve"/>
      <point x="401" y="466"/>
      <point x="320" y="335"/>
    </contour>
  </outline>
</glyph>
<glyph name="Ccedilla" format="1">
  <advance width="624"/>
  <unicode hex="00C7"/>
  <outline>
    <contour>
      <point x="315" y="-239" type="curve"/>
      <point x="296" y="-221" type="line"/>
      <point x="316" y="-201"/>
      <point x="327" y="-185"/>
      <point x="335" y="-170" type="curve"/>
      <point x="350" y="-146"/>
      <point x="343" y="-124"/>
      <point x="283" y="-95" type="curve"/>
      <point x="298" y="-66"/>
      <point x="310" y="-41"/>
      <point x="320" y="-14" type="curve"/>
      <point x="181" y="-2"/>
      <point x="77" y="90"/>
      <point x="51" y="220" type="curve" smooth="yes"/>
      <point x="46" y="245"/>
      <point x="44" y="271"/>
      <point x="44" y="297" type="curve" smooth="yes"/>
      <point x="44" y="335"/>
      <point x="49" y="373"/>
      <point x="60" y="410" type="curve" smooth="yes"/>
      <point x="99" y="550"/>
      <point x="234" y="650"/>
      <point x="364" y="650" type="curve" smooth="yes"/>
      <point x="413" y="650"/>
      <point x="485" y="635"/>
      <point x="528" y="625" type="curve"/>
      <point x="539" y="588"/>
      <point x="551" y="546"/>
      <point x="570" y="511" type="curve"/>
      <point x="550" y="499" type="line"/>
      <point x="507" y="561"/>
      <point x="444" y="615"/>
      <point x="359" y="615" type="curve" smooth="yes"/>
      <point x="292" y="615"/>
      <point x="180" y="568"/>
      <point x="139" y="401" type="curve" smooth="yes"/>
      <point x="131" y="369"/>
      <point x="128" y="337"/>
      <point x="128" y="305" type="curve" smooth="yes"/>
      <point x="128" y="277"/>
      <point x="130" y="250"/>
      <point x="135" y="223" type="curve" smooth="yes"/>
      <point x="161" y="82"/>
      <point x="270" y="18"/>
      <point x="359" y="18" type="curve" smooth="yes"/>
      <point x="431" y="18"/>
      <point x="512" y="57"/>
      <point x="562" y="127" type="curve"/>
      <point x="583" y="118" type="line"/>
      <point x="575" y="105"/>
      <point x="553" y="48"/>
      <point x="546" y="28" type="curve"/>
      <point x="506" y="10"/>
      <point x="434" y="-16"/>
      <point x="353" y="-16" type="curve" smooth="yes"/>
      <point x="351" y="-16" type="line"/>
      <point x="345" y="-29"/>
      <point x="340" y="-43"/>
      <point x="338" y="-53" type="curve"/>
      <point x="355" y="-61"/>
      <point x="368" y="-67"/>
      <point x="379" y="-76" type="curve" smooth="yes"/>
      <point x="393" y="-88"/>
      <point x="400" y="-102"/>
      <point x="400" y="-118" type="curve" smooth="yes"/>
      <point x="400" y="-132"/>
      <point x="394" y="-148"/>
      <point x="384" y="-163" type="curve" smooth="yes"/>
      <point x="365" y="-191"/>
      <point x="340" y="-216"/>
    </contour>
  </outline>
</glyph>
<glyph name="Ecircumflex" format="1">
  <advance width="569"/>
  <unicode hex="00CA"/>
  <outline>
    <contour>
      <point x="502" y="-8" type="curve"/>
      <point x="395" y="3"/>
      <point x="293" y="3"/>
      <point x="156" y="3" type="curve" smooth="yes"/>
      <point x="127" y="3" type="line" smooth="yes"/>
      <point x="96" y="3"/>
      <point x="71" y="2"/>
      <point x="27" y="-3" type="curve"/>
      <point x="23" y="23" type="line"/>
      <point x="95" y="37"/>
      <point x="117" y="40"/>
      <point x="123" y="92" type="curve" smooth="yes"/>
      <point x="126" y="122"/>
      <point x="127" y="225"/>
      <point x="127" y="328" type="curve" smooth="yes"/>
      <point x="127" y="408"/>
      <point x="126" y="489"/>
      <point x="125" y="537" type="curve" smooth="yes"/>
      <point x="123" y="595"/>
      <point x="83" y="605"/>
      <point x="25" y="615" type="curve"/>
      <point x="31" y="640" type="line"/>
      <point x="58" y="635"/>
      <point x="83" y="634"/>
      <point x="109" y="634" type="curve" smooth="yes"/>
      <point x="129" y="634"/>
      <point x="150" y="635"/>
      <point x="173" y="635" type="curve" smooth="yes"/>
      <point x="228" y="635"/>
      <point x="315" y="635"/>
      <point x="375" y="636" type="curve" smooth="yes"/>
      <point x="419" y="637"/>
      <point x="447" y="641"/>
      <point x="461" y="648" type="curve"/>
      <point x="470" y="607"/>
      <point x="497" y="532"/>
      <point x="515" y="498" type="curve"/>
      <point x="487" y="488" type="line"/>
      <point x="435" y="588"/>
      <point x="378" y="598"/>
      <point x="334" y="600" type="curve" smooth="yes"/>
      <point x="326" y="601"/>
      <point x="316" y="601"/>
      <point x="305" y="601" type="curve" smooth="yes"/>
      <point x="274" y="601"/>
      <point x="234" y="599"/>
      <point x="210" y="596" type="curve"/>
      <point x="205" y="573"/>
      <point x="205" y="431"/>
      <point x="205" y="348" type="curve"/>
      <point x="277" y="346"/>
      <point x="363" y="356"/>
      <point x="431" y="380" type="curve"/>
      <point x="418" y="351"/>
      <point x="412" y="315"/>
      <point x="409" y="282" type="curve"/>
      <point x="355" y="300"/>
      <point x="299" y="314"/>
      <point x="205" y="315" type="curve"/>
      <point x="205" y="268" type="line" smooth="yes"/>
      <point x="205" y="207"/>
      <point x="205" y="105"/>
      <point x="209" y="50" type="curve"/>
      <point x="245" y="38"/>
      <point x="290" y="35"/>
      <point x="336" y="35" type="curve" smooth="yes"/>
      <point x="433" y="35"/>
      <point x="469" y="51"/>
      <point x="530" y="155" type="curve"/>
      <point x="555" y="145" type="line"/>
      <point x="534" y="94"/>
      <point x="514" y="43"/>
    </contour>
    <contour>
      <point x="412" y="698" type="curve"/>
      <point x="395" y="682" type="line"/>
      <point x="362" y="707"/>
      <point x="331" y="725"/>
      <point x="299" y="742" type="curve"/>
      <point x="261" y="724"/>
      <point x="231" y="706"/>
      <point x="196" y="682" type="curve"/>
      <point x="181" y="698" type="line"/>
      <point x="229" y="742"/>
      <point x="269" y="780"/>
      <point x="300" y="822" type="curve"/>
      <point x="334" y="777"/>
      <point x="375" y="733"/>
    </contour>
  </outline>
</glyph>
<glyph name="Idieresis" format="1">
  <advance width="313"/>
  <unicode hex="00CF"/>
  <outline>
    <contour>
      <point x="25" y="639" type="line"/>
      <point x="74" y="634"/>
      <point x="116" y="631"/>
      <point x="157" y="631" type="curve" smooth="yes"/>
      <point x="198" y="631"/>
      <point x="240" y="634"/>
      <point x="289" y="639" type="curve"/>
      <point x="293" y="614" type="line"/>
      <point x="212" y="598"/>
      <point x="204" y="590"/>
      <point x="201" y="539" type="curve" smooth="yes"/>
      <point x="198" y="493"/>
      <point x="197" y="427"/>
      <point x="197" y="356" type="curve" smooth="yes"/>
      <point x="197" y="270"/>
      <point x="199" y="177"/>
      <point x="201" y="104" type="curve" smooth="yes"/>
      <point x="203" y="48"/>
      <point x="214" y="45"/>
      <point x="293" y="23" type="curve"/>
      <point x="287" y="-3" type="line"/>
      <point x="238" y="1"/>
      <point x="197" y="3"/>
      <point x="156" y="3" type="curve" smooth="yes"/>
      <point x="115" y="3"/>
      <point x="74" y="1"/>
      <point x="25" y="-3" type="curve"/>
      <point x="20" y="23" type="line"/>
      <point x="106" y="44"/>
      <point x="115" y="51"/>
      <point x="117" y="103" type="curve" smooth="yes"/>
      <point x="120" y="165"/>
      <point x="122" y="234"/>
      <point x="122" y="302" type="curve" smooth="yes"/>
      <point x="122" y="383"/>
      <point x="120" y="464"/>
      <point x="117" y="538" type="curve" smooth="yes"/>
      <point x="115" y="589"/>
      <point x="92" y="600"/>
      <point x="20" y="614" type="curve"/>
    </contour>
    <contour>
      <point x="81" y="714" type="curve" smooth="yes"/>
      <point x="51" y="714"/>
      <point x="41" y="736"/>
      <point x="41" y="753" type="curve" smooth="yes"/>
      <point x="41" y="774"/>
      <point x="58" y="794"/>
      <point x="83" y="794" type="curve" smooth="yes"/>
      <point x="111" y="794"/>
      <point x="123" y="775"/>
      <point x="123" y="757" type="curve" smooth="yes"/>
      <point x="123" y="736"/>
      <point x="108" y="714"/>
    </contour>
    <contour>
      <point x="232" y="714" type="curve" smooth="yes"/>
      <point x="202" y="714"/>
      <point x="192" y="736"/>
      <point x="192" y="753" type="curve" smooth="yes"/>
      <point x="192" y="774"/>
      <point x="209" y="794"/>
      <point x="235" y="794" type="curve" smooth="yes"/>
      <point x="263" y="794"/>
      <point x="274" y="775"/>
      <point x="274" y="757" type="curve" smooth="yes"/>
      <point x="274" y="736"/>
      <point x="260" y="714"/>
    </contour>
  </outline>
</glyph>
<glyph name="Ntilde" format="1">
  <advance width="753"/>
  <unicode hex="00D1"/>
  <outline>
    <contour>
      <point x="154" y="540" type="curve"/>
      <point x="153" y="479"/>
      <point x="158" y="179"/>
      <point x="160" y="128" type="curve" smooth="yes"/>
      <point x="162" y="55"/>
      <point x="164" y="41"/>
      <point x="249" y="23" type="curve"/>
      <point x="245" y="-3" type="line"/>
      <point x="222" y="0"/>
      <point x="178" y="2"/>
      <point x="133" y="2" type="curve" smooth="yes"/>
      <point x="91" y="2"/>
      <point x="50" y="0"/>
      <point x="25" y="-3" type="curve"/>
      <point x="23" y="23" type="line"/>
      <point x="105" y="41"/>
      <point x="110" y="46"/>
      <point x="116" y="134" type="curve" smooth="yes"/>
      <point x="120" y="205"/>
      <point x="120" y="460"/>
      <point x="120" y="527" type="curve" smooth="yes"/>
      <point x="120" y="574"/>
      <point x="92" y="600"/>
      <point x="23" y="613" type="curve"/>
      <point x="26" y="639" type="line"/>
      <point x="61" y="636"/>
      <point x="90" y="634"/>
      <point x="117" y="634" type="curve" smooth="yes"/>
      <point x="146" y="634"/>
      <point x="171" y="636"/>
      <point x="199" y="639" type="curve"/>
      <point x="210" y="613"/>
      <point x="228" y="584"/>
      <point x="250" y="555" type="curve" smooth="yes"/>
      <point x="371" y="398"/>
      <point x="516" y="230"/>
      <point x="617" y="108" type="curve"/>
      <point x="617" y="125"/>
      <point x="618" y="150"/>
      <point x="618" y="178" type="curve" smooth="yes"/>
      <point x="618" y="285"/>
      <point x="615" y="451"/>
      <point x="610" y="531" type="curve" smooth="yes"/>
      <point x="607" y="595"/>
      <point x="579" y="601"/>
      <point x="528" y="614" type="curve"/>
      <point x="533" y="639" type="line"/>
      <point x="562" y="634"/>
      <point x="590" y="633"/>
      <point x="619" y="633" type="curve" smooth="yes"/>
      <point x="654" y="633"/>
      <point x="690" y="635"/>
      <point x="731" y="639" type="curve"/>
      <point x="735" y="614" type="line"/>
      <point x="664" y="598"/>
      <point x="659" y="586"/>
      <point x="655" y="531" type="curve" smooth="yes"/>
      <point x="652" y="478"/>
      <point x="651" y="399"/>
      <point x="651" y="324" type="curve" smooth="yes"/>
      <point x="651" y="223"/>
      <point x="652" y="130"/>
      <point x="653" y="115" type="curve"/>
      <point x="653" y="95"/>
      <point x="655" y="64"/>
      <point x="682" y="20" type="curve"/>
      <point x="654" y="10"/>
      <point x="632" y="-4"/>
      <point x="610" y="-20" type="curve"/>
      <point x="514" y="110"/>
      <point x="235" y="437"/>
    </contour>
    <contour>
      <point x="393" y="773" type="curve" smooth="yes"/>
      <point x="413" y="768"/>
      <point x="427" y="764"/>
      <point x="446" y="761" type="curve" smooth="yes"/>
      <point x="487" y="755"/>
      <point x="503" y="759"/>
      <point x="545" y="796" type="curve"/>
      <point x="564" y="782" type="line"/>
      <point x="543" y="760"/>
      <point x="510" y="728"/>
      <point x="496" y="718" type="curve" smooth="yes"/>
      <point x="469" y="699"/>
      <point x="455" y="696"/>
      <point x="424" y="701" type="curve" smooth="yes"/>
      <point x="405" y="705"/>
      <point x="380" y="712"/>
      <point x="360" y="715" type="curve" smooth="yes"/>
      <point x="329" y="721"/>
      <point x="323" y="725"/>
      <point x="265" y="682" type="curve"/>
      <point x="248" y="698" type="line"/>
      <point x="272" y="722"/>
      <point x="299" y="747"/>
      <point x="315" y="758" type="curve" smooth="yes"/>
      <point x="334" y="771"/>
      <point x="346" y="777"/>
      <point x="363" y="777" type="curve" smooth="yes"/>
      <point x="371" y="777"/>
      <point x="381" y="776"/>
    </contour>
  </outline>
</glyph>
<glyph name="Oacute" format="1">
  <advance width="725"/>
  <unicode hex="00D3"/>
  <outline>
    <contour>
      <point x="356" y="-14" type="curve" smooth="yes"/>
      <point x="184" y="-14"/>
      <point x="70" y="104"/>
      <point x="48" y="230" type="curve" smooth="yes"/>
      <point x="43" y="255"/>
      <point x="41" y="279"/>
      <point x="41" y="305" type="curve" smooth="yes"/>
      <point x="41" y="324"/>
      <point x="42" y="344"/>
      <point x="45" y="364" type="curve" smooth="yes"/>
      <point x="57" y="441"/>
      <point x="92" y="526"/>
      <point x="178" y="586" type="curve"/>
      <point x="245" y="634"/>
      <point x="326" y="655"/>
      <point x="375" y="655" type="curve" smooth="yes"/>
      <point x="555" y="655"/>
      <point x="655" y="528"/>
      <point x="677" y="415" type="curve" smooth="yes"/>
      <point x="682" y="388"/>
      <point x="685" y="356"/>
      <point x="685" y="325" type="curve" smooth="yes"/>
      <point x="685" y="311"/>
      <point x="685" y="297"/>
      <point x="683" y="284" type="curve" smooth="yes"/>
      <point x="672" y="186"/>
      <point x="627" y="117"/>
      <point x="556" y="59" type="curve" smooth="yes"/>
      <point x="507" y="19"/>
      <point x="421" y="-14"/>
    </contour>
    <contour>
      <point x="130" y="368" type="curve" smooth="yes"/>
      <point x="129" y="353"/>
      <point x="128" y="338"/>
      <point x="128" y="322" type="curve" smooth="yes"/>
      <point x="128" y="294"/>
      <point x="130" y="266"/>
      <point x="136" y="239" type="curve" smooth="yes"/>
      <point x="166" y="94"/>
      <point x="287" y="36"/>
      <point x="387" y="36" type="curve" smooth="yes"/>
      <point x="510" y="36"/>
      <point x="581" y="135"/>
      <point x="594" y="258" type="curve" smooth="yes"/>
      <point x="596" y="277"/>
      <point x="597" y="297"/>
      <point x="597" y="317" type="curve" smooth="yes"/>
      <point x="597" y="341"/>
      <point x="595" y="366"/>
      <point x="591" y="390" type="curve" smooth="yes"/>
      <point x="565" y="542"/>
      <point x="442" y="607"/>
      <point x="348" y="607" type="curve" smooth="yes"/>
      <point x="216" y="607"/>
      <point x="141" y="499"/>
    </contour>
    <contour>
      <point x="276" y="697" type="curve"/>
      <point x="267" y="717" type="line"/>
      <point x="327" y="747"/>
      <point x="389" y="784"/>
      <point x="435" y="817" type="curve"/>
      <point x="439" y="796"/>
      <point x="451" y="759"/>
      <point x="463" y="739" type="curve"/>
      <point x="403" y="731"/>
      <point x="343" y="719"/>
    </contour>
  </outline>
</glyph>
<glyph name="multiply" format="1">
  <advance width="514"/>
  <unicode hex="00D7"/>
  <outline>
    <contour>
      <point x="67" y="439" type="line"/>
      <point x="92" y="464" type="line"/>
      <point x="257" y="299" type="line"/>
      <point x="423" y="465" type="line"/>
      <point x="448" y="440" type="line"/>
      <point x="282" y="274" type="line"/>
      <point x="448" y="108" type="line"/>
      <point x="423" y="83" type="line"/>
      <point x="257" y="249" type="line"/>
      <point x="91" y="83" type="line"/>
      <point x="66" y="108" type="line"/>
      <point x="232" y="274" type="line"/>
    </contour>
  </outline>
</glyph>
<glyph name="Oslash" format="1">
  <advance width="725"/>
  <unicode hex="00D8"/>
  <outline>
    <contour>
      <point x="356" y="-14" type="curve" smooth="yes"/>
      <point x="273" y="-14"/>
      <point x="205" y="13"/>
      <point x="153" y="55" type="curve"/>
      <point x="131" y="29"/>
      <point x="111" y="6"/>
      <point x="94" y="-15" type="curve"/>
      <point x="66" y="7" type="line"/>
      <point x="127" y="78" type="line"/>
      <point x="85" y="121"/>
      <point x="57" y="174"/>
      <point x="48" y="230" type="curve" smooth="yes"/>
      <point x="43" y="255"/>
      <point x="41" y="279"/>
      <point x="41" y="305" type="curve" smooth="yes"/>
      <point x="41" y="324"/>
      <point x="42" y="344"/>
      <point x="45" y="364" type="curve" smooth="yes"/>
      <point x="57" y="441"/>
      <point x="92" y="526"/>
      <point x="178" y="586" type="curve"/>
      <point x="245" y="634"/>
      <point x="326" y="655"/>
      <point x="375" y="655" type="curve" smooth="yes"/>
      <point x="456" y="655"/>
      <point x="521" y="628"/>
      <point x="570" y="589" type="curve"/>
      <point x="622" y="650" type="line"/>
      <point x="649" y="628" type="line"/>
      <point x="633" y="609"/>
      <point x="614" y="589"/>
      <point x="595" y="567" type="curve"/>
      <point x="639" y="522"/>
      <point x="667" y="467"/>
      <point x="677" y="415" type="curve" smooth="yes"/>
      <point x="682" y="388"/>
      <point x="685" y="356"/>
      <point x="685" y="325" type="curve" smooth="yes"/>
      <point x="685" y="311"/>
      <point x="685" y="297"/>
      <point x="683" y="284" type="curve" smooth="yes"/>
      <point x="672" y="186"/>
      <point x="627" y="117"/>
      <point x="556" y="59" type="curve" smooth="yes"/>
      <point x="507" y="19"/>
      <point x="421" y="-14"/>
    </contour>
    <contour>
      <point x="543" y="506" type="curve"/>
      <point x="437" y="384"/>
      <point x="307" y="235"/>
      <point x="201" y="111" type="curve"/>
      <point x="253" y="58"/>
      <point x="324" y="36"/>
      <point x="387" y="36" type="curve" smooth="yes"/>
      <point x="510" y="36"/>
      <point x="581" y="135"/>
      <point x="594" y="258" type="curve" smooth="yes"/>
      <point x="596" y="277"/>
      <point x="597" y="297"/>
      <point x="597" y="317" type="curve" smooth="yes"/>
      <point x="597" y="341"/>
      <point x="595" y="366"/>
      <point x="591" y="390" type="curve" smooth="yes"/>
      <point x="583" y="437"/>
      <point x="566" y="475"/>
    </contour>
    <contour>
      <point x="130" y="368" type="curve" smooth="yes"/>
      <point x="129" y="353"/>
      <point x="128" y="338"/>
      <point x="128" y="322" type="curve" smooth="yes"/>
      <point x="128" y="294"/>
      <point x="130" y="266"/>
      <point x="136" y="239" type="curve" smooth="yes"/>
      <point x="144" y="198"/>
      <point x="159" y="165"/>
      <point x="179" y="137" type="curve"/>
      <point x="286" y="260"/>
      <point x="417" y="410"/>
      <point x="521" y="532" type="curve"/>
      <point x="471" y="583"/>
      <point x="404" y="607"/>
      <point x="348" y="607" type="curve" smooth="yes"/>
      <point x="216" y="607"/>
      <point x="141" y="499"/>
    </contour>
  </outline>
</glyph>
<glyph name="Uacute" format="1">
  <advance width="724"/>
  <unicode hex="00DA"/>
  <outline>
    <contour>
      <point x="25" y="639" type="line"/>
      <point x="74" y="634"/>
      <point x="115" y="631"/>
      <point x="157" y="631" type="curve" smooth="yes"/>
      <point x="198" y="631"/>
      <point x="240" y="634"/>
      <point x="289" y="639" type="curve"/>
      <point x="293" y="614" type="line"/>
      <point x="216" y="595"/>
      <point x="203" y="594"/>
      <point x="200" y="542" type="curve" smooth="yes"/>
      <point x="199" y="520"/>
      <point x="197" y="424"/>
      <point x="197" y="340" type="curve" smooth="yes"/>
      <point x="197" y="303"/>
      <point x="197" y="269"/>
      <point x="198" y="243" type="curve" smooth="yes"/>
      <point x="202" y="116"/>
      <point x="240" y="32"/>
      <point x="380" y="32" type="curve" smooth="yes"/>
      <point x="502" y="32"/>
      <point x="583" y="87"/>
      <point x="586" y="235" type="curve" smooth="yes"/>
      <point x="587" y="260"/>
      <point x="587" y="290"/>
      <point x="587" y="321" type="curve" smooth="yes"/>
      <point x="587" y="393"/>
      <point x="585" y="474"/>
      <point x="581" y="517" type="curve" smooth="yes"/>
      <point x="575" y="589"/>
      <point x="556" y="599"/>
      <point x="495" y="614" type="curve"/>
      <point x="500" y="639" type="line"/>
      <point x="522" y="636"/>
      <point x="565" y="633"/>
      <point x="609" y="633" type="curve" smooth="yes"/>
      <point x="643" y="633"/>
      <point x="678" y="635"/>
      <point x="703" y="639" type="curve"/>
      <point x="708" y="614" type="line"/>
      <point x="648" y="598"/>
      <point x="631" y="596"/>
      <point x="626" y="521" type="curve" smooth="yes"/>
      <point x="624" y="483"/>
      <point x="623" y="446"/>
      <point x="623" y="408" type="curve" smooth="yes"/>
      <point x="623" y="364"/>
      <point x="624" y="319"/>
      <point x="624" y="275" type="curve" smooth="yes"/>
      <point x="624" y="241" type="line"/>
      <point x="622" y="150"/>
      <point x="604" y="75"/>
      <point x="525" y="24" type="curve" smooth="yes"/>
      <point x="481" y="-5"/>
      <point x="415" y="-18"/>
      <point x="360" y="-18" type="curve" smooth="yes"/>
      <point x="196" y="-18"/>
      <point x="117" y="59"/>
      <point x="117" y="218" type="curve" smooth="yes"/>
      <point x="117" y="289"/>
      <point x="118" y="362"/>
      <point x="118" y="434" type="curve" smooth="yes"/>
      <point x="118" y="470"/>
      <point x="118" y="506"/>
      <point x="117" y="541" type="curve" smooth="yes"/>
      <point x="116" y="592"/>
      <point x="93" y="598"/>
      <point x="20" y="614" type="curve"/>
    </contour>
    <contour>
      <point x="313" y="690" type="curve"/>
      <point x="304" y="710" type="line"/>
      <point x="364" y="740"/>
      <point x="426" y="777"/>
      <point x="472" y="810" type="curve"/>
      <point x="476" y="789"/>
      <point x="488" y="752"/>
      <point x="500" y="732" type="curve"/>
      <point x="440" y="724"/>
      <point x="380" y="712"/>
    </contour>
  </outline>
</glyph>
<glyph name="Yacute" format="1">
  <advance width="624"/>
  <unicode hex="00DD"/>
  <outline>
    <contour>
      <point x="195" y="-3" type="curve"/>
      <point x="190" y="23" type="line"/>
      <point x="278" y="47"/>
      <point x="275" y="49"/>
      <point x="276" y="101" type="curve" smooth="yes"/>
      <point x="277" y="121"/>
      <point x="277" y="151"/>
      <point x="277" y="179" type="curve" smooth="yes"/>
      <point x="277" y="207"/>
      <point x="277" y="232"/>
      <point x="276" y="245" type="curve"/>
      <point x="233" y="351"/>
      <point x="180" y="454"/>
      <point x="132" y="537" type="curve" smooth="yes"/>
      <point x="98" y="597"/>
      <point x="85" y="600"/>
      <point x="15" y="614" type="curve"/>
      <point x="20" y="639" type="line"/>
      <point x="48" y="636"/>
      <point x="78" y="635"/>
      <point x="110" y="635" type="curve" smooth="yes"/>
      <point x="139" y="635"/>
      <point x="169" y="636"/>
      <point x="200" y="639" type="curve"/>
      <point x="198" y="626"/>
      <point x="199" y="602"/>
      <point x="214" y="566" type="curve" smooth="yes"/>
      <point x="269" y="435"/>
      <point x="297" y="381"/>
      <point x="342" y="297" type="curve"/>
      <point x="386" y="372"/>
      <point x="428" y="453"/>
      <point x="461" y="530" type="curve" smooth="yes"/>
      <point x="467" y="545"/>
      <point x="472" y="556"/>
      <point x="472" y="567" type="curve" smooth="yes"/>
      <point x="472" y="588"/>
      <point x="456" y="602"/>
      <point x="411" y="616" type="curve"/>
      <point x="415" y="639" type="line"/>
      <point x="446" y="636"/>
      <point x="480" y="634"/>
      <point x="515" y="634" type="curve" smooth="yes"/>
      <point x="545" y="634"/>
      <point x="576" y="635"/>
      <point x="604" y="639" type="curve"/>
      <point x="608" y="614" type="line"/>
      <point x="547" y="596"/>
      <point x="540" y="576"/>
      <point x="515" y="535" type="curve" smooth="yes"/>
      <point x="484" y="485"/>
      <point x="400" y="333"/>
      <point x="357" y="246" type="curve"/>
      <point x="355" y="208"/>
      <point x="355" y="144"/>
      <point x="355" y="97" type="curve" smooth="yes"/>
      <point x="356" y="43"/>
      <point x="357" y="45"/>
      <point x="439" y="23" type="curve"/>
      <point x="433" y="-3" type="line"/>
      <point x="378" y="0"/>
      <point x="335" y="2"/>
      <point x="293" y="2" type="curve" smooth="yes"/>
      <point x="261" y="2"/>
      <point x="230" y="1"/>
    </contour>
    <contour>
      <point x="247" y="690" type="curve"/>
      <point x="238" y="710" type="line"/>
      <point x="298" y="740"/>
      <point x="360" y="777"/>
      <point x="406" y="810" type="curve"/>
      <point x="410" y="789"/>
      <point x="422" y="752"/>
      <point x="434" y="732" type="curve"/>
      <point x="374" y="724"/>
      <point x="314" y="712"/>
    </contour>
  </outline>
</glyph>
<glyph name="Thorn" format="1">
  <advance width="554"/>
  <unicode hex="00DE"/>
  <outline>
    <contour>
      <point x="25" y="639" type="line"/>
      <point x="74" y="634"/>
      <point x="116" y="631"/>
      <point x="157" y="631" type="curve" smooth="yes"/>
      <point x="198" y="631"/>
      <point x="240" y="634"/>
      <point x="289" y="639" type="curve"/>
      <point x="293" y="614" type="line"/>
      <point x="225" y="602"/>
      <point x="203" y="585"/>
      <point x="200" y="533" type="curve"/>
      <point x="200" y="508" type="line"/>
      <point x="229" y="511"/>
      <point x="265" y="514"/>
      <point x="310" y="516" type="curve"/>
      <point x="381" y="516"/>
      <point x="535" y="497"/>
      <point x="540" y="358" type="curve" smooth="yes"/>
      <point x="545" y="219"/>
      <point x="438" y="148"/>
      <point x="324" y="148" type="curve" smooth="yes"/>
      <point x="301" y="148"/>
      <point x="271" y="151"/>
      <point x="239" y="162" type="curve"/>
      <point x="248" y="175"/>
      <point x="252" y="186"/>
      <point x="255" y="202" type="curve"/>
      <point x="278" y="192"/>
      <point x="305" y="183"/>
      <point x="337" y="183" type="curve" smooth="yes"/>
      <point x="412" y="183"/>
      <point x="455" y="265"/>
      <point x="455" y="330" type="curve" smooth="yes"/>
      <point x="455" y="436"/>
      <point x="372" y="480"/>
      <point x="282" y="480" type="curve" smooth="yes"/>
      <point x="264" y="480"/>
      <point x="209" y="477"/>
      <point x="199" y="473" type="curve"/>
      <point x="198" y="436"/>
      <point x="198" y="395"/>
      <point x="198" y="351" type="curve" smooth="yes"/>
      <point x="198" y="270"/>
      <point x="199" y="182"/>
      <point x="201" y="108" type="curve" smooth="yes"/>
      <point x="203" y="53"/>
      <point x="227" y="36"/>
      <point x="293" y="23" type="curve"/>
      <point x="287" y="-3" type="line"/>
      <point x="238" y="1"/>
      <point x="197" y="3"/>
      <point x="156" y="3" type="curve" smooth="yes"/>
      <point x="115" y="3"/>
      <point x="74" y="1"/>
      <point x="25" y="-3" type="curve"/>
      <point x="20" y="23" type="line"/>
      <point x="100" y="39"/>
      <point x="115" y="55"/>
      <point x="117" y="107" type="curve" smooth="yes"/>
      <point x="120" y="170"/>
      <point x="122" y="236"/>
      <point x="122" y="302" type="curve" smooth="yes"/>
      <point x="122" y="380"/>
      <point x="120" y="458"/>
      <point x="117" y="532" type="curve" smooth="yes"/>
      <point x="115" y="583"/>
      <point x="89" y="605"/>
      <point x="20" y="614" type="curve"/>
    </contour>
  </outline>
</glyph>
